<mxfile host="Electron" agent="Mozilla/5.0 (Windows NT 10.0; Win64; x64) AppleWebKit/537.36 (KHTML, like Gecko) draw.io/27.0.5 Chrome/134.0.6998.205 Electron/35.3.0 Safari/537.36" version="27.0.5">
  <diagram name="Страница — 1" id="daux7TU8GGphYOUxT4hE">
    <mxGraphModel dx="1410" dy="1000" grid="1" gridSize="10" guides="1" tooltips="1" connect="1" arrows="1" fold="1" page="1" pageScale="1" pageWidth="827" pageHeight="1169" math="0" shadow="0">
      <root>
        <mxCell id="0" />
        <mxCell id="1" parent="0" />
        <mxCell id="Whg6E0iZkNlX-ERxeSda-1" value="List" style="swimlane;fontStyle=0;childLayout=stackLayout;horizontal=1;startSize=30;horizontalStack=0;resizeParent=1;resizeParentMax=0;resizeLast=0;collapsible=1;marginBottom=0;whiteSpace=wrap;html=1;" vertex="1" parent="1">
          <mxGeometry x="10" y="80" width="210" height="120" as="geometry" />
        </mxCell>
        <mxCell id="Whg6E0iZkNlX-ERxeSda-2" value="Item 1" style="text;strokeColor=none;fillColor=none;align=left;verticalAlign=middle;spacingLeft=4;spacingRight=4;overflow=hidden;points=[[0,0.5],[1,0.5]];portConstraint=eastwest;rotatable=0;whiteSpace=wrap;html=1;" vertex="1" parent="Whg6E0iZkNlX-ERxeSda-1">
          <mxGeometry y="30" width="210" height="30" as="geometry" />
        </mxCell>
        <mxCell id="Whg6E0iZkNlX-ERxeSda-3" value="Item 2" style="text;strokeColor=none;fillColor=none;align=left;verticalAlign=middle;spacingLeft=4;spacingRight=4;overflow=hidden;points=[[0,0.5],[1,0.5]];portConstraint=eastwest;rotatable=0;whiteSpace=wrap;html=1;" vertex="1" parent="Whg6E0iZkNlX-ERxeSda-1">
          <mxGeometry y="60" width="210" height="30" as="geometry" />
        </mxCell>
        <mxCell id="Whg6E0iZkNlX-ERxeSda-4" value="Item 3" style="text;strokeColor=none;fillColor=none;align=left;verticalAlign=middle;spacingLeft=4;spacingRight=4;overflow=hidden;points=[[0,0.5],[1,0.5]];portConstraint=eastwest;rotatable=0;whiteSpace=wrap;html=1;" vertex="1" parent="Whg6E0iZkNlX-ERxeSda-1">
          <mxGeometry y="90" width="210" height="30" as="geometry" />
        </mxCell>
        <mxCell id="Whg6E0iZkNlX-ERxeSda-5" value="&lt;font style=&quot;font-size: 18px;&quot;&gt;Mikeya Warehouse Domain Modeling&lt;/font&gt;" style="text;html=1;align=center;verticalAlign=middle;whiteSpace=wrap;rounded=0;" vertex="1" parent="1">
          <mxGeometry width="830" height="30" as="geometry" />
        </mxCell>
        <mxCell id="Whg6E0iZkNlX-ERxeSda-7" value="" style="shape=image;verticalLabelPosition=bottom;labelBackgroundColor=default;verticalAlign=top;aspect=fixed;imageAspect=0;editableCssRules=.*;image=data:image/svg+xml,PHN2ZyB4bWxucz0iaHR0cDovL3d3dy53My5vcmcvMjAwMC9zdmciIHhtbG5zOnhsaW5rPSJodHRwOi8vd3d3LnczLm9yZy8xOTk5L3hsaW5rIiBpZD0ibWVybWFpZC1zdmctNyIgd2lkdGg9IjI5NTUuNjI0OTUxMTcxODc1IiBjbGFzcz0iY2xhc3NEaWFncmFtIiBzdHlsZT0ibWF4LXdpZHRoOiAyOTcwLjMyNDk1MTE3MTg3NXB4OyIgdmlld0JveD0iNy4zNSA3LjM1IDI5NTUuNjI0OTUxMTcxODc1IDUwNy4zIiByb2xlPSJncmFwaGljcy1kb2N1bWVudCBkb2N1bWVudCIgYXJpYS1yb2xlZGVzY3JpcHRpb249ImNsYXNzIiBoZWlnaHQ9IjUwNy4zIj48c3R5bGU+I21lcm1haWQtc3ZnLTd7Zm9udC1mYW1pbHk6InRyZWJ1Y2hldCBtcyIsdmVyZGFuYSxhcmlhbCxzYW5zLXNlcmlmO2ZvbnQtc2l6ZToxNnB4O2ZpbGw6I2NjYzt9QGtleWZyYW1lcyBlZGdlLWFuaW1hdGlvbi1mcmFtZXtmcm9te3N0cm9rZS1kYXNob2Zmc2V0OjA7fX1Aa2V5ZnJhbWVzIGRhc2h7dG97c3Ryb2tlLWRhc2hvZmZzZXQ6MDt9fSNtZXJtYWlkLXN2Zy03IC5lZGdlLWFuaW1hdGlvbi1zbG93e3N0cm9rZS1kYXNoYXJyYXk6OSw1IWltcG9ydGFudDtzdHJva2UtZGFzaG9mZnNldDo5MDA7YW5pbWF0aW9uOmRhc2ggNTBzIGxpbmVhciBpbmZpbml0ZTtzdHJva2UtbGluZWNhcDpyb3VuZDt9I21lcm1haWQtc3ZnLTcgLmVkZ2UtYW5pbWF0aW9uLWZhc3R7c3Ryb2tlLWRhc2hhcnJheTo5LDUhaW1wb3J0YW50O3N0cm9rZS1kYXNob2Zmc2V0OjkwMDthbmltYXRpb246ZGFzaCAyMHMgbGluZWFyIGluZmluaXRlO3N0cm9rZS1saW5lY2FwOnJvdW5kO30jbWVybWFpZC1zdmctNyAuZXJyb3ItaWNvbntmaWxsOiNhNDQxNDE7fSNtZXJtYWlkLXN2Zy03IC5lcnJvci10ZXh0e2ZpbGw6I2RkZDtzdHJva2U6I2RkZDt9I21lcm1haWQtc3ZnLTcgLmVkZ2UtdGhpY2tuZXNzLW5vcm1hbHtzdHJva2Utd2lkdGg6MXB4O30jbWVybWFpZC1zdmctNyAuZWRnZS10aGlja25lc3MtdGhpY2t7c3Ryb2tlLXdpZHRoOjMuNXB4O30jbWVybWFpZC1zdmctNyAuZWRnZS1wYXR0ZXJuLXNvbGlke3N0cm9rZS1kYXNoYXJyYXk6MDt9I21lcm1haWQtc3ZnLTcgLmVkZ2UtdGhpY2tuZXNzLWludmlzaWJsZXtzdHJva2Utd2lkdGg6MDtmaWxsOm5vbmU7fSNtZXJtYWlkLXN2Zy03IC5lZGdlLXBhdHRlcm4tZGFzaGVke3N0cm9rZS1kYXNoYXJyYXk6Mzt9I21lcm1haWQtc3ZnLTcgLmVkZ2UtcGF0dGVybi1kb3R0ZWR7c3Ryb2tlLWRhc2hhcnJheToyO30jbWVybWFpZC1zdmctNyAubWFya2Vye2ZpbGw6bGlnaHRncmV5O3N0cm9rZTpsaWdodGdyZXk7fSNtZXJtYWlkLXN2Zy03IC5tYXJrZXIuY3Jvc3N7c3Ryb2tlOmxpZ2h0Z3JleTt9I21lcm1haWQtc3ZnLTcgc3Zne2ZvbnQtZmFtaWx5OiJ0cmVidWNoZXQgbXMiLHZlcmRhbmEsYXJpYWwsc2Fucy1zZXJpZjtmb250LXNpemU6MTZweDt9I21lcm1haWQtc3ZnLTcgcHttYXJnaW46MDt9I21lcm1haWQtc3ZnLTcgZy5jbGFzc0dyb3VwIHRleHR7ZmlsbDojY2NjO3N0cm9rZTpub25lO2ZvbnQtZmFtaWx5OiJ0cmVidWNoZXQgbXMiLHZlcmRhbmEsYXJpYWwsc2Fucy1zZXJpZjtmb250LXNpemU6MTBweDt9I21lcm1haWQtc3ZnLTcgZy5jbGFzc0dyb3VwIHRleHQgLnRpdGxle2ZvbnQtd2VpZ2h0OmJvbGRlcjt9I21lcm1haWQtc3ZnLTcgLm5vZGVMYWJlbCwjbWVybWFpZC1zdmctNyAuZWRnZUxhYmVse2NvbG9yOiNlMGRmZGY7fSNtZXJtYWlkLXN2Zy03IC5lZGdlTGFiZWwgLmxhYmVsIHJlY3R7ZmlsbDojMWYyMDIwO30jbWVybWFpZC1zdmctNyAubGFiZWwgdGV4dHtmaWxsOiNlMGRmZGY7fSNtZXJtYWlkLXN2Zy03IC5sYWJlbEJrZ3tiYWNrZ3JvdW5kOiMxZjIwMjA7fSNtZXJtYWlkLXN2Zy03IC5lZGdlTGFiZWwgLmxhYmVsIHNwYW57YmFja2dyb3VuZDojMWYyMDIwO30jbWVybWFpZC1zdmctNyAuY2xhc3NUaXRsZXtmb250LXdlaWdodDpib2xkZXI7fSNtZXJtYWlkLXN2Zy03IC5ub2RlIHJlY3QsI21lcm1haWQtc3ZnLTcgLm5vZGUgY2lyY2xlLCNtZXJtYWlkLXN2Zy03IC5ub2RlIGVsbGlwc2UsI21lcm1haWQtc3ZnLTcgLm5vZGUgcG9seWdvbiwjbWVybWFpZC1zdmctNyAubm9kZSBwYXRoe2ZpbGw6IzFmMjAyMDtzdHJva2U6I2NjYztzdHJva2Utd2lkdGg6MXB4O30jbWVybWFpZC1zdmctNyAuZGl2aWRlcntzdHJva2U6I2NjYztzdHJva2Utd2lkdGg6MTt9I21lcm1haWQtc3ZnLTcgZy5jbGlja2FibGV7Y3Vyc29yOnBvaW50ZXI7fSNtZXJtYWlkLXN2Zy03IGcuY2xhc3NHcm91cCByZWN0e2ZpbGw6IzFmMjAyMDtzdHJva2U6I2NjYzt9I21lcm1haWQtc3ZnLTcgZy5jbGFzc0dyb3VwIGxpbmV7c3Ryb2tlOiNjY2M7c3Ryb2tlLXdpZHRoOjE7fSNtZXJtYWlkLXN2Zy03IC5jbGFzc0xhYmVsIC5ib3h7c3Ryb2tlOm5vbmU7c3Ryb2tlLXdpZHRoOjA7ZmlsbDojMWYyMDIwO29wYWNpdHk6MC41O30jbWVybWFpZC1zdmctNyAuY2xhc3NMYWJlbCAubGFiZWx7ZmlsbDojY2NjO2ZvbnQtc2l6ZToxMHB4O30jbWVybWFpZC1zdmctNyAucmVsYXRpb257c3Ryb2tlOmxpZ2h0Z3JleTtzdHJva2Utd2lkdGg6MTtmaWxsOm5vbmU7fSNtZXJtYWlkLXN2Zy03IC5kYXNoZWQtbGluZXtzdHJva2UtZGFzaGFycmF5OjM7fSNtZXJtYWlkLXN2Zy03IC5kb3R0ZWQtbGluZXtzdHJva2UtZGFzaGFycmF5OjEgMjt9I21lcm1haWQtc3ZnLTcgI2NvbXBvc2l0aW9uU3RhcnQsI21lcm1haWQtc3ZnLTcgLmNvbXBvc2l0aW9ue2ZpbGw6bGlnaHRncmV5IWltcG9ydGFudDtzdHJva2U6bGlnaHRncmV5IWltcG9ydGFudDtzdHJva2Utd2lkdGg6MTt9I21lcm1haWQtc3ZnLTcgI2NvbXBvc2l0aW9uRW5kLCNtZXJtYWlkLXN2Zy03IC5jb21wb3NpdGlvbntmaWxsOmxpZ2h0Z3JleSFpbXBvcnRhbnQ7c3Ryb2tlOmxpZ2h0Z3JleSFpbXBvcnRhbnQ7c3Ryb2tlLXdpZHRoOjE7fSNtZXJtYWlkLXN2Zy03ICNkZXBlbmRlbmN5U3RhcnQsI21lcm1haWQtc3ZnLTcgLmRlcGVuZGVuY3l7ZmlsbDpsaWdodGdyZXkhaW1wb3J0YW50O3N0cm9rZTpsaWdodGdyZXkhaW1wb3J0YW50O3N0cm9rZS13aWR0aDoxO30jbWVybWFpZC1zdmctNyAjZGVwZW5kZW5jeVN0YXJ0LCNtZXJtYWlkLXN2Zy03IC5kZXBlbmRlbmN5e2ZpbGw6bGlnaHRncmV5IWltcG9ydGFudDtzdHJva2U6bGlnaHRncmV5IWltcG9ydGFudDtzdHJva2Utd2lkdGg6MTt9I21lcm1haWQtc3ZnLTcgI2V4dGVuc2lvblN0YXJ0LCNtZXJtYWlkLXN2Zy03IC5leHRlbnNpb257ZmlsbDp0cmFuc3BhcmVudCFpbXBvcnRhbnQ7c3Ryb2tlOmxpZ2h0Z3JleSFpbXBvcnRhbnQ7c3Ryb2tlLXdpZHRoOjE7fSNtZXJtYWlkLXN2Zy03ICNleHRlbnNpb25FbmQsI21lcm1haWQtc3ZnLTcgLmV4dGVuc2lvbntmaWxsOnRyYW5zcGFyZW50IWltcG9ydGFudDtzdHJva2U6bGlnaHRncmV5IWltcG9ydGFudDtzdHJva2Utd2lkdGg6MTt9I21lcm1haWQtc3ZnLTcgI2FnZ3JlZ2F0aW9uU3RhcnQsI21lcm1haWQtc3ZnLTcgLmFnZ3JlZ2F0aW9ue2ZpbGw6dHJhbnNwYXJlbnQhaW1wb3J0YW50O3N0cm9rZTpsaWdodGdyZXkhaW1wb3J0YW50O3N0cm9rZS13aWR0aDoxO30jbWVybWFpZC1zdmctNyAjYWdncmVnYXRpb25FbmQsI21lcm1haWQtc3ZnLTcgLmFnZ3JlZ2F0aW9ue2ZpbGw6dHJhbnNwYXJlbnQhaW1wb3J0YW50O3N0cm9rZTpsaWdodGdyZXkhaW1wb3J0YW50O3N0cm9rZS13aWR0aDoxO30jbWVybWFpZC1zdmctNyAjbG9sbGlwb3BTdGFydCwjbWVybWFpZC1zdmctNyAubG9sbGlwb3B7ZmlsbDojMWYyMDIwIWltcG9ydGFudDtzdHJva2U6bGlnaHRncmV5IWltcG9ydGFudDtzdHJva2Utd2lkdGg6MTt9I21lcm1haWQtc3ZnLTcgI2xvbGxpcG9wRW5kLCNtZXJtYWlkLXN2Zy03IC5sb2xsaXBvcHtmaWxsOiMxZjIwMjAhaW1wb3J0YW50O3N0cm9rZTpsaWdodGdyZXkhaW1wb3J0YW50O3N0cm9rZS13aWR0aDoxO30jbWVybWFpZC1zdmctNyAuZWRnZVRlcm1pbmFsc3tmb250LXNpemU6MTFweDtsaW5lLWhlaWdodDppbml0aWFsO30jbWVybWFpZC1zdmctNyAuY2xhc3NUaXRsZVRleHR7dGV4dC1hbmNob3I6bWlkZGxlO2ZvbnQtc2l6ZToxOHB4O2ZpbGw6I2NjYzt9I21lcm1haWQtc3ZnLTcgOnJvb3R7LS1tZXJtYWlkLWZvbnQtZmFtaWx5OiJ0cmVidWNoZXQgbXMiLHZlcmRhbmEsYXJpYWwsc2Fucy1zZXJpZjt9PC9zdHlsZT48Zz48ZGVmcz48bWFya2VyIGlkPSJtZXJtYWlkLXN2Zy03X2NsYXNzLWFnZ3JlZ2F0aW9uU3RhcnQiIGNsYXNzPSJtYXJrZXIgYWdncmVnYXRpb24gY2xhc3MiIHJlZlg9IjE4IiByZWZZPSI3IiBtYXJrZXJXaWR0aD0iMTkwIiBtYXJrZXJIZWlnaHQ9IjI0MCIgb3JpZW50PSJhdXRvIj48cGF0aCBkPSJNIDE4LDcgTDksMTMgTDEsNyBMOSwxIFoiLz48L21hcmtlcj48L2RlZnM+PGRlZnM+PG1hcmtlciBpZD0ibWVybWFpZC1zdmctN19jbGFzcy1hZ2dyZWdhdGlvbkVuZCIgY2xhc3M9Im1hcmtlciBhZ2dyZWdhdGlvbiBjbGFzcyIgcmVmWD0iMSIgcmVmWT0iNyIgbWFya2VyV2lkdGg9IjIwIiBtYXJrZXJIZWlnaHQ9IjI4IiBvcmllbnQ9ImF1dG8iPjxwYXRoIGQ9Ik0gMTgsNyBMOSwxMyBMMSw3IEw5LDEgWiIvPjwvbWFya2VyPjwvZGVmcz48ZGVmcz48bWFya2VyIGlkPSJtZXJtYWlkLXN2Zy03X2NsYXNzLWV4dGVuc2lvblN0YXJ0IiBjbGFzcz0ibWFya2VyIGV4dGVuc2lvbiBjbGFzcyIgcmVmWD0iMTgiIHJlZlk9IjciIG1hcmtlcldpZHRoPSIxOTAiIG1hcmtlckhlaWdodD0iMjQwIiBvcmllbnQ9ImF1dG8iPjxwYXRoIGQ9Ik0gMSw3IEwxOCwxMyBWIDEgWiIvPjwvbWFya2VyPjwvZGVmcz48ZGVmcz48bWFya2VyIGlkPSJtZXJtYWlkLXN2Zy03X2NsYXNzLWV4dGVuc2lvbkVuZCIgY2xhc3M9Im1hcmtlciBleHRlbnNpb24gY2xhc3MiIHJlZlg9IjEiIHJlZlk9IjciIG1hcmtlcldpZHRoPSIyMCIgbWFya2VySGVpZ2h0PSIyOCIgb3JpZW50PSJhdXRvIj48cGF0aCBkPSJNIDEsMSBWIDEzIEwxOCw3IFoiLz48L21hcmtlcj48L2RlZnM+PGRlZnM+PG1hcmtlciBpZD0ibWVybWFpZC1zdmctN19jbGFzcy1jb21wb3NpdGlvblN0YXJ0IiBjbGFzcz0ibWFya2VyIGNvbXBvc2l0aW9uIGNsYXNzIiByZWZYPSIxOCIgcmVmWT0iNyIgbWFya2VyV2lkdGg9IjE5MCIgbWFya2VySGVpZ2h0PSIyNDAiIG9yaWVudD0iYXV0byI+PHBhdGggZD0iTSAxOCw3IEw5LDEzIEwxLDcgTDksMSBaIi8+PC9tYXJrZXI+PC9kZWZzPjxkZWZzPjxtYXJrZXIgaWQ9Im1lcm1haWQtc3ZnLTdfY2xhc3MtY29tcG9zaXRpb25FbmQiIGNsYXNzPSJtYXJrZXIgY29tcG9zaXRpb24gY2xhc3MiIHJlZlg9IjEiIHJlZlk9IjciIG1hcmtlcldpZHRoPSIyMCIgbWFya2VySGVpZ2h0PSIyOCIgb3JpZW50PSJhdXRvIj48cGF0aCBkPSJNIDE4LDcgTDksMTMgTDEsNyBMOSwxIFoiLz48L21hcmtlcj48L2RlZnM+PGRlZnM+PG1hcmtlciBpZD0ibWVybWFpZC1zdmctN19jbGFzcy1kZXBlbmRlbmN5U3RhcnQiIGNsYXNzPSJtYXJrZXIgZGVwZW5kZW5jeSBjbGFzcyIgcmVmWD0iNiIgcmVmWT0iNyIgbWFya2VyV2lkdGg9IjE5MCIgbWFya2VySGVpZ2h0PSIyNDAiIG9yaWVudD0iYXV0byI+PHBhdGggZD0iTSA1LDcgTDksMTMgTDEsNyBMOSwxIFoiLz48L21hcmtlcj48L2RlZnM+PGRlZnM+PG1hcmtlciBpZD0ibWVybWFpZC1zdmctN19jbGFzcy1kZXBlbmRlbmN5RW5kIiBjbGFzcz0ibWFya2VyIGRlcGVuZGVuY3kgY2xhc3MiIHJlZlg9IjEzIiByZWZZPSI3IiBtYXJrZXJXaWR0aD0iMjAiIG1hcmtlckhlaWdodD0iMjgiIG9yaWVudD0iYXV0byI+PHBhdGggZD0iTSAxOCw3IEw5LDEzIEwxNCw3IEw5LDEgWiIvPjwvbWFya2VyPjwvZGVmcz48ZGVmcz48bWFya2VyIGlkPSJtZXJtYWlkLXN2Zy03X2NsYXNzLWxvbGxpcG9wU3RhcnQiIGNsYXNzPSJtYXJrZXIgbG9sbGlwb3AgY2xhc3MiIHJlZlg9IjEzIiByZWZZPSI3IiBtYXJrZXJXaWR0aD0iMTkwIiBtYXJrZXJIZWlnaHQ9IjI0MCIgb3JpZW50PSJhdXRvIj48Y2lyY2xlIHN0cm9rZT0iYmxhY2siIGZpbGw9InRyYW5zcGFyZW50IiBjeD0iNyIgY3k9IjciIHI9IjYiLz48L21hcmtlcj48L2RlZnM+PGRlZnM+PG1hcmtlciBpZD0ibWVybWFpZC1zdmctN19jbGFzcy1sb2xsaXBvcEVuZCIgY2xhc3M9Im1hcmtlciBsb2xsaXBvcCBjbGFzcyIgcmVmWD0iMSIgcmVmWT0iNyIgbWFya2VyV2lkdGg9IjE5MCIgbWFya2VySGVpZ2h0PSIyNDAiIG9yaWVudD0iYXV0byI+PGNpcmNsZSBzdHJva2U9ImJsYWNrIiBmaWxsPSJ0cmFuc3BhcmVudCIgY3g9IjciIGN5PSI3IiByPSI2Ii8+PC9tYXJrZXI+PC9kZWZzPjxnIGNsYXNzPSJyb290Ij48ZyBjbGFzcz0iY2x1c3RlcnMiLz48ZyBjbGFzcz0iZWRnZVBhdGhzIj48cGF0aCBkPSJNMTM2LjM3NSwzMDJMMTM2LjM3NSwzMDkuMTY3QzEzNi4zNzUsMzE2LjMzMywxMzYuMzc1LDMzMC42NjcsMTM2LjM3NSwzNDJDMTM2LjM3NSwzNTMuMzMzLDEzNi4zNzUsMzYxLjY2NywxMzYuMzc1LDM2NS44MzNMMTM2LjM3NSwzNzAiIGlkPSJpZF9BZGRyZXNzX0dlb0Nvb3JkaW5hdGVfMSIgY2xhc3M9ImVkZ2UtdGhpY2tuZXNzLW5vcm1hbCBlZGdlLXBhdHRlcm4tc29saWQgcmVsYXRpb24iIHN0eWxlPSI7IiBtYXJrZXItc3RhcnQ9InVybCgjbWVybWFpZC1zdmctN19jbGFzcy1jb21wb3NpdGlvblN0YXJ0KSIvPjxwYXRoIGQ9Ik05MjkuOTQ2LDIzNkw5MjkuOTQ2LDI1NC4xNjdDOTI5Ljk0NiwyNzIuMzMzLDkyOS45NDYsMzA4LjY2Nyw5MjkuOTQ2LDMzNUM5MjkuOTQ2LDM2MS4zMzMsOTI5Ljk0NiwzNzcuNjY3LDkyOS45NDYsMzg1LjgzM0w5MjkuOTQ2LDM5NCIgaWQ9ImlkX0JhcmNvZGVfQmFyY29kZVR5cGVfMiIgY2xhc3M9ImVkZ2UtdGhpY2tuZXNzLW5vcm1hbCBlZGdlLXBhdHRlcm4tc29saWQgcmVsYXRpb24iIHN0eWxlPSI7IiBtYXJrZXItZW5kPSJ1cmwoI21lcm1haWQtc3ZnLTdfY2xhc3MtZGVwZW5kZW5jeUVuZCkiLz48cGF0aCBkPSJNNDA4LjY4OCwyNjBMNDA4LjY4OCwyNzQuMTY3QzQwOC42ODgsMjg4LjMzMyw0MDguNjg4LDMxNi42NjcsNDA4LjY4OCwzMzlDNDA4LjY4OCwzNjEuMzMzLDQwOC42ODgsMzc3LjY2Nyw0MDguNjg4LDM4NS44MzNMNDA4LjY4OCwzOTQiIGlkPSJpZF9EaW1lbnNpb25zX1ZvbHVtZUNhbGN1bGF0aW9uXzMiIGNsYXNzPSJlZGdlLXRoaWNrbmVzcy1ub3JtYWwgZWRnZS1wYXR0ZXJuLWRhc2hlZCByZWxhdGlvbiIgc3R5bGU9IjsiIG1hcmtlci1lbmQ9InVybCgjbWVybWFpZC1zdmctN19jbGFzcy1kZXBlbmRlbmN5RW5kKSIvPjxwYXRoIGQ9Ik0xNDUwLjY1LDIzNkwxNDUwLjY1LDI1NC4xNjdDMTQ1MC42NSwyNzIuMzMzLDE0NTAuNjUsMzA4LjY2NywxNDUwLjY1LDMzNUMxNDUwLjY1LDM2MS4zMzMsMTQ1MC42NSwzNzcuNjY3LDE0NTAuNjUsMzg1LjgzM0wxNDUwLjY1LDM5NCIgaWQ9ImlkX1NoZWxmTGlmZV9TaGVsZkxpZmVUeXBlXzQiIGNsYXNzPSJlZGdlLXRoaWNrbmVzcy1ub3JtYWwgZWRnZS1wYXR0ZXJuLXNvbGlkIHJlbGF0aW9uIiBzdHlsZT0iOyIgbWFya2VyLWVuZD0idXJsKCNtZXJtYWlkLXN2Zy03X2NsYXNzLWRlcGVuZGVuY3lFbmQpIi8+PC9nPjxnIGNsYXNzPSJlZGdlTGFiZWxzIj48ZyBjbGFzcz0iZWRnZUxhYmVsIj48ZyBjbGFzcz0ibGFiZWwiIHRyYW5zZm9ybT0idHJhbnNsYXRlKDAsIC0xMikiPjxmb3JlaWduT2JqZWN0IHdpZHRoPSIwIiBoZWlnaHQ9IjI0Ij48ZGl2IHhtbG5zPSJodHRwOi8vd3d3LnczLm9yZy8xOTk5L3hodG1sIiBzdHlsZT0iZGlzcGxheTogdGFibGUtY2VsbDsgd2hpdGUtc3BhY2U6IG5vd3JhcDsgbGluZS1oZWlnaHQ6IDEuNTsgbWF4LXdpZHRoOiAyMDBweDsgdGV4dC1hbGlnbjogY2VudGVyOyIgY2xhc3M9ImxhYmVsQmtnIj48c3BhbiBzdHlsZT0iO2Rpc3BsYXk6IGlubGluZS1ibG9jayIgY2xhc3M9ImVkZ2VMYWJlbCI+PC9zcGFuPjwvZGl2PjwvZm9yZWlnbk9iamVjdD48L2c+PC9nPjxnIGNsYXNzPSJlZGdlTGFiZWwiPjxnIGNsYXNzPSJsYWJlbCIgdHJhbnNmb3JtPSJ0cmFuc2xhdGUoMCwgLTEyKSI+PGZvcmVpZ25PYmplY3Qgd2lkdGg9IjAiIGhlaWdodD0iMjQiPjxkaXYgeG1sbnM9Imh0dHA6Ly93d3cudzMub3JnLzE5OTkveGh0bWwiIHN0eWxlPSJkaXNwbGF5OiB0YWJsZS1jZWxsOyB3aGl0ZS1zcGFjZTogbm93cmFwOyBsaW5lLWhlaWdodDogMS41OyBtYXgtd2lkdGg6IDIwMHB4OyB0ZXh0LWFsaWduOiBjZW50ZXI7IiBjbGFzcz0ibGFiZWxCa2ciPjxzcGFuIHN0eWxlPSI7ZGlzcGxheTogaW5saW5lLWJsb2NrIiBjbGFzcz0iZWRnZUxhYmVsIj48L3NwYW4+PC9kaXY+PC9mb3JlaWduT2JqZWN0PjwvZz48L2c+PGcgY2xhc3M9ImVkZ2VMYWJlbCI+PGcgY2xhc3M9ImxhYmVsIiB0cmFuc2Zvcm09InRyYW5zbGF0ZSgwLCAtMTIpIj48Zm9yZWlnbk9iamVjdCB3aWR0aD0iMCIgaGVpZ2h0PSIyNCI+PGRpdiB4bWxucz0iaHR0cDovL3d3dy53My5vcmcvMTk5OS94aHRtbCIgc3R5bGU9ImRpc3BsYXk6IHRhYmxlLWNlbGw7IHdoaXRlLXNwYWNlOiBub3dyYXA7IGxpbmUtaGVpZ2h0OiAxLjU7IG1heC13aWR0aDogMjAwcHg7IHRleHQtYWxpZ246IGNlbnRlcjsiIGNsYXNzPSJsYWJlbEJrZyI+PHNwYW4gc3R5bGU9IjtkaXNwbGF5OiBpbmxpbmUtYmxvY2siIGNsYXNzPSJlZGdlTGFiZWwiPjwvc3Bhbj48L2Rpdj48L2ZvcmVpZ25PYmplY3Q+PC9nPjwvZz48ZyBjbGFzcz0iZWRnZUxhYmVsIj48ZyBjbGFzcz0ibGFiZWwiIHRyYW5zZm9ybT0idHJhbnNsYXRlKDAsIC0xMikiPjxmb3JlaWduT2JqZWN0IHdpZHRoPSIwIiBoZWlnaHQ9IjI0Ij48ZGl2IHhtbG5zPSJodHRwOi8vd3d3LnczLm9yZy8xOTk5L3hodG1sIiBzdHlsZT0iZGlzcGxheTogdGFibGUtY2VsbDsgd2hpdGUtc3BhY2U6IG5vd3JhcDsgbGluZS1oZWlnaHQ6IDEuNTsgbWF4LXdpZHRoOiAyMDBweDsgdGV4dC1hbGlnbjogY2VudGVyOyIgY2xhc3M9ImxhYmVsQmtnIj48c3BhbiBzdHlsZT0iO2Rpc3BsYXk6IGlubGluZS1ibG9jayIgY2xhc3M9ImVkZ2VMYWJlbCI+PC9zcGFuPjwvZGl2PjwvZm9yZWlnbk9iamVjdD48L2c+PC9nPjwvZz48ZyBjbGFzcz0ibm9kZXMiPjxnIGNsYXNzPSJub2RlIGRlZmF1bHQiIGlkPSJjbGFzc0lkLUFkZHJlc3MtNzQiIHRyYW5zZm9ybT0idHJhbnNsYXRlKDEzNi4zNzUsIDE2NCkiPjxnIGNsYXNzPSJiYXNpYyBsYWJlbC1jb250YWluZXIiPjxwYXRoIGQ9Ik0tMTI4LjM3NSAtMTIwIEwxMjguMzc1IC0xMjAgTDEyOC4zNzUgMTIwIEwtMTI4LjM3NSAxMjAiIHN0cm9rZT0ibm9uZSIgc3Ryb2tlLXdpZHRoPSIwIiBmaWxsPSIjMWYyMDIwIiBzdHlsZT0iIi8+PHBhdGggZD0iTS0xMjguMzc1IC0xMjAgQy0yNy42NDkxODM2NzMxODg3MDIgLTEyMCwgNzMuMDc2NjMyNjUzNjIyNiAtMTIwLCAxMjguMzc1IC0xMjAgTS0xMjguMzc1IC0xMjAgQy0yOC4zOTkxMzY3NDI3NzAwODIgLTEyMCwgNzEuNTc2NzI2NTE0NDU5ODQgLTEyMCwgMTI4LjM3NSAtMTIwIE0xMjguMzc1IC0xMjAgQzEyOC4zNzUgLTM5LjEyODM0MDc0MTQyOTk5NCwgMTI4LjM3NSA0MS43NDMzMTg1MTcxNDAwMSwgMTI4LjM3NSAxMjAgTTEyOC4zNzUgLTEyMCBDMTI4LjM3NSAtNDIuNTY2NjAxOTI4MTI0NDU2LCAxMjguMzc1IDM0Ljg2Njc5NjE0Mzc1MTA5LCAxMjguMzc1IDEyMCBNMTI4LjM3NSAxMjAgQzU2LjM5NDQ4OTg1ODQ5OTY0IDEyMCwgLTE1LjU4NjAyMDI4MzAwMDcyMSAxMjAsIC0xMjguMzc1IDEyMCBNMTI4LjM3NSAxMjAgQzcyLjY0NDQ1NDE2NzM4Njk4IDEyMCwgMTYuOTEzOTA4MzM0NzczOTggMTIwLCAtMTI4LjM3NSAxMjAgTS0xMjguMzc1IDEyMCBDLTEyOC4zNzUgNjkuNTUxOTAwOTU0MzY1NzIsIC0xMjguMzc1IDE5LjEwMzgwMTkwODczMTQ1NSwgLTEyOC4zNzUgLTEyMCBNLTEyOC4zNzUgMTIwIEMtMTI4LjM3NSAzMS43NjU2Nzc0ODQzODEyMywgLTEyOC4zNzUgLTU2LjQ2ODY0NTAzMTIzNzU0LCAtMTI4LjM3NSAtMTIwIiBzdHJva2U9IiNjY2MiIHN0cm9rZS13aWR0aD0iMS4zIiBmaWxsPSJub25lIiBzdHlsZT0iIi8+PC9nPjxnIGNsYXNzPSJhbm5vdGF0aW9uLWdyb3VwIHRleHQiIHRyYW5zZm9ybT0idHJhbnNsYXRlKDAsIC05NikiLz48ZyBjbGFzcz0ibGFiZWwtZ3JvdXAgdGV4dCIgdHJhbnNmb3JtPSJ0cmFuc2xhdGUoLTI5LjI1LCAtOTYpIj48ZyBjbGFzcz0ibGFiZWwiIHN0eWxlPSJmb250LXdlaWdodDogYm9sZGVyIiB0cmFuc2Zvcm09InRyYW5zbGF0ZSgwLC0xMikiPjxmb3JlaWduT2JqZWN0IHdpZHRoPSI1OC41IiBoZWlnaHQ9IjI0Ij48ZGl2IHhtbG5zPSJodHRwOi8vd3d3LnczLm9yZy8xOTk5L3hodG1sIiBzdHlsZT0iZGlzcGxheTogdGFibGUtY2VsbDsgd2hpdGUtc3BhY2U6IG5vd3JhcDsgbGluZS1oZWlnaHQ6IDEuNTsgbWF4LXdpZHRoOiAxMDdweDsgdGV4dC1hbGlnbjogY2VudGVyOyI+PHNwYW4gY2xhc3M9Im5vZGVMYWJlbCBtYXJrZG93bi1ub2RlLWxhYmVsIiBzdHlsZT0iIj48cD5BZGRyZXNzPC9wPjwvc3Bhbj48L2Rpdj48L2ZvcmVpZ25PYmplY3Q+PC9nPjwvZz48ZyBjbGFzcz0ibWVtYmVycy1ncm91cCB0ZXh0IiB0cmFuc2Zvcm09InRyYW5zbGF0ZSgtMTE2LjM3NSwgLTQ4KSI+PGcgY2xhc3M9ImxhYmVsIiBzdHlsZT0iIiB0cmFuc2Zvcm09InRyYW5zbGF0ZSgwLC0xMikiPjxmb3JlaWduT2JqZWN0IHdpZHRoPSI5Ny42ODMzMzQzNTA1ODU5NCIgaGVpZ2h0PSIyNCI+PGRpdiB4bWxucz0iaHR0cDovL3d3dy53My5vcmcvMTk5OS94aHRtbCIgc3R5bGU9ImRpc3BsYXk6IHRhYmxlLWNlbGw7IHdoaXRlLXNwYWNlOiBub3dyYXA7IGxpbmUtaGVpZ2h0OiAxLjU7IG1heC13aWR0aDogMTUzcHg7IHRleHQtYWxpZ246IGNlbnRlcjsiPjxzcGFuIGNsYXNzPSJub2RlTGFiZWwgbWFya2Rvd24tbm9kZS1sYWJlbCIgc3R5bGU9IiI+PHA+K1N0cmluZyBzdHJlZXQ8L3A+PC9zcGFuPjwvZGl2PjwvZm9yZWlnbk9iamVjdD48L2c+PGcgY2xhc3M9ImxhYmVsIiBzdHlsZT0iIiB0cmFuc2Zvcm09InRyYW5zbGF0ZSgwLDEyKSI+PGZvcmVpZ25PYmplY3Qgd2lkdGg9IjgxLjUzMzM0MDQ1NDEwMTU2IiBoZWlnaHQ9IjI0Ij48ZGl2IHhtbG5zPSJodHRwOi8vd3d3LnczLm9yZy8xOTk5L3hodG1sIiBzdHlsZT0iZGlzcGxheTogdGFibGUtY2VsbDsgd2hpdGUtc3BhY2U6IG5vd3JhcDsgbGluZS1oZWlnaHQ6IDEuNTsgbWF4LXdpZHRoOiAxMzdweDsgdGV4dC1hbGlnbjogY2VudGVyOyI+PHNwYW4gY2xhc3M9Im5vZGVMYWJlbCBtYXJrZG93bi1ub2RlLWxhYmVsIiBzdHlsZT0iIj48cD4rU3RyaW5nIGNpdHk8L3A+PC9zcGFuPjwvZGl2PjwvZm9yZWlnbk9iamVjdD48L2c+PGcgY2xhc3M9ImxhYmVsIiBzdHlsZT0iIiB0cmFuc2Zvcm09InRyYW5zbGF0ZSgwLDM2KSI+PGZvcmVpZ25PYmplY3Qgd2lkdGg9IjkxLjEzMzMzMTI5ODgyODEyIiBoZWlnaHQ9IjI0Ij48ZGl2IHhtbG5zPSJodHRwOi8vd3d3LnczLm9yZy8xOTk5L3hodG1sIiBzdHlsZT0iZGlzcGxheTogdGFibGUtY2VsbDsgd2hpdGUtc3BhY2U6IG5vd3JhcDsgbGluZS1oZWlnaHQ6IDEuNTsgbWF4LXdpZHRoOiAxNDdweDsgdGV4dC1hbGlnbjogY2VudGVyOyI+PHNwYW4gY2xhc3M9Im5vZGVMYWJlbCBtYXJrZG93bi1ub2RlLWxhYmVsIiBzdHlsZT0iIj48cD4rU3RyaW5nIHN0YXRlPC9wPjwvc3Bhbj48L2Rpdj48L2ZvcmVpZ25PYmplY3Q+PC9nPjxnIGNsYXNzPSJsYWJlbCIgc3R5bGU9IiIgdHJhbnNmb3JtPSJ0cmFuc2xhdGUoMCw2MCkiPjxmb3JlaWduT2JqZWN0IHdpZHRoPSIxMzQuMDY2NjY1NjQ5NDE0MDYiIGhlaWdodD0iMjQiPjxkaXYgeG1sbnM9Imh0dHA6Ly93d3cudzMub3JnLzE5OTkveGh0bWwiIHN0eWxlPSJkaXNwbGF5OiB0YWJsZS1jZWxsOyB3aGl0ZS1zcGFjZTogbm93cmFwOyBsaW5lLWhlaWdodDogMS41OyBtYXgtd2lkdGg6IDE5M3B4OyB0ZXh0LWFsaWduOiBjZW50ZXI7Ij48c3BhbiBjbGFzcz0ibm9kZUxhYmVsIG1hcmtkb3duLW5vZGUtbGFiZWwiIHN0eWxlPSIiPjxwPitTdHJpbmcgcG9zdGFsQ29kZTwvcD48L3NwYW4+PC9kaXY+PC9mb3JlaWduT2JqZWN0PjwvZz48ZyBjbGFzcz0ibGFiZWwiIHN0eWxlPSIiIHRyYW5zZm9ybT0idHJhbnNsYXRlKDAsODQpIj48Zm9yZWlnbk9iamVjdCB3aWR0aD0iMTA5LjI2NjY2MjU5NzY1NjI1IiBoZWlnaHQ9IjI0Ij48ZGl2IHhtbG5zPSJodHRwOi8vd3d3LnczLm9yZy8xOTk5L3hodG1sIiBzdHlsZT0iZGlzcGxheTogdGFibGUtY2VsbDsgd2hpdGUtc3BhY2U6IG5vd3JhcDsgbGluZS1oZWlnaHQ6IDEuNTsgbWF4LXdpZHRoOiAxNjZweDsgdGV4dC1hbGlnbjogY2VudGVyOyI+PHNwYW4gY2xhc3M9Im5vZGVMYWJlbCBtYXJrZG93bi1ub2RlLWxhYmVsIiBzdHlsZT0iIj48cD4rU3RyaW5nIGNvdW50cnk8L3A+PC9zcGFuPjwvZGl2PjwvZm9yZWlnbk9iamVjdD48L2c+PGcgY2xhc3M9ImxhYmVsIiBzdHlsZT0iIiB0cmFuc2Zvcm09InRyYW5zbGF0ZSgwLDEwOCkiPjxmb3JlaWduT2JqZWN0IHdpZHRoPSIyMDMuNSIgaGVpZ2h0PSIyNCI+PGRpdiB4bWxucz0iaHR0cDovL3d3dy53My5vcmcvMTk5OS94aHRtbCIgc3R5bGU9ImRpc3BsYXk6IHRhYmxlLWNlbGw7IHdoaXRlLXNwYWNlOiBub3dyYXA7IGxpbmUtaGVpZ2h0OiAxLjU7IG1heC13aWR0aDogMjYxcHg7IHRleHQtYWxpZ246IGNlbnRlcjsiPjxzcGFuIGNsYXNzPSJub2RlTGFiZWwgbWFya2Rvd24tbm9kZS1sYWJlbCIgc3R5bGU9IiI+PHA+K0dlb0Nvb3JkaW5hdGUgY29vcmRpbmF0ZXM8L3A+PC9zcGFuPjwvZGl2PjwvZm9yZWlnbk9iamVjdD48L2c+PC9nPjxnIGNsYXNzPSJtZXRob2RzLWdyb3VwIHRleHQiIHRyYW5zZm9ybT0idHJhbnNsYXRlKC0xMTYuMzc1LCAxMjApIi8+PGcgY2xhc3M9ImRpdmlkZXIiIHN0eWxlPSIiPjxwYXRoIGQ9Ik0tMTI4LjM3NSAtNzIgQy03Mi44OTM2MzAyOTAwMzA0MiAtNzIsIC0xNy40MTIyNjA1ODAwNjA4NDUgLTcyLCAxMjguMzc1IC03MiBNLTEyOC4zNzUgLTcyIEMtMzcuMDY5MjIyODg4MTQyMTIgLTcyLCA1NC4yMzY1NTQyMjM3MTU3NiAtNzIsIDEyOC4zNzUgLTcyIiBzdHJva2U9IiNjY2MiIHN0cm9rZS13aWR0aD0iMS4zIiBmaWxsPSJub25lIiBzdHlsZT0iIi8+PC9nPjxnIGNsYXNzPSJkaXZpZGVyIiBzdHlsZT0iIj48cGF0aCBkPSJNLTEyOC4zNzUgOTYgQy0yOS4xNDMyNTQxODk3MDU4ODUgOTYsIDcwLjA4ODQ5MTYyMDU4ODIzIDk2LCAxMjguMzc1IDk2IE0tMTI4LjM3NSA5NiBDLTcyLjkwOTc0OTE4Njk2NDQ1IDk2LCAtMTcuNDQ0NDk4MzczOTI4ODk0IDk2LCAxMjguMzc1IDk2IiBzdHJva2U9IiNjY2MiIHN0cm9rZS13aWR0aD0iMS4zIiBmaWxsPSJub25lIiBzdHlsZT0iIi8+PC9nPjwvZz48ZyBjbGFzcz0ibm9kZSBkZWZhdWx0IiBpZD0iY2xhc3NJZC1EaW1lbnNpb25zLTc1IiB0cmFuc2Zvcm09InRyYW5zbGF0ZSg0MDguNjg3NSwgMTY0KSI+PGcgY2xhc3M9ImJhc2ljIGxhYmVsLWNvbnRhaW5lciI+PHBhdGggZD0iTS05My45Mzc1IC05NiBMOTMuOTM3NSAtOTYgTDkzLjkzNzUgOTYgTC05My45Mzc1IDk2IiBzdHJva2U9Im5vbmUiIHN0cm9rZS13aWR0aD0iMCIgZmlsbD0iIzFmMjAyMCIgc3R5bGU9IiIvPjxwYXRoIGQ9Ik0tOTMuOTM3NSAtOTYgQy0zNy42MzE5NDQ2NDEzOTA2NSAtOTYsIDE4LjY3MzYxMDcxNzIxODY5MyAtOTYsIDkzLjkzNzUgLTk2IE0tOTMuOTM3NSAtOTYgQy00My41NTA2NDYwMDYzOTc1NiAtOTYsIDYuODM2MjA3OTg3MjA0ODg3IC05NiwgOTMuOTM3NSAtOTYgTTkzLjkzNzUgLTk2IEM5My45Mzc1IC00My42MDI4MjYyMjc2MTEyMywgOTMuOTM3NSA4Ljc5NDM0NzU0NDc3NzUzNywgOTMuOTM3NSA5NiBNOTMuOTM3NSAtOTYgQzkzLjkzNzUgLTMzLjQyMDQ3MjU4OTMwNDc4LCA5My45Mzc1IDI5LjE1OTA1NDgyMTM5MDQ0LCA5My45Mzc1IDk2IE05My45Mzc1IDk2IEMzNC4yNjEzMTM5OTE5ODczOCA5NiwgLTI1LjQxNDg3MjAxNjAyNTI0MiA5NiwgLTkzLjkzNzUgOTYgTTkzLjkzNzUgOTYgQzQwLjEzODQ5OTQwNjY1MjQ5IDk2LCAtMTMuNjYwNTAxMTg2Njk1MDE1IDk2LCAtOTMuOTM3NSA5NiBNLTkzLjkzNzUgOTYgQy05My45Mzc1IDMyLjcxNjY1ODQzMTExMzk1NiwgLTkzLjkzNzUgLTMwLjU2NjY4MzEzNzc3MjA5LCAtOTMuOTM3NSAtOTYgTS05My45Mzc1IDk2IEMtOTMuOTM3NSAyNy43ODc1NTY4MDczNTgxMywgLTkzLjkzNzUgLTQwLjQyNDg4NjM4NTI4Mzc0LCAtOTMuOTM3NSAtOTYiIHN0cm9rZT0iI2NjYyIgc3Ryb2tlLXdpZHRoPSIxLjMiIGZpbGw9Im5vbmUiIHN0eWxlPSIiLz48L2c+PGcgY2xhc3M9ImFubm90YXRpb24tZ3JvdXAgdGV4dCIgdHJhbnNmb3JtPSJ0cmFuc2xhdGUoMCwgLTcyKSIvPjxnIGNsYXNzPSJsYWJlbC1ncm91cCB0ZXh0IiB0cmFuc2Zvcm09InRyYW5zbGF0ZSgtNDIuMjQxNjY4NzAxMTcxODc1LCAtNzIpIj48ZyBjbGFzcz0ibGFiZWwiIHN0eWxlPSJmb250LXdlaWdodDogYm9sZGVyIiB0cmFuc2Zvcm09InRyYW5zbGF0ZSgwLC0xMikiPjxmb3JlaWduT2JqZWN0IHdpZHRoPSI4NC40ODMzMzc0MDIzNDM3NSIgaGVpZ2h0PSIyNCI+PGRpdiB4bWxucz0iaHR0cDovL3d3dy53My5vcmcvMTk5OS94aHRtbCIgc3R5bGU9ImRpc3BsYXk6IHRhYmxlLWNlbGw7IHdoaXRlLXNwYWNlOiBub3dyYXA7IGxpbmUtaGVpZ2h0OiAxLjU7IG1heC13aWR0aDogMTMycHg7IHRleHQtYWxpZ246IGNlbnRlcjsiPjxzcGFuIGNsYXNzPSJub2RlTGFiZWwgbWFya2Rvd24tbm9kZS1sYWJlbCIgc3R5bGU9IiI+PHA+RGltZW5zaW9uczwvcD48L3NwYW4+PC9kaXY+PC9mb3JlaWduT2JqZWN0PjwvZz48L2c+PGcgY2xhc3M9Im1lbWJlcnMtZ3JvdXAgdGV4dCIgdHJhbnNmb3JtPSJ0cmFuc2xhdGUoLTgxLjkzNzUsIC0yNCkiPjxnIGNsYXNzPSJsYWJlbCIgc3R5bGU9IiIgdHJhbnNmb3JtPSJ0cmFuc2xhdGUoMCwtMTIpIj48Zm9yZWlnbk9iamVjdCB3aWR0aD0iMTE1LjA2NjY2NTY0OTQxNDA2IiBoZWlnaHQ9IjI0Ij48ZGl2IHhtbG5zPSJodHRwOi8vd3d3LnczLm9yZy8xOTk5L3hodG1sIiBzdHlsZT0iZGlzcGxheTogdGFibGUtY2VsbDsgd2hpdGUtc3BhY2U6IG5vd3JhcDsgbGluZS1oZWlnaHQ6IDEuNTsgbWF4LXdpZHRoOiAxNzFweDsgdGV4dC1hbGlnbjogY2VudGVyOyI+PHNwYW4gY2xhc3M9Im5vZGVMYWJlbCBtYXJrZG93bi1ub2RlLWxhYmVsIiBzdHlsZT0iIj48cD4rZGVjaW1hbCBsZW5ndGg8L3A+PC9zcGFuPjwvZGl2PjwvZm9yZWlnbk9iamVjdD48L2c+PGcgY2xhc3M9ImxhYmVsIiBzdHlsZT0iIiB0cmFuc2Zvcm09InRyYW5zbGF0ZSgwLDEyKSI+PGZvcmVpZ25PYmplY3Qgd2lkdGg9IjExMC4yMTY2NTk1NDU4OTg0NCIgaGVpZ2h0PSIyNCI+PGRpdiB4bWxucz0iaHR0cDovL3d3dy53My5vcmcvMTk5OS94aHRtbCIgc3R5bGU9ImRpc3BsYXk6IHRhYmxlLWNlbGw7IHdoaXRlLXNwYWNlOiBub3dyYXA7IGxpbmUtaGVpZ2h0OiAxLjU7IG1heC13aWR0aDogMTY2cHg7IHRleHQtYWxpZ246IGNlbnRlcjsiPjxzcGFuIGNsYXNzPSJub2RlTGFiZWwgbWFya2Rvd24tbm9kZS1sYWJlbCIgc3R5bGU9IiI+PHA+K2RlY2ltYWwgd2lkdGg8L3A+PC9zcGFuPjwvZGl2PjwvZm9yZWlnbk9iamVjdD48L2c+PGcgY2xhc3M9ImxhYmVsIiBzdHlsZT0iIiB0cmFuc2Zvcm09InRyYW5zbGF0ZSgwLDM2KSI+PGZvcmVpZ25PYmplY3Qgd2lkdGg9IjExNC45MTY2NzE3NTI5Mjk2OSIgaGVpZ2h0PSIyNCI+PGRpdiB4bWxucz0iaHR0cDovL3d3dy53My5vcmcvMTk5OS94aHRtbCIgc3R5bGU9ImRpc3BsYXk6IHRhYmxlLWNlbGw7IHdoaXRlLXNwYWNlOiBub3dyYXA7IGxpbmUtaGVpZ2h0OiAxLjU7IG1heC13aWR0aDogMTcxcHg7IHRleHQtYWxpZ246IGNlbnRlcjsiPjxzcGFuIGNsYXNzPSJub2RlTGFiZWwgbWFya2Rvd24tbm9kZS1sYWJlbCIgc3R5bGU9IiI+PHA+K2RlY2ltYWwgaGVpZ2h0PC9wPjwvc3Bhbj48L2Rpdj48L2ZvcmVpZ25PYmplY3Q+PC9nPjxnIGNsYXNzPSJsYWJlbCIgc3R5bGU9IiIgdHJhbnNmb3JtPSJ0cmFuc2xhdGUoMCw2MCkiPjxmb3JlaWduT2JqZWN0IHdpZHRoPSIxMjEuNjMzMzMxMjk4ODI4MTIiIGhlaWdodD0iMjQiPjxkaXYgeG1sbnM9Imh0dHA6Ly93d3cudzMub3JnLzE5OTkveGh0bWwiIHN0eWxlPSJkaXNwbGF5OiB0YWJsZS1jZWxsOyB3aGl0ZS1zcGFjZTogbm93cmFwOyBsaW5lLWhlaWdodDogMS41OyBtYXgtd2lkdGg6IDE3OHB4OyB0ZXh0LWFsaWduOiBjZW50ZXI7Ij48c3BhbiBjbGFzcz0ibm9kZUxhYmVsIG1hcmtkb3duLW5vZGUtbGFiZWwiIHN0eWxlPSIiPjxwPitkZWNpbWFsIHZvbHVtZTwvcD48L3NwYW4+PC9kaXY+PC9mb3JlaWduT2JqZWN0PjwvZz48L2c+PGcgY2xhc3M9Im1ldGhvZHMtZ3JvdXAgdGV4dCIgdHJhbnNmb3JtPSJ0cmFuc2xhdGUoLTgxLjkzNzUsIDk2KSIvPjxnIGNsYXNzPSJkaXZpZGVyIiBzdHlsZT0iIj48cGF0aCBkPSJNLTkzLjkzNzUgLTQ4IEMtNDAuNDc2MjAxNTA0NjAxODc1IC00OCwgMTIuOTg1MDk2OTkwNzk2MjUgLTQ4LCA5My45Mzc1IC00OCBNLTkzLjkzNzUgLTQ4IEMtMzIuMTc1NjU1OTc1MjQ5MzkgLTQ4LCAyOS41ODYxODgwNDk1MDEyMTcgLTQ4LCA5My45Mzc1IC00OCIgc3Ryb2tlPSIjY2NjIiBzdHJva2Utd2lkdGg9IjEuMyIgZmlsbD0ibm9uZSIgc3R5bGU9IiIvPjwvZz48ZyBjbGFzcz0iZGl2aWRlciIgc3R5bGU9IiI+PHBhdGggZD0iTS05My45Mzc1IDcyIEMtMzguMDA2NjM1OTE2NTU5ODQ0IDcyLCAxNy45MjQyMjgxNjY4ODAzMSA3MiwgOTMuOTM3NSA3MiBNLTkzLjkzNzUgNzIgQy0yNC41MDQxMzk5MzgxNjgzMzYgNzIsIDQ0LjkyOTIyMDEyMzY2MzMzIDcyLCA5My45Mzc1IDcyIiBzdHJva2U9IiNjY2MiIHN0cm9rZS13aWR0aD0iMS4zIiBmaWxsPSJub25lIiBzdHlsZT0iIi8+PC9nPjwvZz48ZyBjbGFzcz0ibm9kZSBkZWZhdWx0IiBpZD0iY2xhc3NJZC1UZW1wZXJhdHVyZVJhbmdlLTc2IiB0cmFuc2Zvcm09InRyYW5zbGF0ZSg2NjguNzQxNjY4NzAxMTcxOSwgMTY0KSI+PGcgY2xhc3M9ImJhc2ljIGxhYmVsLWNvbnRhaW5lciI+PHBhdGggZD0iTS0xMTYuMTE2NjY4NzAxMTcxODggLTcyIEwxMTYuMTE2NjY4NzAxMTcxODggLTcyIEwxMTYuMTE2NjY4NzAxMTcxODggNzIgTC0xMTYuMTE2NjY4NzAxMTcxODggNzIiIHN0cm9rZT0ibm9uZSIgc3Ryb2tlLXdpZHRoPSIwIiBmaWxsPSIjMWYyMDIwIiBzdHlsZT0iIi8+PHBhdGggZD0iTS0xMTYuMTE2NjY4NzAxMTcxODggLTcyIEMtNTkuMDUwMzI0MjQ2NTc3MDIgLTcyLCAtMS45ODM5Nzk3OTE5ODIxNjUgLTcyLCAxMTYuMTE2NjY4NzAxMTcxODggLTcyIE0tMTE2LjExNjY2ODcwMTE3MTg4IC03MiBDLTM2LjkzNDYyOTQ0MjQyNzUyIC03MiwgNDIuMjQ3NDA5ODE2MzE2ODMgLTcyLCAxMTYuMTE2NjY4NzAxMTcxODggLTcyIE0xMTYuMTE2NjY4NzAxMTcxODggLTcyIEMxMTYuMTE2NjY4NzAxMTcxODggLTMxLjQzMzYzNDA0MjY0MjgxNSwgMTE2LjExNjY2ODcwMTE3MTg4IDkuMTMyNzMxOTE0NzE0MzcsIDExNi4xMTY2Njg3MDExNzE4OCA3MiBNMTE2LjExNjY2ODcwMTE3MTg4IC03MiBDMTE2LjExNjY2ODcwMTE3MTg4IC0yOC41Mjc5MDM0MzUyNjgzOTIsIDExNi4xMTY2Njg3MDExNzE4OCAxNC45NDQxOTMxMjk0NjMyMTYsIDExNi4xMTY2Njg3MDExNzE4OCA3MiBNMTE2LjExNjY2ODcwMTE3MTg4IDcyIEMzMi45MjE0OTM0OTkyMTExOCA3MiwgLTUwLjI3MzY4MTcwMjc0OTUxIDcyLCAtMTE2LjExNjY2ODcwMTE3MTg4IDcyIE0xMTYuMTE2NjY4NzAxMTcxODggNzIgQzQ4Ljk5NTUyMjc4NTQ1NjA2IDcyLCAtMTguMTI1NjIzMTMwMjU5NzU0IDcyLCAtMTE2LjExNjY2ODcwMTE3MTg4IDcyIE0tMTE2LjExNjY2ODcwMTE3MTg4IDcyIEMtMTE2LjExNjY2ODcwMTE3MTg4IDI1LjQ0MzE1Mjk2OTA3MDM3LCAtMTE2LjExNjY2ODcwMTE3MTg4IC0yMS4xMTM2OTQwNjE4NTkyNjMsIC0xMTYuMTE2NjY4NzAxMTcxODggLTcyIE0tMTE2LjExNjY2ODcwMTE3MTg4IDcyIEMtMTE2LjExNjY2ODcwMTE3MTg4IDI2LjM0NTgzNjcyNzA5MDQ3LCAtMTE2LjExNjY2ODcwMTE3MTg4IC0xOS4zMDgzMjY1NDU4MTkwNTcsIC0xMTYuMTE2NjY4NzAxMTcxODggLTcyIiBzdHJva2U9IiNjY2MiIHN0cm9rZS13aWR0aD0iMS4zIiBmaWxsPSJub25lIiBzdHlsZT0iIi8+PC9nPjxnIGNsYXNzPSJhbm5vdGF0aW9uLWdyb3VwIHRleHQiIHRyYW5zZm9ybT0idHJhbnNsYXRlKDAsIC00OCkiLz48ZyBjbGFzcz0ibGFiZWwtZ3JvdXAgdGV4dCIgdHJhbnNmb3JtPSJ0cmFuc2xhdGUoLTcwLjU2NjY2NTY0OTQxNDA2LCAtNDgpIj48ZyBjbGFzcz0ibGFiZWwiIHN0eWxlPSJmb250LXdlaWdodDogYm9sZGVyIiB0cmFuc2Zvcm09InRyYW5zbGF0ZSgwLC0xMikiPjxmb3JlaWduT2JqZWN0IHdpZHRoPSIxNDEuMTMzMzMxMjk4ODI4MTIiIGhlaWdodD0iMjQiPjxkaXYgeG1sbnM9Imh0dHA6Ly93d3cudzMub3JnLzE5OTkveGh0bWwiIHN0eWxlPSJkaXNwbGF5OiB0YWJsZS1jZWxsOyB3aGl0ZS1zcGFjZTogbm93cmFwOyBsaW5lLWhlaWdodDogMS41OyBtYXgtd2lkdGg6IDE4M3B4OyB0ZXh0LWFsaWduOiBjZW50ZXI7Ij48c3BhbiBjbGFzcz0ibm9kZUxhYmVsIG1hcmtkb3duLW5vZGUtbGFiZWwiIHN0eWxlPSIiPjxwPlRlbXBlcmF0dXJlUmFuZ2U8L3A+PC9zcGFuPjwvZGl2PjwvZm9yZWlnbk9iamVjdD48L2c+PC9nPjxnIGNsYXNzPSJtZW1iZXJzLWdyb3VwIHRleHQiIHRyYW5zZm9ybT0idHJhbnNsYXRlKC0xMDQuMTE2NjY4NzAxMTcxODgsIDApIj48ZyBjbGFzcz0ibGFiZWwiIHN0eWxlPSIiIHRyYW5zZm9ybT0idHJhbnNsYXRlKDAsLTEyKSI+PGZvcmVpZ25PYmplY3Qgd2lkdGg9IjEzNC41NjY2NjU2NDk0MTQwNiIgaGVpZ2h0PSIyNCI+PGRpdiB4bWxucz0iaHR0cDovL3d3dy53My5vcmcvMTk5OS94aHRtbCIgc3R5bGU9ImRpc3BsYXk6IHRhYmxlLWNlbGw7IHdoaXRlLXNwYWNlOiBub3dyYXA7IGxpbmUtaGVpZ2h0OiAxLjU7IG1heC13aWR0aDogMTkxcHg7IHRleHQtYWxpZ246IGNlbnRlcjsiPjxzcGFuIGNsYXNzPSJub2RlTGFiZWwgbWFya2Rvd24tbm9kZS1sYWJlbCIgc3R5bGU9IiI+PHA+K2RlY2ltYWwgbWluVGVtcDwvcD48L3NwYW4+PC9kaXY+PC9mb3JlaWduT2JqZWN0PjwvZz48ZyBjbGFzcz0ibGFiZWwiIHN0eWxlPSIiIHRyYW5zZm9ybT0idHJhbnNsYXRlKDAsMTIpIj48Zm9yZWlnbk9iamVjdCB3aWR0aD0iMTM3LjY2NjY3MTc1MjkyOTciIGhlaWdodD0iMjQiPjxkaXYgeG1sbnM9Imh0dHA6Ly93d3cudzMub3JnLzE5OTkveGh0bWwiIHN0eWxlPSJkaXNwbGF5OiB0YWJsZS1jZWxsOyB3aGl0ZS1zcGFjZTogbm93cmFwOyBsaW5lLWhlaWdodDogMS41OyBtYXgtd2lkdGg6IDE5NHB4OyB0ZXh0LWFsaWduOiBjZW50ZXI7Ij48c3BhbiBjbGFzcz0ibm9kZUxhYmVsIG1hcmtkb3duLW5vZGUtbGFiZWwiIHN0eWxlPSIiPjxwPitkZWNpbWFsIG1heFRlbXA8L3A+PC9zcGFuPjwvZGl2PjwvZm9yZWlnbk9iamVjdD48L2c+PC9nPjxnIGNsYXNzPSJtZXRob2RzLWdyb3VwIHRleHQiIHRyYW5zZm9ybT0idHJhbnNsYXRlKC0xMDQuMTE2NjY4NzAxMTcxODgsIDcyKSIvPjxnIGNsYXNzPSJkaXZpZGVyIiBzdHlsZT0iIj48cGF0aCBkPSJNLTExNi4xMTY2Njg3MDExNzE4OCAtMjQgQy02OC4zMTEwNjE1ODgwMTc1NCAtMjQsIC0yMC41MDU0NTQ0NzQ4NjMyIC0yNCwgMTE2LjExNjY2ODcwMTE3MTg4IC0yNCBNLTExNi4xMTY2Njg3MDExNzE4OCAtMjQgQy0yOS4yNzEyMjMxNTQwMTExNCAtMjQsIDU3LjU3NDIyMjM5MzE0OTYgLTI0LCAxMTYuMTE2NjY4NzAxMTcxODggLTI0IiBzdHJva2U9IiNjY2MiIHN0cm9rZS13aWR0aD0iMS4zIiBmaWxsPSJub25lIiBzdHlsZT0iIi8+PC9nPjxnIGNsYXNzPSJkaXZpZGVyIiBzdHlsZT0iIj48cGF0aCBkPSJNLTExNi4xMTY2Njg3MDExNzE4OCA0OCBDLTM3LjY1NjcwODM5MTQwMzkyNCA0OCwgNDAuODAzMjUxOTE4MzY0MDI2IDQ4LCAxMTYuMTE2NjY4NzAxMTcxODggNDggTS0xMTYuMTE2NjY4NzAxMTcxODggNDggQy00Mi4xMzQ0ODg4MDc5NDk0MSA0OCwgMzEuODQ3NjkxMDg1MjczMDU1IDQ4LCAxMTYuMTE2NjY4NzAxMTcxODggNDgiIHN0cm9rZT0iI2NjYyIgc3Ryb2tlLXdpZHRoPSIxLjMiIGZpbGw9Im5vbmUiIHN0eWxlPSIiLz48L2c+PC9nPjxnIGNsYXNzPSJub2RlIGRlZmF1bHQiIGlkPSJjbGFzc0lkLUJhcmNvZGUtNzciIHRyYW5zZm9ybT0idHJhbnNsYXRlKDkyOS45NDU4MzEyOTg4MjgxLCAxNjQpIj48ZyBjbGFzcz0iYmFzaWMgbGFiZWwtY29udGFpbmVyIj48cGF0aCBkPSJNLTk1LjA4NzQ5Mzg5NjQ4NDM4IC03MiBMOTUuMDg3NDkzODk2NDg0MzggLTcyIEw5NS4wODc0OTM4OTY0ODQzOCA3MiBMLTk1LjA4NzQ5Mzg5NjQ4NDM4IDcyIiBzdHJva2U9Im5vbmUiIHN0cm9rZS13aWR0aD0iMCIgZmlsbD0iIzFmMjAyMCIgc3R5bGU9IiIvPjxwYXRoIGQ9Ik0tOTUuMDg3NDkzODk2NDg0MzggLTcyIEMtMzAuMTQyNDIwMjkzNjU2MTg3IC03MiwgMzQuODAyNjUzMzA5MTcyIC03MiwgOTUuMDg3NDkzODk2NDg0MzggLTcyIE0tOTUuMDg3NDkzODk2NDg0MzggLTcyIEMtMzkuNDQ3MTg1MTM4NDUzOTMgLTcyLCAxNi4xOTMxMjM2MTk1NzY1MSAtNzIsIDk1LjA4NzQ5Mzg5NjQ4NDM4IC03MiBNOTUuMDg3NDkzODk2NDg0MzggLTcyIEM5NS4wODc0OTM4OTY0ODQzOCAtMTguNjM1MTY1NjM3Nzg0MDc3LCA5NS4wODc0OTM4OTY0ODQzOCAzNC43Mjk2Njg3MjQ0MzE4NDYsIDk1LjA4NzQ5Mzg5NjQ4NDM4IDcyIE05NS4wODc0OTM4OTY0ODQzOCAtNzIgQzk1LjA4NzQ5Mzg5NjQ4NDM4IC0zMC41NDEzNTM3NTEyMTIxNjQsIDk1LjA4NzQ5Mzg5NjQ4NDM4IDEwLjkxNzI5MjQ5NzU3NTY3MywgOTUuMDg3NDkzODk2NDg0MzggNzIgTTk1LjA4NzQ5Mzg5NjQ4NDM4IDcyIEM1My40MzM1MDMwMzQ0MDIzNSA3MiwgMTEuNzc5NTEyMTcyMzIwMzI0IDcyLCAtOTUuMDg3NDkzODk2NDg0MzggNzIgTTk1LjA4NzQ5Mzg5NjQ4NDM4IDcyIEMzMy4zMzM0MDQ1MDQxOTI2NjQgNzIsIC0yOC40MjA2ODQ4ODgwOTkwNDYgNzIsIC05NS4wODc0OTM4OTY0ODQzOCA3MiBNLTk1LjA4NzQ5Mzg5NjQ4NDM4IDcyIEMtOTUuMDg3NDkzODk2NDg0MzggMzAuOTc1NDE1NDMyNTc0MDgsIC05NS4wODc0OTM4OTY0ODQzOCAtMTAuMDQ5MTY5MTM0ODUxODM3LCAtOTUuMDg3NDkzODk2NDg0MzggLTcyIE0tOTUuMDg3NDkzODk2NDg0MzggNzIgQy05NS4wODc0OTM4OTY0ODQzOCAxNy4wOTA2NjAwMTA5MDk5NTcsIC05NS4wODc0OTM4OTY0ODQzOCAtMzcuODE4Njc5OTc4MTgwMDg2LCAtOTUuMDg3NDkzODk2NDg0MzggLTcyIiBzdHJva2U9IiNjY2MiIHN0cm9rZS13aWR0aD0iMS4zIiBmaWxsPSJub25lIiBzdHlsZT0iIi8+PC9nPjxnIGNsYXNzPSJhbm5vdGF0aW9uLWdyb3VwIHRleHQiIHRyYW5zZm9ybT0idHJhbnNsYXRlKDAsIC00OCkiLz48ZyBjbGFzcz0ibGFiZWwtZ3JvdXAgdGV4dCIgdHJhbnNmb3JtPSJ0cmFuc2xhdGUoLTMwLjI5MTY2NDEyMzUzNTE1NiwgLTQ4KSI+PGcgY2xhc3M9ImxhYmVsIiBzdHlsZT0iZm9udC13ZWlnaHQ6IGJvbGRlciIgdHJhbnNmb3JtPSJ0cmFuc2xhdGUoMCwtMTIpIj48Zm9yZWlnbk9iamVjdCB3aWR0aD0iNjAuNTgzMzI4MjQ3MDcwMzEiIGhlaWdodD0iMjQiPjxkaXYgeG1sbnM9Imh0dHA6Ly93d3cudzMub3JnLzE5OTkveGh0bWwiIHN0eWxlPSJkaXNwbGF5OiB0YWJsZS1jZWxsOyB3aGl0ZS1zcGFjZTogbm93cmFwOyBsaW5lLWhlaWdodDogMS41OyBtYXgtd2lkdGg6IDEwN3B4OyB0ZXh0LWFsaWduOiBjZW50ZXI7Ij48c3BhbiBjbGFzcz0ibm9kZUxhYmVsIG1hcmtkb3duLW5vZGUtbGFiZWwiIHN0eWxlPSIiPjxwPkJhcmNvZGU8L3A+PC9zcGFuPjwvZGl2PjwvZm9yZWlnbk9iamVjdD48L2c+PC9nPjxnIGNsYXNzPSJtZW1iZXJzLWdyb3VwIHRleHQiIHRyYW5zZm9ybT0idHJhbnNsYXRlKC04My4wODc0OTM4OTY0ODQzOCwgMCkiPjxnIGNsYXNzPSJsYWJlbCIgc3R5bGU9IiIgdHJhbnNmb3JtPSJ0cmFuc2xhdGUoMCwtMTIpIj48Zm9yZWlnbk9iamVjdCB3aWR0aD0iODguOTY2NjU5NTQ1ODk4NDQiIGhlaWdodD0iMjQiPjxkaXYgeG1sbnM9Imh0dHA6Ly93d3cudzMub3JnLzE5OTkveGh0bWwiIHN0eWxlPSJkaXNwbGF5OiB0YWJsZS1jZWxsOyB3aGl0ZS1zcGFjZTogbm93cmFwOyBsaW5lLWhlaWdodDogMS41OyBtYXgtd2lkdGg6IDE0N3B4OyB0ZXh0LWFsaWduOiBjZW50ZXI7Ij48c3BhbiBjbGFzcz0ibm9kZUxhYmVsIG1hcmtkb3duLW5vZGUtbGFiZWwiIHN0eWxlPSIiPjxwPitTdHJpbmcgY29kZTwvcD48L3NwYW4+PC9kaXY+PC9mb3JlaWduT2JqZWN0PjwvZz48ZyBjbGFzcz0ibGFiZWwiIHN0eWxlPSIiIHRyYW5zZm9ybT0idHJhbnNsYXRlKDAsMTIpIj48Zm9yZWlnbk9iamVjdCB3aWR0aD0iMTM1Ljg4MzMzMTI5ODgyODEyIiBoZWlnaHQ9IjI0Ij48ZGl2IHhtbG5zPSJodHRwOi8vd3d3LnczLm9yZy8xOTk5L3hodG1sIiBzdHlsZT0iZGlzcGxheTogdGFibGUtY2VsbDsgd2hpdGUtc3BhY2U6IG5vd3JhcDsgbGluZS1oZWlnaHQ6IDEuNTsgbWF4LXdpZHRoOiAxOTNweDsgdGV4dC1hbGlnbjogY2VudGVyOyI+PHNwYW4gY2xhc3M9Im5vZGVMYWJlbCBtYXJrZG93bi1ub2RlLWxhYmVsIiBzdHlsZT0iIj48cD4rQmFyY29kZVR5cGUgdHlwZTwvcD48L3NwYW4+PC9kaXY+PC9mb3JlaWduT2JqZWN0PjwvZz48L2c+PGcgY2xhc3M9Im1ldGhvZHMtZ3JvdXAgdGV4dCIgdHJhbnNmb3JtPSJ0cmFuc2xhdGUoLTgzLjA4NzQ5Mzg5NjQ4NDM4LCA3MikiLz48ZyBjbGFzcz0iZGl2aWRlciIgc3R5bGU9IiI+PHBhdGggZD0iTS05NS4wODc0OTM4OTY0ODQzOCAtMjQgQy0yNC44MzYwMjE4NjI4MTM4OCAtMjQsIDQ1LjQxNTQ1MDE3MDg1NjYxNiAtMjQsIDk1LjA4NzQ5Mzg5NjQ4NDM4IC0yNCBNLTk1LjA4NzQ5Mzg5NjQ4NDM4IC0yNCBDLTQ4LjM4NTM2OTMzMzY0NzAzNCAtMjQsIC0xLjY4MzI0NDc3MDgwOTY5MzYgLTI0LCA5NS4wODc0OTM4OTY0ODQzOCAtMjQiIHN0cm9rZT0iI2NjYyIgc3Ryb2tlLXdpZHRoPSIxLjMiIGZpbGw9Im5vbmUiIHN0eWxlPSIiLz48L2c+PGcgY2xhc3M9ImRpdmlkZXIiIHN0eWxlPSIiPjxwYXRoIGQ9Ik0tOTUuMDg3NDkzODk2NDg0MzggNDggQy0zNy44Nzg1MDE1OTAwNDM3NCA0OCwgMTkuMzMwNDkwNzE2Mzk2ODk1IDQ4LCA5NS4wODc0OTM4OTY0ODQzOCA0OCBNLTk1LjA4NzQ5Mzg5NjQ4NDM4IDQ4IEMtMzcuMDI3NzE1ODcwOTIxOCA0OCwgMjEuMDMyMDYyMTU0NjQwNzcgNDgsIDk1LjA4NzQ5Mzg5NjQ4NDM4IDQ4IiBzdHJva2U9IiNjY2MiIHN0cm9rZS13aWR0aD0iMS4zIiBmaWxsPSJub25lIiBzdHlsZT0iIi8+PC9nPjwvZz48ZyBjbGFzcz0ibm9kZSBkZWZhdWx0IiBpZD0iY2xhc3NJZC1HZW9Db29yZGluYXRlLTc4IiB0cmFuc2Zvcm09InRyYW5zbGF0ZSgxMzYuMzc1LCA0NDIpIj48ZyBjbGFzcz0iYmFzaWMgbGFiZWwtY29udGFpbmVyIj48cGF0aCBkPSJNLTEwOC4zODc0OTY5NDgyNDIxOSAtNzIgTDEwOC4zODc0OTY5NDgyNDIxOSAtNzIgTDEwOC4zODc0OTY5NDgyNDIxOSA3MiBMLTEwOC4zODc0OTY5NDgyNDIxOSA3MiIgc3Ryb2tlPSJub25lIiBzdHJva2Utd2lkdGg9IjAiIGZpbGw9IiMxZjIwMjAiIHN0eWxlPSIiLz48cGF0aCBkPSJNLTEwOC4zODc0OTY5NDgyNDIxOSAtNzIgQy01Ni45NzU2OTU5OTk0MDg0NiAtNzIsIC01LjU2Mzg5NTA1MDU3NDcyOSAtNzIsIDEwOC4zODc0OTY5NDgyNDIxOSAtNzIgTS0xMDguMzg3NDk2OTQ4MjQyMTkgLTcyIEMtNDcuOTYzNzU5MjUwNjc3MDM2IC03MiwgMTIuNDU5OTc4NDQ2ODg4MTE1IC03MiwgMTA4LjM4NzQ5Njk0ODI0MjE5IC03MiBNMTA4LjM4NzQ5Njk0ODI0MjE5IC03MiBDMTA4LjM4NzQ5Njk0ODI0MjE5IC0zNS44MTk3NzYyNDk4ODMzNTQsIDEwOC4zODc0OTY5NDgyNDIxOSAwLjM2MDQ0NzUwMDIzMzI5MTg2LCAxMDguMzg3NDk2OTQ4MjQyMTkgNzIgTTEwOC4zODc0OTY5NDgyNDIxOSAtNzIgQzEwOC4zODc0OTY5NDgyNDIxOSAtMjAuMDU1NzE4NjU0MzE2OTM0LCAxMDguMzg3NDk2OTQ4MjQyMTkgMzEuODg4NTYyNjkxMzY2MTMzLCAxMDguMzg3NDk2OTQ4MjQyMTkgNzIgTTEwOC4zODc0OTY5NDgyNDIxOSA3MiBDNjAuMjkxODYzMDM0NzE3OTM1IDcyLCAxMi4xOTYyMjkxMjExOTM2ODIgNzIsIC0xMDguMzg3NDk2OTQ4MjQyMTkgNzIgTTEwOC4zODc0OTY5NDgyNDIxOSA3MiBDNDUuMjMyMzI1MjQ5MjYzOTIgNzIsIC0xNy45MjI4NDY0NDk3MTQzNDIgNzIsIC0xMDguMzg3NDk2OTQ4MjQyMTkgNzIgTS0xMDguMzg3NDk2OTQ4MjQyMTkgNzIgQy0xMDguMzg3NDk2OTQ4MjQyMTkgMzguNzUxNzc5ODg3MDI4MjMsIC0xMDguMzg3NDk2OTQ4MjQyMTkgNS41MDM1NTk3NzQwNTY0NTU1LCAtMTA4LjM4NzQ5Njk0ODI0MjE5IC03MiBNLTEwOC4zODc0OTY5NDgyNDIxOSA3MiBDLTEwOC4zODc0OTY5NDgyNDIxOSA0MC45ODk2MDA2OTM4ODQxNCwgLTEwOC4zODc0OTY5NDgyNDIxOSA5Ljk3OTIwMTM4Nzc2ODI4NSwgLTEwOC4zODc0OTY5NDgyNDIxOSAtNzIiIHN0cm9rZT0iI2NjYyIgc3Ryb2tlLXdpZHRoPSIxLjMiIGZpbGw9Im5vbmUiIHN0eWxlPSIiLz48L2c+PGcgY2xhc3M9ImFubm90YXRpb24tZ3JvdXAgdGV4dCIgdHJhbnNmb3JtPSJ0cmFuc2xhdGUoMCwgLTQ4KSIvPjxnIGNsYXNzPSJsYWJlbC1ncm91cCB0ZXh0IiB0cmFuc2Zvcm09InRyYW5zbGF0ZSgtNTUuNjQxNjcwMjI3MDUwNzgsIC00OCkiPjxnIGNsYXNzPSJsYWJlbCIgc3R5bGU9ImZvbnQtd2VpZ2h0OiBib2xkZXIiIHRyYW5zZm9ybT0idHJhbnNsYXRlKDAsLTEyKSI+PGZvcmVpZ25PYmplY3Qgd2lkdGg9IjExMS4yODMzNDA0NTQxMDE1NiIgaGVpZ2h0PSIyNCI+PGRpdiB4bWxucz0iaHR0cDovL3d3dy53My5vcmcvMTk5OS94aHRtbCIgc3R5bGU9ImRpc3BsYXk6IHRhYmxlLWNlbGw7IHdoaXRlLXNwYWNlOiBub3dyYXA7IGxpbmUtaGVpZ2h0OiAxLjU7IG1heC13aWR0aDogMTU3cHg7IHRleHQtYWxpZ246IGNlbnRlcjsiPjxzcGFuIGNsYXNzPSJub2RlTGFiZWwgbWFya2Rvd24tbm9kZS1sYWJlbCIgc3R5bGU9IiI+PHA+R2VvQ29vcmRpbmF0ZTwvcD48L3NwYW4+PC9kaXY+PC9mb3JlaWduT2JqZWN0PjwvZz48L2c+PGcgY2xhc3M9Im1lbWJlcnMtZ3JvdXAgdGV4dCIgdHJhbnNmb3JtPSJ0cmFuc2xhdGUoLTk2LjM4NzQ5Njk0ODI0MjE5LCAwKSI+PGcgY2xhc3M9ImxhYmVsIiBzdHlsZT0iIiB0cmFuc2Zvcm09InRyYW5zbGF0ZSgwLC0xMikiPjxmb3JlaWduT2JqZWN0IHdpZHRoPSIxMjYuNTE2NjYyNTk3NjU2MjUiIGhlaWdodD0iMjQiPjxkaXYgeG1sbnM9Imh0dHA6Ly93d3cudzMub3JnLzE5OTkveGh0bWwiIHN0eWxlPSJkaXNwbGF5OiB0YWJsZS1jZWxsOyB3aGl0ZS1zcGFjZTogbm93cmFwOyBsaW5lLWhlaWdodDogMS41OyBtYXgtd2lkdGg6IDE4MHB4OyB0ZXh0LWFsaWduOiBjZW50ZXI7Ij48c3BhbiBjbGFzcz0ibm9kZUxhYmVsIG1hcmtkb3duLW5vZGUtbGFiZWwiIHN0eWxlPSIiPjxwPitkZWNpbWFsIGxhdGl0dWRlPC9wPjwvc3Bhbj48L2Rpdj48L2ZvcmVpZ25PYmplY3Q+PC9nPjxnIGNsYXNzPSJsYWJlbCIgc3R5bGU9IiIgdHJhbnNmb3JtPSJ0cmFuc2xhdGUoMCwxMikiPjxmb3JlaWduT2JqZWN0IHdpZHRoPSIxMzcuMTMzMzMxMjk4ODI4MTIiIGhlaWdodD0iMjQiPjxkaXYgeG1sbnM9Imh0dHA6Ly93d3cudzMub3JnLzE5OTkveGh0bWwiIHN0eWxlPSJkaXNwbGF5OiB0YWJsZS1jZWxsOyB3aGl0ZS1zcGFjZTogbm93cmFwOyBsaW5lLWhlaWdodDogMS41OyBtYXgtd2lkdGg6IDE5NHB4OyB0ZXh0LWFsaWduOiBjZW50ZXI7Ij48c3BhbiBjbGFzcz0ibm9kZUxhYmVsIG1hcmtkb3duLW5vZGUtbGFiZWwiIHN0eWxlPSIiPjxwPitkZWNpbWFsIGxvbmdpdHVkZTwvcD48L3NwYW4+PC9kaXY+PC9mb3JlaWduT2JqZWN0PjwvZz48L2c+PGcgY2xhc3M9Im1ldGhvZHMtZ3JvdXAgdGV4dCIgdHJhbnNmb3JtPSJ0cmFuc2xhdGUoLTk2LjM4NzQ5Njk0ODI0MjE5LCA3MikiLz48ZyBjbGFzcz0iZGl2aWRlciIgc3R5bGU9IiI+PHBhdGggZD0iTS0xMDguMzg3NDk2OTQ4MjQyMTkgLTI0IEMtNDkuNzA3MTEwOTA1NzQ4NCAtMjQsIDguOTczMjc1MTM2NzQ1Mzg2IC0yNCwgMTA4LjM4NzQ5Njk0ODI0MjE5IC0yNCBNLTEwOC4zODc0OTY5NDgyNDIxOSAtMjQgQy00Ny43MDE5ODc5ODQyNTM4MjYgLTI0LCAxMi45ODM1MjA5Nzk3MzQ1MzYgLTI0LCAxMDguMzg3NDk2OTQ4MjQyMTkgLTI0IiBzdHJva2U9IiNjY2MiIHN0cm9rZS13aWR0aD0iMS4zIiBmaWxsPSJub25lIiBzdHlsZT0iIi8+PC9nPjxnIGNsYXNzPSJkaXZpZGVyIiBzdHlsZT0iIj48cGF0aCBkPSJNLTEwOC4zODc0OTY5NDgyNDIxOSA0OCBDLTQ0LjQ2MTU0MzEwOTk5MDA2IDQ4LCAxOS40NjQ0MTA3MjgyNjIwNjcgNDgsIDEwOC4zODc0OTY5NDgyNDIxOSA0OCBNLTEwOC4zODc0OTY5NDgyNDIxOSA0OCBDLTQ4LjU1MTM5ODExMjc1OSA0OCwgMTEuMjg0NzAwNzIyNzI0MTgyIDQ4LCAxMDguMzg3NDk2OTQ4MjQyMTkgNDgiIHN0cm9rZT0iI2NjYyIgc3Ryb2tlLXdpZHRoPSIxLjMiIGZpbGw9Im5vbmUiIHN0eWxlPSIiLz48L2c+PC9nPjxnIGNsYXNzPSJub2RlIGRlZmF1bHQiIGlkPSJjbGFzc0lkLUxvYWRDYXBhY2l0eS03OSIgdHJhbnNmb3JtPSJ0cmFuc2xhdGUoMTE4Ny44ODMzMzEyOTg4MjgxLCAxNjQpIj48ZyBjbGFzcz0iYmFzaWMgbGFiZWwtY29udGFpbmVyIj48cGF0aCBkPSJNLTExMi44NTAwMDYxMDM1MTU2MiAtNzIgTDExMi44NTAwMDYxMDM1MTU2MiAtNzIgTDExMi44NTAwMDYxMDM1MTU2MiA3MiBMLTExMi44NTAwMDYxMDM1MTU2MiA3MiIgc3Ryb2tlPSJub25lIiBzdHJva2Utd2lkdGg9IjAiIGZpbGw9IiMxZjIwMjAiIHN0eWxlPSIiLz48cGF0aCBkPSJNLTExMi44NTAwMDYxMDM1MTU2MiAtNzIgQy0zOS4xNjk3MTI4NzY3NDM3MyAtNzIsIDM0LjUxMDU4MDM1MDAyODE2NCAtNzIsIDExMi44NTAwMDYxMDM1MTU2MiAtNzIgTS0xMTIuODUwMDA2MTAzNTE1NjIgLTcyIEMtNjYuMjE0ODUxMTY0NTcwOTQgLTcyLCAtMTkuNTc5Njk2MjI1NjI2MjY1IC03MiwgMTEyLjg1MDAwNjEwMzUxNTYyIC03MiBNMTEyLjg1MDAwNjEwMzUxNTYyIC03MiBDMTEyLjg1MDAwNjEwMzUxNTYyIC0zMS4zMzYwODMzMzM1ODc0MDMsIDExMi44NTAwMDYxMDM1MTU2MiA5LjMyNzgzMzMzMjgyNTE5MywgMTEyLjg1MDAwNjEwMzUxNTYyIDcyIE0xMTIuODUwMDA2MTAzNTE1NjIgLTcyIEMxMTIuODUwMDA2MTAzNTE1NjIgLTE0Ljg0NjAxMzcwNTE5NTcwOSwgMTEyLjg1MDAwNjEwMzUxNTYyIDQyLjMwNzk3MjU4OTYwODU4LCAxMTIuODUwMDA2MTAzNTE1NjIgNzIgTTExMi44NTAwMDYxMDM1MTU2MiA3MiBDNDIuNDI5MTcyMzY4Njc5MTIgNzIsIC0yNy45OTE2NjEzNjYxNTczODggNzIsIC0xMTIuODUwMDA2MTAzNTE1NjIgNzIgTTExMi44NTAwMDYxMDM1MTU2MiA3MiBDMzcuMDg4MTg5NjI5MDAzMDEgNzIsIC0zOC42NzM2MjY4NDU1MDk2IDcyLCAtMTEyLjg1MDAwNjEwMzUxNTYyIDcyIE0tMTEyLjg1MDAwNjEwMzUxNTYyIDcyIEMtMTEyLjg1MDAwNjEwMzUxNTYyIDM3Ljk0MjAyMTY3NDEzNjMzLCAtMTEyLjg1MDAwNjEwMzUxNTYyIDMuODg0MDQzMzQ4MjcyNjU1MywgLTExMi44NTAwMDYxMDM1MTU2MiAtNzIgTS0xMTIuODUwMDA2MTAzNTE1NjIgNzIgQy0xMTIuODUwMDA2MTAzNTE1NjIgMzEuMDg2NTc4NDMxNTY0MjUsIC0xMTIuODUwMDA2MTAzNTE1NjIgLTkuODI2ODQzMTM2ODcxNTAzLCAtMTEyLjg1MDAwNjEwMzUxNTYyIC03MiIgc3Ryb2tlPSIjY2NjIiBzdHJva2Utd2lkdGg9IjEuMyIgZmlsbD0ibm9uZSIgc3R5bGU9IiIvPjwvZz48ZyBjbGFzcz0iYW5ub3RhdGlvbi1ncm91cCB0ZXh0IiB0cmFuc2Zvcm09InRyYW5zbGF0ZSgwLCAtNDgpIi8+PGcgY2xhc3M9ImxhYmVsLWdyb3VwIHRleHQiIHRyYW5zZm9ybT0idHJhbnNsYXRlKC00OS44MzMzMzU4NzY0NjQ4NDQsIC00OCkiPjxnIGNsYXNzPSJsYWJlbCIgc3R5bGU9ImZvbnQtd2VpZ2h0OiBib2xkZXIiIHRyYW5zZm9ybT0idHJhbnNsYXRlKDAsLTEyKSI+PGZvcmVpZ25PYmplY3Qgd2lkdGg9Ijk5LjY2NjY3MTc1MjkyOTY5IiBoZWlnaHQ9IjI0Ij48ZGl2IHhtbG5zPSJodHRwOi8vd3d3LnczLm9yZy8xOTk5L3hodG1sIiBzdHlsZT0iZGlzcGxheTogdGFibGUtY2VsbDsgd2hpdGUtc3BhY2U6IG5vd3JhcDsgbGluZS1oZWlnaHQ6IDEuNTsgbWF4LXdpZHRoOiAxNDRweDsgdGV4dC1hbGlnbjogY2VudGVyOyI+PHNwYW4gY2xhc3M9Im5vZGVMYWJlbCBtYXJrZG93bi1ub2RlLWxhYmVsIiBzdHlsZT0iIj48cD5Mb2FkQ2FwYWNpdHk8L3A+PC9zcGFuPjwvZGl2PjwvZm9yZWlnbk9iamVjdD48L2c+PC9nPjxnIGNsYXNzPSJtZW1iZXJzLWdyb3VwIHRleHQiIHRyYW5zZm9ybT0idHJhbnNsYXRlKC0xMDAuODUwMDA2MTAzNTE1NjIsIDApIj48ZyBjbGFzcz0ibGFiZWwiIHN0eWxlPSIiIHRyYW5zZm9ybT0idHJhbnNsYXRlKDAsLTEyKSI+PGZvcmVpZ25PYmplY3Qgd2lkdGg9IjE0OC43NjY2NjI1OTc2NTYyNSIgaGVpZ2h0PSIyNCI+PGRpdiB4bWxucz0iaHR0cDovL3d3dy53My5vcmcvMTk5OS94aHRtbCIgc3R5bGU9ImRpc3BsYXk6IHRhYmxlLWNlbGw7IHdoaXRlLXNwYWNlOiBub3dyYXA7IGxpbmUtaGVpZ2h0OiAxLjU7IG1heC13aWR0aDogMjA2cHg7IHRleHQtYWxpZ246IGNlbnRlcjsiPjxzcGFuIGNsYXNzPSJub2RlTGFiZWwgbWFya2Rvd24tbm9kZS1sYWJlbCIgc3R5bGU9IiI+PHA+K2RlY2ltYWwgbWF4V2VpZ2h0PC9wPjwvc3Bhbj48L2Rpdj48L2ZvcmVpZ25PYmplY3Q+PC9nPjxnIGNsYXNzPSJsYWJlbCIgc3R5bGU9IiIgdHJhbnNmb3JtPSJ0cmFuc2xhdGUoMCwxMikiPjxmb3JlaWduT2JqZWN0IHdpZHRoPSIxNTEuODY2NjY4NzAxMTcxODgiIGhlaWdodD0iMjQiPjxkaXYgeG1sbnM9Imh0dHA6Ly93d3cudzMub3JnLzE5OTkveGh0bWwiIHN0eWxlPSJkaXNwbGF5OiB0YWJsZS1jZWxsOyB3aGl0ZS1zcGFjZTogbm93cmFwOyBsaW5lLWhlaWdodDogMS41OyBtYXgtd2lkdGg6IDIwOXB4OyB0ZXh0LWFsaWduOiBjZW50ZXI7Ij48c3BhbiBjbGFzcz0ibm9kZUxhYmVsIG1hcmtkb3duLW5vZGUtbGFiZWwiIHN0eWxlPSIiPjxwPitkZWNpbWFsIG1heFZvbHVtZTwvcD48L3NwYW4+PC9kaXY+PC9mb3JlaWduT2JqZWN0PjwvZz48L2c+PGcgY2xhc3M9Im1ldGhvZHMtZ3JvdXAgdGV4dCIgdHJhbnNmb3JtPSJ0cmFuc2xhdGUoLTEwMC44NTAwMDYxMDM1MTU2MiwgNzIpIi8+PGcgY2xhc3M9ImRpdmlkZXIiIHN0eWxlPSIiPjxwYXRoIGQ9Ik0tMTEyLjg1MDAwNjEwMzUxNTYyIC0yNCBDLTQzLjU3MDEzODE1MjE0NjU3IC0yNCwgMjUuNzA5NzI5Nzk5MjIyNDg3IC0yNCwgMTEyLjg1MDAwNjEwMzUxNTYyIC0yNCBNLTExMi44NTAwMDYxMDM1MTU2MiAtMjQgQy00NS4yNjUzMTc3ODk5Mjg5NCAtMjQsIDIyLjMxOTM3MDUyMzY1Nzc0IC0yNCwgMTEyLjg1MDAwNjEwMzUxNTYyIC0yNCIgc3Ryb2tlPSIjY2NjIiBzdHJva2Utd2lkdGg9IjEuMyIgZmlsbD0ibm9uZSIgc3R5bGU9IiIvPjwvZz48ZyBjbGFzcz0iZGl2aWRlciIgc3R5bGU9IiI+PHBhdGggZD0iTS0xMTIuODUwMDA2MTAzNTE1NjIgNDggQy0zMy45NzIyMTIwMTkwMDc3MSA0OCwgNDQuOTA1NTgyMDY1NTAwMiA0OCwgMTEyLjg1MDAwNjEwMzUxNTYyIDQ4IE0tMTEyLjg1MDAwNjEwMzUxNTYyIDQ4IEMtMjguNTQ1ODUxMDk5OTY0MzI0IDQ4LCA1NS43NTgzMDM5MDM1ODY5OCA0OCwgMTEyLjg1MDAwNjEwMzUxNTYyIDQ4IiBzdHJva2U9IiNjY2MiIHN0cm9rZS13aWR0aD0iMS4zIiBmaWxsPSJub25lIiBzdHlsZT0iIi8+PC9nPjwvZz48ZyBjbGFzcz0ibm9kZSBkZWZhdWx0IiBpZD0iY2xhc3NJZC1TaGVsZkxpZmUtODAiIHRyYW5zZm9ybT0idHJhbnNsYXRlKDE0NTAuNjUwMDAxNTI1ODc5LCAxNjQpIj48ZyBjbGFzcz0iYmFzaWMgbGFiZWwtY29udGFpbmVyIj48cGF0aCBkPSJNLTk5LjkxNjY2NDEyMzUzNTE2IC03MiBMOTkuOTE2NjY0MTIzNTM1MTYgLTcyIEw5OS45MTY2NjQxMjM1MzUxNiA3MiBMLTk5LjkxNjY2NDEyMzUzNTE2IDcyIiBzdHJva2U9Im5vbmUiIHN0cm9rZS13aWR0aD0iMCIgZmlsbD0iIzFmMjAyMCIgc3R5bGU9IiIvPjxwYXRoIGQ9Ik0tOTkuOTE2NjY0MTIzNTM1MTYgLTcyIEMtMzQuNjQzNzU0NTM3Njc1MjkgLTcyLCAzMC42MjkxNTUwNDgxODQ1NzIgLTcyLCA5OS45MTY2NjQxMjM1MzUxNiAtNzIgTS05OS45MTY2NjQxMjM1MzUxNiAtNzIgQy0yNi4zNTYwMjI1MDM4NTc5NDMgLTcyLCA0Ny4yMDQ2MTkxMTU4MTkyNyAtNzIsIDk5LjkxNjY2NDEyMzUzNTE2IC03MiBNOTkuOTE2NjY0MTIzNTM1MTYgLTcyIEM5OS45MTY2NjQxMjM1MzUxNiAtMjcuNzc3OTc2MjA5NzU5NDY2LCA5OS45MTY2NjQxMjM1MzUxNiAxNi40NDQwNDc1ODA0ODEwNywgOTkuOTE2NjY0MTIzNTM1MTYgNzIgTTk5LjkxNjY2NDEyMzUzNTE2IC03MiBDOTkuOTE2NjY0MTIzNTM1MTYgLTE5LjMzNjUzMTc5MzI1MzQ1NywgOTkuOTE2NjY0MTIzNTM1MTYgMzMuMzI2OTM2NDEzNDkzMDksIDk5LjkxNjY2NDEyMzUzNTE2IDcyIE05OS45MTY2NjQxMjM1MzUxNiA3MiBDNDcuNjY5NjkzNTMyNDQyNTMgNzIsIC00LjU3NzI3NzA1ODY1MDA5NyA3MiwgLTk5LjkxNjY2NDEyMzUzNTE2IDcyIE05OS45MTY2NjQxMjM1MzUxNiA3MiBDMzYuMTM2NjgxNDI5NDk4NSA3MiwgLTI3LjY0MzMwMTI2NDUzODE1MiA3MiwgLTk5LjkxNjY2NDEyMzUzNTE2IDcyIE0tOTkuOTE2NjY0MTIzNTM1MTYgNzIgQy05OS45MTY2NjQxMjM1MzUxNiAzOS45OTE4OTgxMDQ4OTQyMywgLTk5LjkxNjY2NDEyMzUzNTE2IDcuOTgzNzk2MjA5Nzg4NDY2LCAtOTkuOTE2NjY0MTIzNTM1MTYgLTcyIE0tOTkuOTE2NjY0MTIzNTM1MTYgNzIgQy05OS45MTY2NjQxMjM1MzUxNiAxNS4wNDg4Mzk5NzkwODg3OTcsIC05OS45MTY2NjQxMjM1MzUxNiAtNDEuOTAyMzIwMDQxODIyNDA2LCAtOTkuOTE2NjY0MTIzNTM1MTYgLTcyIiBzdHJva2U9IiNjY2MiIHN0cm9rZS13aWR0aD0iMS4zIiBmaWxsPSJub25lIiBzdHlsZT0iIi8+PC9nPjxnIGNsYXNzPSJhbm5vdGF0aW9uLWdyb3VwIHRleHQiIHRyYW5zZm9ybT0idHJhbnNsYXRlKDAsIC00OCkiLz48ZyBjbGFzcz0ibGFiZWwtZ3JvdXAgdGV4dCIgdHJhbnNmb3JtPSJ0cmFuc2xhdGUoLTMzLjExNjY2ODcwMTE3MTg3NSwgLTQ4KSI+PGcgY2xhc3M9ImxhYmVsIiBzdHlsZT0iZm9udC13ZWlnaHQ6IGJvbGRlciIgdHJhbnNmb3JtPSJ0cmFuc2xhdGUoMCwtMTIpIj48Zm9yZWlnbk9iamVjdCB3aWR0aD0iNjYuMjMzMzM3NDAyMzQzNzUiIGhlaWdodD0iMjQiPjxkaXYgeG1sbnM9Imh0dHA6Ly93d3cudzMub3JnLzE5OTkveGh0bWwiIHN0eWxlPSJkaXNwbGF5OiB0YWJsZS1jZWxsOyB3aGl0ZS1zcGFjZTogbm93cmFwOyBsaW5lLWhlaWdodDogMS41OyBtYXgtd2lkdGg6IDExMHB4OyB0ZXh0LWFsaWduOiBjZW50ZXI7Ij48c3BhbiBjbGFzcz0ibm9kZUxhYmVsIG1hcmtkb3duLW5vZGUtbGFiZWwiIHN0eWxlPSIiPjxwPlNoZWxmTGlmZTwvcD48L3NwYW4+PC9kaXY+PC9mb3JlaWduT2JqZWN0PjwvZz48L2c+PGcgY2xhc3M9Im1lbWJlcnMtZ3JvdXAgdGV4dCIgdHJhbnNmb3JtPSJ0cmFuc2xhdGUoLTg3LjkxNjY2NDEyMzUzNTE2LCAwKSI+PGcgY2xhc3M9ImxhYmVsIiBzdHlsZT0iIiB0cmFuc2Zvcm09InRyYW5zbGF0ZSgwLC0xMikiPjxmb3JlaWduT2JqZWN0IHdpZHRoPSIxNDIuNzE2NjU5NTQ1ODk4NDQiIGhlaWdodD0iMjQiPjxkaXYgeG1sbnM9Imh0dHA6Ly93d3cudzMub3JnLzE5OTkveGh0bWwiIHN0eWxlPSJkaXNwbGF5OiB0YWJsZS1jZWxsOyB3aGl0ZS1zcGFjZTogbm93cmFwOyBsaW5lLWhlaWdodDogMS41OyBtYXgtd2lkdGg6IDIwMXB4OyB0ZXh0LWFsaWduOiBjZW50ZXI7Ij48c3BhbiBjbGFzcz0ibm9kZUxhYmVsIG1hcmtkb3duLW5vZGUtbGFiZWwiIHN0eWxlPSIiPjxwPitUaW1lU3BhbiBkdXJhdGlvbjwvcD48L3NwYW4+PC9kaXY+PC9mb3JlaWduT2JqZWN0PjwvZz48ZyBjbGFzcz0ibGFiZWwiIHN0eWxlPSIiIHRyYW5zZm9ybT0idHJhbnNsYXRlKDAsMTIpIj48Zm9yZWlnbk9iamVjdCB3aWR0aD0iMTQxLjE5OTk5Njk0ODI0MjIiIGhlaWdodD0iMjQiPjxkaXYgeG1sbnM9Imh0dHA6Ly93d3cudzMub3JnLzE5OTkveGh0bWwiIHN0eWxlPSJkaXNwbGF5OiB0YWJsZS1jZWxsOyB3aGl0ZS1zcGFjZTogbm93cmFwOyBsaW5lLWhlaWdodDogMS41OyBtYXgtd2lkdGg6IDE5NXB4OyB0ZXh0LWFsaWduOiBjZW50ZXI7Ij48c3BhbiBjbGFzcz0ibm9kZUxhYmVsIG1hcmtkb3duLW5vZGUtbGFiZWwiIHN0eWxlPSIiPjxwPitTaGVsZkxpZmVUeXBlIHR5cGU8L3A+PC9zcGFuPjwvZGl2PjwvZm9yZWlnbk9iamVjdD48L2c+PC9nPjxnIGNsYXNzPSJtZXRob2RzLWdyb3VwIHRleHQiIHRyYW5zZm9ybT0idHJhbnNsYXRlKC04Ny45MTY2NjQxMjM1MzUxNiwgNzIpIi8+PGcgY2xhc3M9ImRpdmlkZXIiIHN0eWxlPSIiPjxwYXRoIGQ9Ik0tOTkuOTE2NjY0MTIzNTM1MTYgLTI0IEMtMzYuNTU0MDc3NzQ5NTQ0MzIgLTI0LCAyNi44MDg1MDg2MjQ0NDY1MTcgLTI0LCA5OS45MTY2NjQxMjM1MzUxNiAtMjQgTS05OS45MTY2NjQxMjM1MzUxNiAtMjQgQy0yOS4wMDY4NDU1MDQ3MjkxNyAtMjQsIDQxLjkwMjk3MzExNDA3NjgxNSAtMjQsIDk5LjkxNjY2NDEyMzUzNTE2IC0yNCIgc3Ryb2tlPSIjY2NjIiBzdHJva2Utd2lkdGg9IjEuMyIgZmlsbD0ibm9uZSIgc3R5bGU9IiIvPjwvZz48ZyBjbGFzcz0iZGl2aWRlciIgc3R5bGU9IiI+PHBhdGggZD0iTS05OS45MTY2NjQxMjM1MzUxNiA0OCBDLTU2LjQ4MzcwOTIzNzMyNjIxIDQ4LCAtMTMuMDUwNzU0MzUxMTE3MjYzIDQ4LCA5OS45MTY2NjQxMjM1MzUxNiA0OCBNLTk5LjkxNjY2NDEyMzUzNTE2IDQ4IEMtMjEuMzU5NTMzNzk4MDA4OTgyIDQ4LCA1Ny4xOTc1OTY1Mjc1MTcxOSA0OCwgOTkuOTE2NjY0MTIzNTM1MTYgNDgiIHN0cm9rZT0iI2NjYyIgc3Ryb2tlLXdpZHRoPSIxLjMiIGZpbGw9Im5vbmUiIHN0eWxlPSIiLz48L2c+PC9nPjxnIGNsYXNzPSJub2RlIGRlZmF1bHQiIGlkPSJjbGFzc0lkLUl0ZW1TdGF0dXMtODEiIHRyYW5zZm9ybT0idHJhbnNsYXRlKDE2OTAuNTA0MTY1NjQ5NDE0LCAxNjQpIj48ZyBjbGFzcz0iYmFzaWMgbGFiZWwtY29udGFpbmVyIj48cGF0aCBkPSJNLTg5LjkzNzUgLTEzMiBMODkuOTM3NSAtMTMyIEw4OS45Mzc1IDEzMiBMLTg5LjkzNzUgMTMyIiBzdHJva2U9Im5vbmUiIHN0cm9rZS13aWR0aD0iMCIgZmlsbD0iIzFmMjAyMCIgc3R5bGU9IiIvPjxwYXRoIGQ9Ik0tODkuOTM3NSAtMTMyIEMtMzMuNTExMTg4NjkzNjcyMzcgLTEzMiwgMjIuOTE1MTIyNjEyNjU1MjUzIC0xMzIsIDg5LjkzNzUgLTEzMiBNLTg5LjkzNzUgLTEzMiBDLTMwLjgxOTUwNDY4NzUzNzQ1MyAtMTMyLCAyOC4yOTg0OTA2MjQ5MjUwOTQgLTEzMiwgODkuOTM3NSAtMTMyIE04OS45Mzc1IC0xMzIgQzg5LjkzNzUgLTc4LjAwOTYyODIzMDg2OTk5LCA4OS45Mzc1IC0yNC4wMTkyNTY0NjE3NCwgODkuOTM3NSAxMzIgTTg5LjkzNzUgLTEzMiBDODkuOTM3NSAtNjYuMzU5OTk0NzYxMTI3MzUsIDg5LjkzNzUgLTAuNzE5OTg5NTIyMjU0NzA3LCA4OS45Mzc1IDEzMiBNODkuOTM3NSAxMzIgQzE4LjcxODUzNjgxMDIyNDM4IDEzMiwgLTUyLjUwMDQyNjM3OTU1MTI0IDEzMiwgLTg5LjkzNzUgMTMyIE04OS45Mzc1IDEzMiBDMjMuMjk1OTA2ODczMDk2MzE0IDEzMiwgLTQzLjM0NTY4NjI1MzgwNzM3IDEzMiwgLTg5LjkzNzUgMTMyIE0tODkuOTM3NSAxMzIgQy04OS45Mzc1IDQ5LjgzMTQxODA4NDM1NTk3NCwgLTg5LjkzNzUgLTMyLjMzNzE2MzgzMTI4ODA1LCAtODkuOTM3NSAtMTMyIE0tODkuOTM3NSAxMzIgQy04OS45Mzc1IDMzLjI4NzE2NjYxOTA0MTAzLCAtODkuOTM3NSAtNjUuNDI1NjY2NzYxOTE3OTQsIC04OS45Mzc1IC0xMzIiIHN0cm9rZT0iI2NjYyIgc3Ryb2tlLXdpZHRoPSIxLjMiIGZpbGw9Im5vbmUiIHN0eWxlPSIiLz48L2c+PGcgY2xhc3M9ImFubm90YXRpb24tZ3JvdXAgdGV4dCIgdHJhbnNmb3JtPSJ0cmFuc2xhdGUoLTUzLjk0MTY2NTY0OTQxNDA2LCAtMTA4KSI+PGcgY2xhc3M9ImxhYmVsIiBzdHlsZT0iIiB0cmFuc2Zvcm09InRyYW5zbGF0ZSgwLC0xMikiPjxmb3JlaWduT2JqZWN0IHdpZHRoPSIxMDcuODgzMzMxMjk4ODI4MTIiIGhlaWdodD0iMjQiPjxkaXYgeG1sbnM9Imh0dHA6Ly93d3cudzMub3JnLzE5OTkveGh0bWwiIHN0eWxlPSJkaXNwbGF5OiB0YWJsZS1jZWxsOyB3aGl0ZS1zcGFjZTogbm93cmFwOyBsaW5lLWhlaWdodDogMS41OyBtYXgtd2lkdGg6IDE1NnB4OyB0ZXh0LWFsaWduOiBjZW50ZXI7Ij48c3BhbiBjbGFzcz0ibm9kZUxhYmVsIG1hcmtkb3duLW5vZGUtbGFiZWwiIHN0eWxlPSIiPjxwPsKrZW51bWVyYXRpb27CuzwvcD48L3NwYW4+PC9kaXY+PC9mb3JlaWduT2JqZWN0PjwvZz48L2c+PGcgY2xhc3M9ImxhYmVsLWdyb3VwIHRleHQiIHRyYW5zZm9ybT0idHJhbnNsYXRlKC0zOS43NDE2Njg3MDExNzE4NzUsIC04NCkiPjxnIGNsYXNzPSJsYWJlbCIgc3R5bGU9ImZvbnQtd2VpZ2h0OiBib2xkZXIiIHRyYW5zZm9ybT0idHJhbnNsYXRlKDAsLTEyKSI+PGZvcmVpZ25PYmplY3Qgd2lkdGg9Ijc5LjQ4MzMzNzQwMjM0Mzc1IiBoZWlnaHQ9IjI0Ij48ZGl2IHhtbG5zPSJodHRwOi8vd3d3LnczLm9yZy8xOTk5L3hodG1sIiBzdHlsZT0iZGlzcGxheTogdGFibGUtY2VsbDsgd2hpdGUtc3BhY2U6IG5vd3JhcDsgbGluZS1oZWlnaHQ6IDEuNTsgbWF4LXdpZHRoOiAxMjVweDsgdGV4dC1hbGlnbjogY2VudGVyOyI+PHNwYW4gY2xhc3M9Im5vZGVMYWJlbCBtYXJrZG93bi1ub2RlLWxhYmVsIiBzdHlsZT0iIj48cD5JdGVtU3RhdHVzPC9wPjwvc3Bhbj48L2Rpdj48L2ZvcmVpZ25PYmplY3Q+PC9nPjwvZz48ZyBjbGFzcz0ibWVtYmVycy1ncm91cCB0ZXh0IiB0cmFuc2Zvcm09InRyYW5zbGF0ZSgtNzcuOTM3NSwgLTM2KSI+PGcgY2xhc3M9ImxhYmVsIiBzdHlsZT0iIiB0cmFuc2Zvcm09InRyYW5zbGF0ZSgwLC0xMikiPjxmb3JlaWduT2JqZWN0IHdpZHRoPSI2OC43MTY2NTk1NDU4OTg0NCIgaGVpZ2h0PSIyNCI+PGRpdiB4bWxucz0iaHR0cDovL3d3dy53My5vcmcvMTk5OS94aHRtbCIgc3R5bGU9ImRpc3BsYXk6IHRhYmxlLWNlbGw7IHdoaXRlLXNwYWNlOiBub3dyYXA7IGxpbmUtaGVpZ2h0OiAxLjU7IG1heC13aWR0aDogMTIwcHg7IHRleHQtYWxpZ246IGNlbnRlcjsiPjxzcGFuIGNsYXNzPSJub2RlTGFiZWwgbWFya2Rvd24tbm9kZS1sYWJlbCIgc3R5bGU9IiI+PHA+SU5fU1RPQ0s8L3A+PC9zcGFuPjwvZGl2PjwvZm9yZWlnbk9iamVjdD48L2c+PGcgY2xhc3M9ImxhYmVsIiBzdHlsZT0iIiB0cmFuc2Zvcm09InRyYW5zbGF0ZSgwLDEyKSI+PGZvcmVpZ25PYmplY3Qgd2lkdGg9IjcwLjUxNjY2MjU5NzY1NjI1IiBoZWlnaHQ9IjI0Ij48ZGl2IHhtbG5zPSJodHRwOi8vd3d3LnczLm9yZy8xOTk5L3hodG1sIiBzdHlsZT0iZGlzcGxheTogdGFibGUtY2VsbDsgd2hpdGUtc3BhY2U6IG5vd3JhcDsgbGluZS1oZWlnaHQ6IDEuNTsgbWF4LXdpZHRoOiAxMjNweDsgdGV4dC1hbGlnbjogY2VudGVyOyI+PHNwYW4gY2xhc3M9Im5vZGVMYWJlbCBtYXJrZG93bi1ub2RlLWxhYmVsIiBzdHlsZT0iIj48cD5SRVNFUlZFRDwvcD48L3NwYW4+PC9kaXY+PC9mb3JlaWduT2JqZWN0PjwvZz48ZyBjbGFzcz0ibGFiZWwiIHN0eWxlPSIiIHRyYW5zZm9ybT0idHJhbnNsYXRlKDAsMzYpIj48Zm9yZWlnbk9iamVjdCB3aWR0aD0iODIuNzMzMzM3NDAyMzQzNzUiIGhlaWdodD0iMjQiPjxkaXYgeG1sbnM9Imh0dHA6Ly93d3cudzMub3JnLzE5OTkveGh0bWwiIHN0eWxlPSJkaXNwbGF5OiB0YWJsZS1jZWxsOyB3aGl0ZS1zcGFjZTogbm93cmFwOyBsaW5lLWhlaWdodDogMS41OyBtYXgtd2lkdGg6IDEzNHB4OyB0ZXh0LWFsaWduOiBjZW50ZXI7Ij48c3BhbiBjbGFzcz0ibm9kZUxhYmVsIG1hcmtkb3duLW5vZGUtbGFiZWwiIHN0eWxlPSIiPjxwPklOX1RSQU5TSVQ8L3A+PC9zcGFuPjwvZGl2PjwvZm9yZWlnbk9iamVjdD48L2c+PGcgY2xhc3M9ImxhYmVsIiBzdHlsZT0iIiB0cmFuc2Zvcm09InRyYW5zbGF0ZSgwLDYwKSI+PGZvcmVpZ25PYmplY3Qgd2lkdGg9IjY5LjIzMzMzNzQwMjM0Mzc1IiBoZWlnaHQ9IjI0Ij48ZGl2IHhtbG5zPSJodHRwOi8vd3d3LnczLm9yZy8xOTk5L3hodG1sIiBzdHlsZT0iZGlzcGxheTogdGFibGUtY2VsbDsgd2hpdGUtc3BhY2U6IG5vd3JhcDsgbGluZS1oZWlnaHQ6IDEuNTsgbWF4LXdpZHRoOiAxMjZweDsgdGV4dC1hbGlnbjogY2VudGVyOyI+PHNwYW4gY2xhc3M9Im5vZGVMYWJlbCBtYXJrZG93bi1ub2RlLWxhYmVsIiBzdHlsZT0iIj48cD5EQU1BR0VEPC9wPjwvc3Bhbj48L2Rpdj48L2ZvcmVpZ25PYmplY3Q+PC9nPjxnIGNsYXNzPSJsYWJlbCIgc3R5bGU9IiIgdHJhbnNmb3JtPSJ0cmFuc2xhdGUoMCw4NCkiPjxmb3JlaWduT2JqZWN0IHdpZHRoPSIxMDEuOTMzMzM0MzUwNTg1OTQiIGhlaWdodD0iMjQiPjxkaXYgeG1sbnM9Imh0dHA6Ly93d3cudzMub3JnLzE5OTkveGh0bWwiIHN0eWxlPSJkaXNwbGF5OiB0YWJsZS1jZWxsOyB3aGl0ZS1zcGFjZTogbm93cmFwOyBsaW5lLWhlaWdodDogMS41OyBtYXgtd2lkdGg6IDE1OXB4OyB0ZXh0LWFsaWduOiBjZW50ZXI7Ij48c3BhbiBjbGFzcz0ibm9kZUxhYmVsIG1hcmtkb3duLW5vZGUtbGFiZWwiIHN0eWxlPSIiPjxwPlFVQVJBTlRJTkVEPC9wPjwvc3Bhbj48L2Rpdj48L2ZvcmVpZ25PYmplY3Q+PC9nPjxnIGNsYXNzPSJsYWJlbCIgc3R5bGU9IiIgdHJhbnNmb3JtPSJ0cmFuc2xhdGUoMCwxMDgpIj48Zm9yZWlnbk9iamVjdCB3aWR0aD0iNjcuNzUiIGhlaWdodD0iMjQiPjxkaXYgeG1sbnM9Imh0dHA6Ly93d3cudzMub3JnLzE5OTkveGh0bWwiIHN0eWxlPSJkaXNwbGF5OiB0YWJsZS1jZWxsOyB3aGl0ZS1zcGFjZTogbm93cmFwOyBsaW5lLWhlaWdodDogMS41OyBtYXgtd2lkdGg6IDEyM3B4OyB0ZXh0LWFsaWduOiBjZW50ZXI7Ij48c3BhbiBjbGFzcz0ibm9kZUxhYmVsIG1hcmtkb3duLW5vZGUtbGFiZWwiIHN0eWxlPSIiPjxwPkRJU1BPU0VEPC9wPjwvc3Bhbj48L2Rpdj48L2ZvcmVpZ25PYmplY3Q+PC9nPjwvZz48ZyBjbGFzcz0ibWV0aG9kcy1ncm91cCB0ZXh0IiB0cmFuc2Zvcm09InRyYW5zbGF0ZSgtNzcuOTM3NSwgMTMyKSIvPjxnIGNsYXNzPSJkaXZpZGVyIiBzdHlsZT0iIj48cGF0aCBkPSJNLTg5LjkzNzUgLTYwIEMtMjcuNzEwNDE5ODE3MDg5MDQ3IC02MCwgMzQuNTE2NjYwMzY1ODIxOTA2IC02MCwgODkuOTM3NSAtNjAgTS04OS45Mzc1IC02MCBDLTQwLjUwNzgxODcyMzI5ODAxNiAtNjAsIDguOTIxODYyNTUzNDAzOTY5IC02MCwgODkuOTM3NSAtNjAiIHN0cm9rZT0iI2NjYyIgc3Ryb2tlLXdpZHRoPSIxLjMiIGZpbGw9Im5vbmUiIHN0eWxlPSIiLz48L2c+PGcgY2xhc3M9ImRpdmlkZXIiIHN0eWxlPSIiPjxwYXRoIGQ9Ik0tODkuOTM3NSAxMDggQy0zNy4zMjQyMDE5OTY3NDY5MiAxMDgsIDE1LjI4OTA5NjAwNjUwNjE1NiAxMDgsIDg5LjkzNzUgMTA4IE0tODkuOTM3NSAxMDggQy0yNy41NjU1MjAwNzc4NTIwMjggMTA4LCAzNC44MDY0NTk4NDQyOTU5NDQgMTA4LCA4OS45Mzc1IDEwOCIgc3Ryb2tlPSIjY2NjIiBzdHJva2Utd2lkdGg9IjEuMyIgZmlsbD0ibm9uZSIgc3R5bGU9IiIvPjwvZz48L2c+PGcgY2xhc3M9Im5vZGUgZGVmYXVsdCIgaWQ9ImNsYXNzSWQtRGVsaXZlcnlTdGF0dXMtODIiIHRyYW5zZm9ybT0idHJhbnNsYXRlKDE5MTEuODg3NDk2OTQ4MjQyMiwgMTY0KSI+PGcgY2xhc3M9ImJhc2ljIGxhYmVsLWNvbnRhaW5lciI+PHBhdGggZD0iTS04MS40NDU4MzEyOTg4MjgxMiAtMTU2IEw4MS40NDU4MzEyOTg4MjgxMiAtMTU2IEw4MS40NDU4MzEyOTg4MjgxMiAxNTYgTC04MS40NDU4MzEyOTg4MjgxMiAxNTYiIHN0cm9rZT0ibm9uZSIgc3Ryb2tlLXdpZHRoPSIwIiBmaWxsPSIjMWYyMDIwIiBzdHlsZT0iIi8+PHBhdGggZD0iTS04MS40NDU4MzEyOTg4MjgxMiAtMTU2IEMtMjkuMDExMjQwMzIxOTc5OTQ4IC0xNTYsIDIzLjQyMzM1MDY1NDg2ODIzIC0xNTYsIDgxLjQ0NTgzMTI5ODgyODEyIC0xNTYgTS04MS40NDU4MzEyOTg4MjgxMiAtMTU2IEMtNDcuOTQ3ODI1MDk5MjAyMTQgLTE1NiwgLTE0LjQ0OTgxODg5OTU3NjE1OCAtMTU2LCA4MS40NDU4MzEyOTg4MjgxMiAtMTU2IE04MS40NDU4MzEyOTg4MjgxMiAtMTU2IEM4MS40NDU4MzEyOTg4MjgxMiAtMzIuNjg5NDQ5MzI5NjY4MDY1LCA4MS40NDU4MzEyOTg4MjgxMiA5MC42MjExMDEzNDA2NjM4NywgODEuNDQ1ODMxMjk4ODI4MTIgMTU2IE04MS40NDU4MzEyOTg4MjgxMiAtMTU2IEM4MS40NDU4MzEyOTg4MjgxMiAtNjguOTk1Mjk3NTgzMjQ1MywgODEuNDQ1ODMxMjk4ODI4MTIgMTguMDA5NDA0ODMzNTA5MzkzLCA4MS40NDU4MzEyOTg4MjgxMiAxNTYgTTgxLjQ0NTgzMTI5ODgyODEyIDE1NiBDMjEuOTM4NTk1MzkzMzk3MTkzIDE1NiwgLTM3LjU2ODY0MDUxMjAzMzc0IDE1NiwgLTgxLjQ0NTgzMTI5ODgyODEyIDE1NiBNODEuNDQ1ODMxMjk4ODI4MTIgMTU2IEMzMS4wMzQxMDA1Nzg3MDUzNSAxNTYsIC0xOS4zNzc2MzAxNDE0MTc0MjcgMTU2LCAtODEuNDQ1ODMxMjk4ODI4MTIgMTU2IE0tODEuNDQ1ODMxMjk4ODI4MTIgMTU2IEMtODEuNDQ1ODMxMjk4ODI4MTIgODIuMTczNzk5OTg4MjM1MTYsIC04MS40NDU4MzEyOTg4MjgxMiA4LjM0NzU5OTk3NjQ3MDMyLCAtODEuNDQ1ODMxMjk4ODI4MTIgLTE1NiBNLTgxLjQ0NTgzMTI5ODgyODEyIDE1NiBDLTgxLjQ0NTgzMTI5ODgyODEyIDUyLjEzMTQ0NjQ0MzExOTk3LCAtODEuNDQ1ODMxMjk4ODI4MTIgLTUxLjczNzEwNzExMzc2MDA2LCAtODEuNDQ1ODMxMjk4ODI4MTIgLTE1NiIgc3Ryb2tlPSIjY2NjIiBzdHJva2Utd2lkdGg9IjEuMyIgZmlsbD0ibm9uZSIgc3R5bGU9IiIvPjwvZz48ZyBjbGFzcz0iYW5ub3RhdGlvbi1ncm91cCB0ZXh0IiB0cmFuc2Zvcm09InRyYW5zbGF0ZSgtNTMuOTQxNjY1NjQ5NDE0MDYsIC0xMzIpIj48ZyBjbGFzcz0ibGFiZWwiIHN0eWxlPSIiIHRyYW5zZm9ybT0idHJhbnNsYXRlKDAsLTEyKSI+PGZvcmVpZ25PYmplY3Qgd2lkdGg9IjEwNy44ODMzMzEyOTg4MjgxMiIgaGVpZ2h0PSIyNCI+PGRpdiB4bWxucz0iaHR0cDovL3d3dy53My5vcmcvMTk5OS94aHRtbCIgc3R5bGU9ImRpc3BsYXk6IHRhYmxlLWNlbGw7IHdoaXRlLXNwYWNlOiBub3dyYXA7IGxpbmUtaGVpZ2h0OiAxLjU7IG1heC13aWR0aDogMTU2cHg7IHRleHQtYWxpZ246IGNlbnRlcjsiPjxzcGFuIGNsYXNzPSJub2RlTGFiZWwgbWFya2Rvd24tbm9kZS1sYWJlbCIgc3R5bGU9IiI+PHA+wqtlbnVtZXJhdGlvbsK7PC9wPjwvc3Bhbj48L2Rpdj48L2ZvcmVpZ25PYmplY3Q+PC9nPjwvZz48ZyBjbGFzcz0ibGFiZWwtZ3JvdXAgdGV4dCIgdHJhbnNmb3JtPSJ0cmFuc2xhdGUoLTUzLjg0OTk5ODQ3NDEyMTA5NCwgLTEwOCkiPjxnIGNsYXNzPSJsYWJlbCIgc3R5bGU9ImZvbnQtd2VpZ2h0OiBib2xkZXIiIHRyYW5zZm9ybT0idHJhbnNsYXRlKDAsLTEyKSI+PGZvcmVpZ25PYmplY3Qgd2lkdGg9IjEwNy42OTk5OTY5NDgyNDIxOSIgaGVpZ2h0PSIyNCI+PGRpdiB4bWxucz0iaHR0cDovL3d3dy53My5vcmcvMTk5OS94aHRtbCIgc3R5bGU9ImRpc3BsYXk6IHRhYmxlLWNlbGw7IHdoaXRlLXNwYWNlOiBub3dyYXA7IGxpbmUtaGVpZ2h0OiAxLjU7IG1heC13aWR0aDogMTQ5cHg7IHRleHQtYWxpZ246IGNlbnRlcjsiPjxzcGFuIGNsYXNzPSJub2RlTGFiZWwgbWFya2Rvd24tbm9kZS1sYWJlbCIgc3R5bGU9IiI+PHA+RGVsaXZlcnlTdGF0dXM8L3A+PC9zcGFuPjwvZGl2PjwvZm9yZWlnbk9iamVjdD48L2c+PC9nPjxnIGNsYXNzPSJtZW1iZXJzLWdyb3VwIHRleHQiIHRyYW5zZm9ybT0idHJhbnNsYXRlKC02OS40NDU4MzEyOTg4MjgxMiwgLTYwKSI+PGcgY2xhc3M9ImxhYmVsIiBzdHlsZT0iIiB0cmFuc2Zvcm09InRyYW5zbGF0ZSgwLC0xMikiPjxmb3JlaWduT2JqZWN0IHdpZHRoPSI2MyIgaGVpZ2h0PSIyNCI+PGRpdiB4bWxucz0iaHR0cDovL3d3dy53My5vcmcvMTk5OS94aHRtbCIgc3R5bGU9ImRpc3BsYXk6IHRhYmxlLWNlbGw7IHdoaXRlLXNwYWNlOiBub3dyYXA7IGxpbmUtaGVpZ2h0OiAxLjU7IG1heC13aWR0aDogMTE0cHg7IHRleHQtYWxpZ246IGNlbnRlcjsiPjxzcGFuIGNsYXNzPSJub2RlTGFiZWwgbWFya2Rvd24tbm9kZS1sYWJlbCIgc3R5bGU9IiI+PHA+Q1JFQVRFRDwvcD48L3NwYW4+PC9kaXY+PC9mb3JlaWduT2JqZWN0PjwvZz48ZyBjbGFzcz0ibGFiZWwiIHN0eWxlPSIiIHRyYW5zZm9ybT0idHJhbnNsYXRlKDAsMTIpIj48Zm9yZWlnbk9iamVjdCB3aWR0aD0iODIuNzMzMzM3NDAyMzQzNzUiIGhlaWdodD0iMjQiPjxkaXYgeG1sbnM9Imh0dHA6Ly93d3cudzMub3JnLzE5OTkveGh0bWwiIHN0eWxlPSJkaXNwbGF5OiB0YWJsZS1jZWxsOyB3aGl0ZS1zcGFjZTogbm93cmFwOyBsaW5lLWhlaWdodDogMS41OyBtYXgtd2lkdGg6IDEzNHB4OyB0ZXh0LWFsaWduOiBjZW50ZXI7Ij48c3BhbiBjbGFzcz0ibm9kZUxhYmVsIG1hcmtkb3duLW5vZGUtbGFiZWwiIHN0eWxlPSIiPjxwPklOX1RSQU5TSVQ8L3A+PC9zcGFuPjwvZGl2PjwvZm9yZWlnbk9iamVjdD48L2c+PGcgY2xhc3M9ImxhYmVsIiBzdHlsZT0iIiB0cmFuc2Zvcm09InRyYW5zbGF0ZSgwLDM2KSI+PGZvcmVpZ25PYmplY3Qgd2lkdGg9IjYwLjMwMDAwMzA1MTc1NzgxIiBoZWlnaHQ9IjI0Ij48ZGl2IHhtbG5zPSJodHRwOi8vd3d3LnczLm9yZy8xOTk5L3hodG1sIiBzdHlsZT0iZGlzcGxheTogdGFibGUtY2VsbDsgd2hpdGUtc3BhY2U6IG5vd3JhcDsgbGluZS1oZWlnaHQ6IDEuNTsgbWF4LXdpZHRoOiAxMTNweDsgdGV4dC1hbGlnbjogY2VudGVyOyI+PHNwYW4gY2xhc3M9Im5vZGVMYWJlbCBtYXJrZG93bi1ub2RlLWxhYmVsIiBzdHlsZT0iIj48cD5BUlJJVkVEPC9wPjwvc3Bhbj48L2Rpdj48L2ZvcmVpZ25PYmplY3Q+PC9nPjxnIGNsYXNzPSJsYWJlbCIgc3R5bGU9IiIgdHJhbnNmb3JtPSJ0cmFuc2xhdGUoMCw2MCkiPjxmb3JlaWduT2JqZWN0IHdpZHRoPSI4NC4yMTY2NTk1NDU4OTg0NCIgaGVpZ2h0PSIyNCI+PGRpdiB4bWxucz0iaHR0cDovL3d3dy53My5vcmcvMTk5OS94aHRtbCIgc3R5bGU9ImRpc3BsYXk6IHRhYmxlLWNlbGw7IHdoaXRlLXNwYWNlOiBub3dyYXA7IGxpbmUtaGVpZ2h0OiAxLjU7IG1heC13aWR0aDogMTQwcHg7IHRleHQtYWxpZ246IGNlbnRlcjsiPjxzcGFuIGNsYXNzPSJub2RlTGFiZWwgbWFya2Rvd24tbm9kZS1sYWJlbCIgc3R5bGU9IiI+PHA+VU5MT0FESU5HPC9wPjwvc3Bhbj48L2Rpdj48L2ZvcmVpZ25PYmplY3Q+PC9nPjxnIGNsYXNzPSJsYWJlbCIgc3R5bGU9IiIgdHJhbnNmb3JtPSJ0cmFuc2xhdGUoMCw4NCkiPjxmb3JlaWduT2JqZWN0IHdpZHRoPSI4NC4xODMzMzQzNTA1ODU5NCIgaGVpZ2h0PSIyNCI+PGRpdiB4bWxucz0iaHR0cDovL3d3dy53My5vcmcvMTk5OS94aHRtbCIgc3R5bGU9ImRpc3BsYXk6IHRhYmxlLWNlbGw7IHdoaXRlLXNwYWNlOiBub3dyYXA7IGxpbmUtaGVpZ2h0OiAxLjU7IG1heC13aWR0aDogMTM3cHg7IHRleHQtYWxpZ246IGNlbnRlcjsiPjxzcGFuIGNsYXNzPSJub2RlTGFiZWwgbWFya2Rvd24tbm9kZS1sYWJlbCIgc3R5bGU9IiI+PHA+SU5TUEVDVElORzwvcD48L3NwYW4+PC9kaXY+PC9mb3JlaWduT2JqZWN0PjwvZz48ZyBjbGFzcz0ibGFiZWwiIHN0eWxlPSIiIHRyYW5zZm9ybT0idHJhbnNsYXRlKDAsMTA4KSI+PGZvcmVpZ25PYmplY3Qgd2lkdGg9Ijg0Ljk0OTk5Njk0ODI0MjE5IiBoZWlnaHQ9IjI0Ij48ZGl2IHhtbG5zPSJodHRwOi8vd3d3LnczLm9yZy8xOTk5L3hodG1sIiBzdHlsZT0iZGlzcGxheTogdGFibGUtY2VsbDsgd2hpdGUtc3BhY2U6IG5vd3JhcDsgbGluZS1oZWlnaHQ6IDEuNTsgbWF4LXdpZHRoOiAxMzhweDsgdGV4dC1hbGlnbjogY2VudGVyOyI+PHNwYW4gY2xhc3M9Im5vZGVMYWJlbCBtYXJrZG93bi1ub2RlLWxhYmVsIiBzdHlsZT0iIj48cD5DT01QTEVURUQ8L3A+PC9zcGFuPjwvZGl2PjwvZm9yZWlnbk9iamVjdD48L2c+PGcgY2xhc3M9ImxhYmVsIiBzdHlsZT0iIiB0cmFuc2Zvcm09InRyYW5zbGF0ZSgwLDEzMikiPjxmb3JlaWduT2JqZWN0IHdpZHRoPSI2MS43MzMzMzc0MDIzNDM3NSIgaGVpZ2h0PSIyNCI+PGRpdiB4bWxucz0iaHR0cDovL3d3dy53My5vcmcvMTk5OS94aHRtbCIgc3R5bGU9ImRpc3BsYXk6IHRhYmxlLWNlbGw7IHdoaXRlLXNwYWNlOiBub3dyYXA7IGxpbmUtaGVpZ2h0OiAxLjU7IG1heC13aWR0aDogMTE1cHg7IHRleHQtYWxpZ246IGNlbnRlcjsiPjxzcGFuIGNsYXNzPSJub2RlTGFiZWwgbWFya2Rvd24tbm9kZS1sYWJlbCIgc3R5bGU9IiI+PHA+REVMQVlFRDwvcD48L3NwYW4+PC9kaXY+PC9mb3JlaWduT2JqZWN0PjwvZz48ZyBjbGFzcz0ibGFiZWwiIHN0eWxlPSIiIHRyYW5zZm9ybT0idHJhbnNsYXRlKDAsMTU2KSI+PGZvcmVpZ25PYmplY3Qgd2lkdGg9IjgxLjkzMzMzNDM1MDU4NTk0IiBoZWlnaHQ9IjI0Ij48ZGl2IHhtbG5zPSJodHRwOi8vd3d3LnczLm9yZy8xOTk5L3hodG1sIiBzdHlsZT0iZGlzcGxheTogdGFibGUtY2VsbDsgd2hpdGUtc3BhY2U6IG5vd3JhcDsgbGluZS1oZWlnaHQ6IDEuNTsgbWF4LXdpZHRoOiAxMzVweDsgdGV4dC1hbGlnbjogY2VudGVyOyI+PHNwYW4gY2xhc3M9Im5vZGVMYWJlbCBtYXJrZG93bi1ub2RlLWxhYmVsIiBzdHlsZT0iIj48cD5DQU5DRUxMRUQ8L3A+PC9zcGFuPjwvZGl2PjwvZm9yZWlnbk9iamVjdD48L2c+PC9nPjxnIGNsYXNzPSJtZXRob2RzLWdyb3VwIHRleHQiIHRyYW5zZm9ybT0idHJhbnNsYXRlKC02OS40NDU4MzEyOTg4MjgxMiwgMTU2KSIvPjxnIGNsYXNzPSJkaXZpZGVyIiBzdHlsZT0iIj48cGF0aCBkPSJNLTgxLjQ0NTgzMTI5ODgyODEyIC04NCBDLTE5LjY1MjMxMDQwNDcyNzAyNSAtODQsIDQyLjE0MTIxMDQ4OTM3NDA3NSAtODQsIDgxLjQ0NTgzMTI5ODgyODEyIC04NCBNLTgxLjQ0NTgzMTI5ODgyODEyIC04NCBDLTIxLjA1NjQxODE1MDczOTM0IC04NCwgMzkuMzMyOTk0OTk3MzQ5NDQ1IC04NCwgODEuNDQ1ODMxMjk4ODI4MTIgLTg0IiBzdHJva2U9IiNjY2MiIHN0cm9rZS13aWR0aD0iMS4zIiBmaWxsPSJub25lIiBzdHlsZT0iIi8+PC9nPjxnIGNsYXNzPSJkaXZpZGVyIiBzdHlsZT0iIj48cGF0aCBkPSJNLTgxLjQ0NTgzMTI5ODgyODEyIDEzMiBDLTQxLjEwMjcwMTMyNzUwOTY5IDEzMiwgLTAuNzU5NTcxMzU2MTkxMjU4OSAxMzIsIDgxLjQ0NTgzMTI5ODgyODEyIDEzMiBNLTgxLjQ0NTgzMTI5ODgyODEyIDEzMiBDLTMyLjM4MzQxNjE4ODY3MDM3IDEzMiwgMTYuNjc4OTk4OTIxNDg3MzkgMTMyLCA4MS40NDU4MzEyOTg4MjgxMiAxMzIiIHN0cm9rZT0iI2NjYyIgc3Ryb2tlLXdpZHRoPSIxLjMiIGZpbGw9Im5vbmUiIHN0eWxlPSIiLz48L2c+PC9nPjxnIGNsYXNzPSJub2RlIGRlZmF1bHQiIGlkPSJjbGFzc0lkLUVxdWlwbWVudFR5cGUtODMiIHRyYW5zZm9ybT0idHJhbnNsYXRlKDIxMzEuODQ5OTk4NDc0MTIxLCAxNjQpIj48ZyBjbGFzcz0iYmFzaWMgbGFiZWwtY29udGFpbmVyIj48cGF0aCBkPSJNLTg4LjUxNjY3MDIyNzA1MDc4IC0xMzIgTDg4LjUxNjY3MDIyNzA1MDc4IC0xMzIgTDg4LjUxNjY3MDIyNzA1MDc4IDEzMiBMLTg4LjUxNjY3MDIyNzA1MDc4IDEzMiIgc3Ryb2tlPSJub25lIiBzdHJva2Utd2lkdGg9IjAiIGZpbGw9IiMxZjIwMjAiIHN0eWxlPSIiLz48cGF0aCBkPSJNLTg4LjUxNjY3MDIyNzA1MDc4IC0xMzIgQy0zNy44OTIzOTE0MjEwOTM2NTYgLTEzMiwgMTIuNzMxODg3Mzg0ODYzNDcgLTEzMiwgODguNTE2NjcwMjI3MDUwNzggLTEzMiBNLTg4LjUxNjY3MDIyNzA1MDc4IC0xMzIgQy0yOC4xMTU5NDM5NzAxMzQ5MiAtMTMyLCAzMi4yODQ3ODIyODY3ODA5NCAtMTMyLCA4OC41MTY2NzAyMjcwNTA3OCAtMTMyIE04OC41MTY2NzAyMjcwNTA3OCAtMTMyIEM4OC41MTY2NzAyMjcwNTA3OCAtNzUuNTM3MDc3MjUxNjMxMzksIDg4LjUxNjY3MDIyNzA1MDc4IC0xOS4wNzQxNTQ1MDMyNjI3OSwgODguNTE2NjcwMjI3MDUwNzggMTMyIE04OC41MTY2NzAyMjcwNTA3OCAtMTMyIEM4OC41MTY2NzAyMjcwNTA3OCAtNDQuOTEyMTUwMTI3ODcwOCwgODguNTE2NjcwMjI3MDUwNzggNDIuMTc1Njk5NzQ0MjU4Mzk1LCA4OC41MTY2NzAyMjcwNTA3OCAxMzIgTTg4LjUxNjY3MDIyNzA1MDc4IDEzMiBDMzcuMzYzMDE0NjcxNzI2NDggMTMyLCAtMTMuNzkwNjQwODgzNTk3ODE3IDEzMiwgLTg4LjUxNjY3MDIyNzA1MDc4IDEzMiBNODguNTE2NjcwMjI3MDUwNzggMTMyIEM0OC44MjA4NzcxNzA3OTE0NyAxMzIsIDkuMTI1MDg0MTE0NTMyMTU3IDEzMiwgLTg4LjUxNjY3MDIyNzA1MDc4IDEzMiBNLTg4LjUxNjY3MDIyNzA1MDc4IDEzMiBDLTg4LjUxNjY3MDIyNzA1MDc4IDQwLjU1ODk3Mzc1Nzc4NDUxNCwgLTg4LjUxNjY3MDIyNzA1MDc4IC01MC44ODIwNTI0ODQ0MzA5NywgLTg4LjUxNjY3MDIyNzA1MDc4IC0xMzIgTS04OC41MTY2NzAyMjcwNTA3OCAxMzIgQy04OC41MTY2NzAyMjcwNTA3OCA0MC41NzQ5ODY1OTE5Nzg2NiwgLTg4LjUxNjY3MDIyNzA1MDc4IC01MC44NTAwMjY4MTYwNDI2ODYsIC04OC41MTY2NzAyMjcwNTA3OCAtMTMyIiBzdHJva2U9IiNjY2MiIHN0cm9rZS13aWR0aD0iMS4zIiBmaWxsPSJub25lIiBzdHlsZT0iIi8+PC9nPjxnIGNsYXNzPSJhbm5vdGF0aW9uLWdyb3VwIHRleHQiIHRyYW5zZm9ybT0idHJhbnNsYXRlKC01My45NDE2NjU2NDk0MTQwNiwgLTEwOCkiPjxnIGNsYXNzPSJsYWJlbCIgc3R5bGU9IiIgdHJhbnNmb3JtPSJ0cmFuc2xhdGUoMCwtMTIpIj48Zm9yZWlnbk9iamVjdCB3aWR0aD0iMTA3Ljg4MzMzMTI5ODgyODEyIiBoZWlnaHQ9IjI0Ij48ZGl2IHhtbG5zPSJodHRwOi8vd3d3LnczLm9yZy8xOTk5L3hodG1sIiBzdHlsZT0iZGlzcGxheTogdGFibGUtY2VsbDsgd2hpdGUtc3BhY2U6IG5vd3JhcDsgbGluZS1oZWlnaHQ6IDEuNTsgbWF4LXdpZHRoOiAxNTZweDsgdGV4dC1hbGlnbjogY2VudGVyOyI+PHNwYW4gY2xhc3M9Im5vZGVMYWJlbCBtYXJrZG93bi1ub2RlLWxhYmVsIiBzdHlsZT0iIj48cD7Cq2VudW1lcmF0aW9uwrs8L3A+PC9zcGFuPjwvZGl2PjwvZm9yZWlnbk9iamVjdD48L2c+PC9nPjxnIGNsYXNzPSJsYWJlbC1ncm91cCB0ZXh0IiB0cmFuc2Zvcm09InRyYW5zbGF0ZSgtNTguMTgzMzM0MzUwNTg1OTQsIC04NCkiPjxnIGNsYXNzPSJsYWJlbCIgc3R5bGU9ImZvbnQtd2VpZ2h0OiBib2xkZXIiIHRyYW5zZm9ybT0idHJhbnNsYXRlKDAsLTEyKSI+PGZvcmVpZ25PYmplY3Qgd2lkdGg9IjExNi4zNjY2Njg3MDExNzE4OCIgaGVpZ2h0PSIyNCI+PGRpdiB4bWxucz0iaHR0cDovL3d3dy53My5vcmcvMTk5OS94aHRtbCIgc3R5bGU9ImRpc3BsYXk6IHRhYmxlLWNlbGw7IHdoaXRlLXNwYWNlOiBub3dyYXA7IGxpbmUtaGVpZ2h0OiAxLjU7IG1heC13aWR0aDogMTU5cHg7IHRleHQtYWxpZ246IGNlbnRlcjsiPjxzcGFuIGNsYXNzPSJub2RlTGFiZWwgbWFya2Rvd24tbm9kZS1sYWJlbCIgc3R5bGU9IiI+PHA+RXF1aXBtZW50VHlwZTwvcD48L3NwYW4+PC9kaXY+PC9mb3JlaWduT2JqZWN0PjwvZz48L2c+PGcgY2xhc3M9Im1lbWJlcnMtZ3JvdXAgdGV4dCIgdHJhbnNmb3JtPSJ0cmFuc2xhdGUoLTc2LjUxNjY3MDIyNzA1MDc4LCAtMzYpIj48ZyBjbGFzcz0ibGFiZWwiIHN0eWxlPSIiIHRyYW5zZm9ybT0idHJhbnNsYXRlKDAsLTEyKSI+PGZvcmVpZ25PYmplY3Qgd2lkdGg9IjY3Ljk0OTk5Njk0ODI0MjE5IiBoZWlnaHQ9IjI0Ij48ZGl2IHhtbG5zPSJodHRwOi8vd3d3LnczLm9yZy8xOTk5L3hodG1sIiBzdHlsZT0iZGlzcGxheTogdGFibGUtY2VsbDsgd2hpdGUtc3BhY2U6IG5vd3JhcDsgbGluZS1oZWlnaHQ6IDEuNTsgbWF4LXdpZHRoOiAxMTdweDsgdGV4dC1hbGlnbjogY2VudGVyOyI+PHNwYW4gY2xhc3M9Im5vZGVMYWJlbCBtYXJrZG93bi1ub2RlLWxhYmVsIiBzdHlsZT0iIj48cD5GT1JLTElGVDwvcD48L3NwYW4+PC9kaXY+PC9mb3JlaWduT2JqZWN0PjwvZz48ZyBjbGFzcz0ibGFiZWwiIHN0eWxlPSIiIHRyYW5zZm9ybT0idHJhbnNsYXRlKDAsMTIpIj48Zm9yZWlnbk9iamVjdCB3aWR0aD0iOTQuODUwMDA2MTAzNTE1NjIiIGhlaWdodD0iMjQiPjxkaXYgeG1sbnM9Imh0dHA6Ly93d3cudzMub3JnLzE5OTkveGh0bWwiIHN0eWxlPSJkaXNwbGF5OiB0YWJsZS1jZWxsOyB3aGl0ZS1zcGFjZTogbm93cmFwOyBsaW5lLWhlaWdodDogMS41OyBtYXgtd2lkdGg6IDE0MXB4OyB0ZXh0LWFsaWduOiBjZW50ZXI7Ij48c3BhbiBjbGFzcz0ibm9kZUxhYmVsIG1hcmtkb3duLW5vZGUtbGFiZWwiIHN0eWxlPSIiPjxwPlBBTExFVF9KQUNLPC9wPjwvc3Bhbj48L2Rpdj48L2ZvcmVpZ25PYmplY3Q+PC9nPjxnIGNsYXNzPSJsYWJlbCIgc3R5bGU9IiIgdHJhbnNmb3JtPSJ0cmFuc2xhdGUoMCwzNikiPjxmb3JlaWduT2JqZWN0IHdpZHRoPSIyOS42NDk5OTM4OTY0ODQzNzUiIGhlaWdodD0iMjQiPjxkaXYgeG1sbnM9Imh0dHA6Ly93d3cudzMub3JnLzE5OTkveGh0bWwiIHN0eWxlPSJkaXNwbGF5OiB0YWJsZS1jZWxsOyB3aGl0ZS1zcGFjZTogbm93cmFwOyBsaW5lLWhlaWdodDogMS41OyBtYXgtd2lkdGg6IDgxcHg7IHRleHQtYWxpZ246IGNlbnRlcjsiPjxzcGFuIGNsYXNzPSJub2RlTGFiZWwgbWFya2Rvd24tbm9kZS1sYWJlbCIgc3R5bGU9IiI+PHA+QUdWPC9wPjwvc3Bhbj48L2Rpdj48L2ZvcmVpZ25PYmplY3Q+PC9nPjxnIGNsYXNzPSJsYWJlbCIgc3R5bGU9IiIgdHJhbnNmb3JtPSJ0cmFuc2xhdGUoMCw2MCkiPjxmb3JlaWduT2JqZWN0IHdpZHRoPSI3Ny43NjY2NjI1OTc2NTYyNSIgaGVpZ2h0PSIyNCI+PGRpdiB4bWxucz0iaHR0cDovL3d3dy53My5vcmcvMTk5OS94aHRtbCIgc3R5bGU9ImRpc3BsYXk6IHRhYmxlLWNlbGw7IHdoaXRlLXNwYWNlOiBub3dyYXA7IGxpbmUtaGVpZ2h0OiAxLjU7IG1heC13aWR0aDogMTMxcHg7IHRleHQtYWxpZ246IGNlbnRlcjsiPjxzcGFuIGNsYXNzPSJub2RlTGFiZWwgbWFya2Rvd24tbm9kZS1sYWJlbCIgc3R5bGU9IiI+PHA+Q09OVkVZT1I8L3A+PC9zcGFuPjwvZGl2PjwvZm9yZWlnbk9iamVjdD48L2c+PGcgY2xhc3M9ImxhYmVsIiBzdHlsZT0iIiB0cmFuc2Zvcm09InRyYW5zbGF0ZSgwLDg0KSI+PGZvcmVpZ25PYmplY3Qgd2lkdGg9IjQ3LjEwMDAwNjEwMzUxNTYyNSIgaGVpZ2h0PSIyNCI+PGRpdiB4bWxucz0iaHR0cDovL3d3dy53My5vcmcvMTk5OS94aHRtbCIgc3R5bGU9ImRpc3BsYXk6IHRhYmxlLWNlbGw7IHdoaXRlLXNwYWNlOiBub3dyYXA7IGxpbmUtaGVpZ2h0OiAxLjU7IG1heC13aWR0aDogMTAwcHg7IHRleHQtYWxpZ246IGNlbnRlcjsiPjxzcGFuIGNsYXNzPSJub2RlTGFiZWwgbWFya2Rvd24tbm9kZS1sYWJlbCIgc3R5bGU9IiI+PHA+Q1JBTkU8L3A+PC9zcGFuPjwvZGl2PjwvZm9yZWlnbk9iamVjdD48L2c+PGcgY2xhc3M9ImxhYmVsIiBzdHlsZT0iIiB0cmFuc2Zvcm09InRyYW5zbGF0ZSgwLDEwOCkiPjxmb3JlaWduT2JqZWN0IHdpZHRoPSI1NC4yODMzNDA0NTQxMDE1NiIgaGVpZ2h0PSIyNCI+PGRpdiB4bWxucz0iaHR0cDovL3d3dy53My5vcmcvMTk5OS94aHRtbCIgc3R5bGU9ImRpc3BsYXk6IHRhYmxlLWNlbGw7IHdoaXRlLXNwYWNlOiBub3dyYXA7IGxpbmUtaGVpZ2h0OiAxLjU7IG1heC13aWR0aDogMTA5cHg7IHRleHQtYWxpZ246IGNlbnRlcjsiPjxzcGFuIGNsYXNzPSJub2RlTGFiZWwgbWFya2Rvd24tbm9kZS1sYWJlbCIgc3R5bGU9IiI+PHA+U0VOU09SPC9wPjwvc3Bhbj48L2Rpdj48L2ZvcmVpZ25PYmplY3Q+PC9nPjwvZz48ZyBjbGFzcz0ibWV0aG9kcy1ncm91cCB0ZXh0IiB0cmFuc2Zvcm09InRyYW5zbGF0ZSgtNzYuNTE2NjcwMjI3MDUwNzgsIDEzMikiLz48ZyBjbGFzcz0iZGl2aWRlciIgc3R5bGU9IiI+PHBhdGggZD0iTS04OC41MTY2NzAyMjcwNTA3OCAtNjAgQy0yOS43NTQ2NTE0MTc1OTg5OTMgLTYwLCAyOS4wMDczNjczOTE4NTI3OTYgLTYwLCA4OC41MTY2NzAyMjcwNTA3OCAtNjAgTS04OC41MTY2NzAyMjcwNTA3OCAtNjAgQy0zOS41OTM3NDQzNzc2NDcwNiAtNjAsIDkuMzI5MTgxNDcxNzU2NjU1IC02MCwgODguNTE2NjcwMjI3MDUwNzggLTYwIiBzdHJva2U9IiNjY2MiIHN0cm9rZS13aWR0aD0iMS4zIiBmaWxsPSJub25lIiBzdHlsZT0iIi8+PC9nPjxnIGNsYXNzPSJkaXZpZGVyIiBzdHlsZT0iIj48cGF0aCBkPSJNLTg4LjUxNjY3MDIyNzA1MDc4IDEwOCBDLTMxLjc0MzkxMjQ3NzgzMzk0NSAxMDgsIDI1LjAyODg0NTI3MTM4Mjg5IDEwOCwgODguNTE2NjcwMjI3MDUwNzggMTA4IE0tODguNTE2NjcwMjI3MDUwNzggMTA4IEMtNDcuMjUyNzIwNzg5NTcwMjI2IDEwOCwgLTUuOTg4NzcxMzUyMDg5NjcxIDEwOCwgODguNTE2NjcwMjI3MDUwNzggMTA4IiBzdHJva2U9IiNjY2MiIHN0cm9rZS13aWR0aD0iMS4zIiBmaWxsPSJub25lIiBzdHlsZT0iIi8+PC9nPjwvZz48ZyBjbGFzcz0ibm9kZSBkZWZhdWx0IiBpZD0iY2xhc3NJZC1CaW5TdGF0dXMtODQiIHRyYW5zZm9ybT0idHJhbnNsYXRlKDIzNTkuOTg3NTAzMDUxNzU4LCAxNjQpIj48ZyBjbGFzcz0iYmFzaWMgbGFiZWwtY29udGFpbmVyIj48cGF0aCBkPSJNLTg5LjYyMDgzNDM1MDU4NTk0IC0xMjAgTDg5LjYyMDgzNDM1MDU4NTk0IC0xMjAgTDg5LjYyMDgzNDM1MDU4NTk0IDEyMCBMLTg5LjYyMDgzNDM1MDU4NTk0IDEyMCIgc3Ryb2tlPSJub25lIiBzdHJva2Utd2lkdGg9IjAiIGZpbGw9IiMxZjIwMjAiIHN0eWxlPSIiLz48cGF0aCBkPSJNLTg5LjYyMDgzNDM1MDU4NTk0IC0xMjAgQy00NS4wMzYxMDAyMzE2ODE0OTUgLTEyMCwgLTAuNDUxMzY2MTEyNzc3MDUxODUgLTEyMCwgODkuNjIwODM0MzUwNTg1OTQgLTEyMCBNLTg5LjYyMDgzNDM1MDU4NTk0IC0xMjAgQy0yOS40MjIyMzQ4MTE5Mzg2NjUgLTEyMCwgMzAuNzc2MzY0NzI2NzA4NjA3IC0xMjAsIDg5LjYyMDgzNDM1MDU4NTk0IC0xMjAgTTg5LjYyMDgzNDM1MDU4NTk0IC0xMjAgQzg5LjYyMDgzNDM1MDU4NTk0IC01OC43MTU4NTY1MTAxMzQxNSwgODkuNjIwODM0MzUwNTg1OTQgMi41NjgyODY5Nzk3MzE2OTU0LCA4OS42MjA4MzQzNTA1ODU5NCAxMjAgTTg5LjYyMDgzNDM1MDU4NTk0IC0xMjAgQzg5LjYyMDgzNDM1MDU4NTk0IC02MC45MjIyMTY3NTk5OTI5NCwgODkuNjIwODM0MzUwNTg1OTQgLTEuODQ0NDMzNTE5OTg1ODg0MSwgODkuNjIwODM0MzUwNTg1OTQgMTIwIE04OS42MjA4MzQzNTA1ODU5NCAxMjAgQzMzLjk1NDc2MTk2ODc4OTQ3IDEyMCwgLTIxLjcxMTMxMDQxMzAwNyAxMjAsIC04OS42MjA4MzQzNTA1ODU5NCAxMjAgTTg5LjYyMDgzNDM1MDU4NTk0IDEyMCBDMzIuMTA0NjUyMTAxMjQ3Mzk2IDEyMCwgLTI1LjQxMTUzMDE0ODA5MTE0NiAxMjAsIC04OS42MjA4MzQzNTA1ODU5NCAxMjAgTS04OS42MjA4MzQzNTA1ODU5NCAxMjAgQy04OS42MjA4MzQzNTA1ODU5NCA0MS41NzI5ODM1Njc1MTE2LCAtODkuNjIwODM0MzUwNTg1OTQgLTM2Ljg1NDAzMjg2NDk3NjgsIC04OS42MjA4MzQzNTA1ODU5NCAtMTIwIE0tODkuNjIwODM0MzUwNTg1OTQgMTIwIEMtODkuNjIwODM0MzUwNTg1OTQgNTMuNzk3NzYzNTMwMzMyNTIsIC04OS42MjA4MzQzNTA1ODU5NCAtMTIuNDA0NDcyOTM5MzM0OTY2LCAtODkuNjIwODM0MzUwNTg1OTQgLTEyMCIgc3Ryb2tlPSIjY2NjIiBzdHJva2Utd2lkdGg9IjEuMyIgZmlsbD0ibm9uZSIgc3R5bGU9IiIvPjwvZz48ZyBjbGFzcz0iYW5ub3RhdGlvbi1ncm91cCB0ZXh0IiB0cmFuc2Zvcm09InRyYW5zbGF0ZSgtNTMuOTQxNjY1NjQ5NDE0MDYsIC05NikiPjxnIGNsYXNzPSJsYWJlbCIgc3R5bGU9IiIgdHJhbnNmb3JtPSJ0cmFuc2xhdGUoMCwtMTIpIj48Zm9yZWlnbk9iamVjdCB3aWR0aD0iMTA3Ljg4MzMzMTI5ODgyODEyIiBoZWlnaHQ9IjI0Ij48ZGl2IHhtbG5zPSJodHRwOi8vd3d3LnczLm9yZy8xOTk5L3hodG1sIiBzdHlsZT0iZGlzcGxheTogdGFibGUtY2VsbDsgd2hpdGUtc3BhY2U6IG5vd3JhcDsgbGluZS1oZWlnaHQ6IDEuNTsgbWF4LXdpZHRoOiAxNTZweDsgdGV4dC1hbGlnbjogY2VudGVyOyI+PHNwYW4gY2xhc3M9Im5vZGVMYWJlbCBtYXJrZG93bi1ub2RlLWxhYmVsIiBzdHlsZT0iIj48cD7Cq2VudW1lcmF0aW9uwrs8L3A+PC9zcGFuPjwvZGl2PjwvZm9yZWlnbk9iamVjdD48L2c+PC9nPjxnIGNsYXNzPSJsYWJlbC1ncm91cCB0ZXh0IiB0cmFuc2Zvcm09InRyYW5zbGF0ZSgtMzQuNzMzMzI5NzcyOTQ5MjIsIC03MikiPjxnIGNsYXNzPSJsYWJlbCIgc3R5bGU9ImZvbnQtd2VpZ2h0OiBib2xkZXIiIHRyYW5zZm9ybT0idHJhbnNsYXRlKDAsLTEyKSI+PGZvcmVpZ25PYmplY3Qgd2lkdGg9IjY5LjQ2NjY1OTU0NTg5ODQ0IiBoZWlnaHQ9IjI0Ij48ZGl2IHhtbG5zPSJodHRwOi8vd3d3LnczLm9yZy8xOTk5L3hodG1sIiBzdHlsZT0iZGlzcGxheTogdGFibGUtY2VsbDsgd2hpdGUtc3BhY2U6IG5vd3JhcDsgbGluZS1oZWlnaHQ6IDEuNTsgbWF4LXdpZHRoOiAxMTVweDsgdGV4dC1hbGlnbjogY2VudGVyOyI+PHNwYW4gY2xhc3M9Im5vZGVMYWJlbCBtYXJrZG93bi1ub2RlLWxhYmVsIiBzdHlsZT0iIj48cD5CaW5TdGF0dXM8L3A+PC9zcGFuPjwvZGl2PjwvZm9yZWlnbk9iamVjdD48L2c+PC9nPjxnIGNsYXNzPSJtZW1iZXJzLWdyb3VwIHRleHQiIHRyYW5zZm9ybT0idHJhbnNsYXRlKC03Ny42MjA4MzQzNTA1ODU5NCwgLTI0KSI+PGcgY2xhc3M9ImxhYmVsIiBzdHlsZT0iIiB0cmFuc2Zvcm09InRyYW5zbGF0ZSgwLC0xMikiPjxmb3JlaWduT2JqZWN0IHdpZHRoPSI3Mi45MzMzMzQzNTA1ODU5NCIgaGVpZ2h0PSIyNCI+PGRpdiB4bWxucz0iaHR0cDovL3d3dy53My5vcmcvMTk5OS94aHRtbCIgc3R5bGU9ImRpc3BsYXk6IHRhYmxlLWNlbGw7IHdoaXRlLXNwYWNlOiBub3dyYXA7IGxpbmUtaGVpZ2h0OiAxLjU7IG1heC13aWR0aDogMTI2cHg7IHRleHQtYWxpZ246IGNlbnRlcjsiPjxzcGFuIGNsYXNzPSJub2RlTGFiZWwgbWFya2Rvd24tbm9kZS1sYWJlbCIgc3R5bGU9IiI+PHA+QVZBSUxBQkxFPC9wPjwvc3Bhbj48L2Rpdj48L2ZvcmVpZ25PYmplY3Q+PC9nPjxnIGNsYXNzPSJsYWJlbCIgc3R5bGU9IiIgdHJhbnNmb3JtPSJ0cmFuc2xhdGUoMCwxMikiPjxmb3JlaWduT2JqZWN0IHdpZHRoPSI3Mi4wNTAwMDMwNTE3NTc4MSIgaGVpZ2h0PSIyNCI+PGRpdiB4bWxucz0iaHR0cDovL3d3dy53My5vcmcvMTk5OS94aHRtbCIgc3R5bGU9ImRpc3BsYXk6IHRhYmxlLWNlbGw7IHdoaXRlLXNwYWNlOiBub3dyYXA7IGxpbmUtaGVpZ2h0OiAxLjU7IG1heC13aWR0aDogMTI1cHg7IHRleHQtYWxpZ246IGNlbnRlcjsiPjxzcGFuIGNsYXNzPSJub2RlTGFiZWwgbWFya2Rvd24tbm9kZS1sYWJlbCIgc3R5bGU9IiI+PHA+T0NDVVBJRUQ8L3A+PC9zcGFuPjwvZGl2PjwvZm9yZWlnbk9iamVjdD48L2c+PGcgY2xhc3M9ImxhYmVsIiBzdHlsZT0iIiB0cmFuc2Zvcm09InRyYW5zbGF0ZSgwLDM2KSI+PGZvcmVpZ25PYmplY3Qgd2lkdGg9IjcwLjUxNjY2MjU5NzY1NjI1IiBoZWlnaHQ9IjI0Ij48ZGl2IHhtbG5zPSJodHRwOi8vd3d3LnczLm9yZy8xOTk5L3hodG1sIiBzdHlsZT0iZGlzcGxheTogdGFibGUtY2VsbDsgd2hpdGUtc3BhY2U6IG5vd3JhcDsgbGluZS1oZWlnaHQ6IDEuNTsgbWF4LXdpZHRoOiAxMjNweDsgdGV4dC1hbGlnbjogY2VudGVyOyI+PHNwYW4gY2xhc3M9Im5vZGVMYWJlbCBtYXJrZG93bi1ub2RlLWxhYmVsIiBzdHlsZT0iIj48cD5SRVNFUlZFRDwvcD48L3NwYW4+PC9kaXY+PC9mb3JlaWduT2JqZWN0PjwvZz48ZyBjbGFzcz0ibGFiZWwiIHN0eWxlPSIiIHRyYW5zZm9ybT0idHJhbnNsYXRlKDAsNjApIj48Zm9yZWlnbk9iamVjdCB3aWR0aD0iMTAxLjMwMDAwMzA1MTc1NzgxIiBoZWlnaHQ9IjI0Ij48ZGl2IHhtbG5zPSJodHRwOi8vd3d3LnczLm9yZy8xOTk5L3hodG1sIiBzdHlsZT0iZGlzcGxheTogdGFibGUtY2VsbDsgd2hpdGUtc3BhY2U6IG5vd3JhcDsgbGluZS1oZWlnaHQ6IDEuNTsgbWF4LXdpZHRoOiAxNjBweDsgdGV4dC1hbGlnbjogY2VudGVyOyI+PHNwYW4gY2xhc3M9Im5vZGVMYWJlbCBtYXJrZG93bi1ub2RlLWxhYmVsIiBzdHlsZT0iIj48cD5NQUlOVEVOQU5DRTwvcD48L3NwYW4+PC9kaXY+PC9mb3JlaWduT2JqZWN0PjwvZz48ZyBjbGFzcz0ibGFiZWwiIHN0eWxlPSIiIHRyYW5zZm9ybT0idHJhbnNsYXRlKDAsODQpIj48Zm9yZWlnbk9iamVjdCB3aWR0aD0iOTIuMTE2NjY4NzAxMTcxODgiIGhlaWdodD0iMjQiPjxkaXYgeG1sbnM9Imh0dHA6Ly93d3cudzMub3JnLzE5OTkveGh0bWwiIHN0eWxlPSJkaXNwbGF5OiB0YWJsZS1jZWxsOyB3aGl0ZS1zcGFjZTogbm93cmFwOyBsaW5lLWhlaWdodDogMS41OyBtYXgtd2lkdGg6IDE0OHB4OyB0ZXh0LWFsaWduOiBjZW50ZXI7Ij48c3BhbiBjbGFzcz0ibm9kZUxhYmVsIG1hcmtkb3duLW5vZGUtbGFiZWwiIHN0eWxlPSIiPjxwPlFVQVJBTlRJTkU8L3A+PC9zcGFuPjwvZGl2PjwvZm9yZWlnbk9iamVjdD48L2c+PC9nPjxnIGNsYXNzPSJtZXRob2RzLWdyb3VwIHRleHQiIHRyYW5zZm9ybT0idHJhbnNsYXRlKC03Ny42MjA4MzQzNTA1ODU5NCwgMTIwKSIvPjxnIGNsYXNzPSJkaXZpZGVyIiBzdHlsZT0iIj48cGF0aCBkPSJNLTg5LjYyMDgzNDM1MDU4NTk0IC00OCBDLTM4LjcwODI5MDY1NzU4NzU5IC00OCwgMTIuMjA0MjUzMDM1NDEwNzU4IC00OCwgODkuNjIwODM0MzUwNTg1OTQgLTQ4IE0tODkuNjIwODM0MzUwNTg1OTQgLTQ4IEMtNDcuMzYxNDk1NDQzOTE1MjEgLTQ4LCAtNS4xMDIxNTY1MzcyNDQ0ODMgLTQ4LCA4OS42MjA4MzQzNTA1ODU5NCAtNDgiIHN0cm9rZT0iI2NjYyIgc3Ryb2tlLXdpZHRoPSIxLjMiIGZpbGw9Im5vbmUiIHN0eWxlPSIiLz48L2c+PGcgY2xhc3M9ImRpdmlkZXIiIHN0eWxlPSIiPjxwYXRoIGQ9Ik0tODkuNjIwODM0MzUwNTg1OTQgOTYgQy0zMS45NDE5NDIwNTY2ODY4NzcgOTYsIDI1LjczNjk1MDIzNzIxMjE4NCA5NiwgODkuNjIwODM0MzUwNTg1OTQgOTYgTS04OS42MjA4MzQzNTA1ODU5NCA5NiBDLTQwLjgwMDk1Nzk4ODgyMTc1IDk2LCA4LjAxODkxODM3Mjk0MjQzNyA5NiwgODkuNjIwODM0MzUwNTg1OTQgOTYiIHN0cm9rZT0iI2NjYyIgc3Ryb2tlLXdpZHRoPSIxLjMiIGZpbGw9Im5vbmUiIHN0eWxlPSIiLz48L2c+PC9nPjxnIGNsYXNzPSJub2RlIGRlZmF1bHQiIGlkPSJjbGFzc0lkLVRhc2tQcmlvcml0eS04NSIgdHJhbnNmb3JtPSJ0cmFuc2xhdGUoMjU3MC42NjI1MDYxMDM1MTU2LCAxNjQpIj48ZyBjbGFzcz0iYmFzaWMgbGFiZWwtY29udGFpbmVyIj48cGF0aCBkPSJNLTcxLjA1NDE2ODcwMTE3MTg4IC0xMDggTDcxLjA1NDE2ODcwMTE3MTg4IC0xMDggTDcxLjA1NDE2ODcwMTE3MTg4IDEwOCBMLTcxLjA1NDE2ODcwMTE3MTg4IDEwOCIgc3Ryb2tlPSJub25lIiBzdHJva2Utd2lkdGg9IjAiIGZpbGw9IiMxZjIwMjAiIHN0eWxlPSIiLz48cGF0aCBkPSJNLTcxLjA1NDE2ODcwMTE3MTg4IC0xMDggQy0xOC40MDg0NTQyNzY2NDYyMzIgLTEwOCwgMzQuMjM3MjYwMTQ3ODc5NDEgLTEwOCwgNzEuMDU0MTY4NzAxMTcxODggLTEwOCBNLTcxLjA1NDE2ODcwMTE3MTg4IC0xMDggQy0xNS41ODgyNjE1OTI5MDI2NDcgLTEwOCwgMzkuODc3NjQ1NTE1MzY2NTggLTEwOCwgNzEuMDU0MTY4NzAxMTcxODggLTEwOCBNNzEuMDU0MTY4NzAxMTcxODggLTEwOCBDNzEuMDU0MTY4NzAxMTcxODggLTI5LjY5Mjk1ODUxOTEyOTY3NSwgNzEuMDU0MTY4NzAxMTcxODggNDguNjE0MDgyOTYxNzQwNjUsIDcxLjA1NDE2ODcwMTE3MTg4IDEwOCBNNzEuMDU0MTY4NzAxMTcxODggLTEwOCBDNzEuMDU0MTY4NzAxMTcxODggLTQyLjI4NTU1MzQ3ODcwMjg0LCA3MS4wNTQxNjg3MDExNzE4OCAyMy40Mjg4OTMwNDI1OTQzMjUsIDcxLjA1NDE2ODcwMTE3MTg4IDEwOCBNNzEuMDU0MTY4NzAxMTcxODggMTA4IEMyNC4yNzkxODU2MTEzMjA0NTcgMTA4LCAtMjIuNDk1Nzk3NDc4NTMwOTYgMTA4LCAtNzEuMDU0MTY4NzAxMTcxODggMTA4IE03MS4wNTQxNjg3MDExNzE4OCAxMDggQzQxLjY3MDU4MzA4NzI4OTc4IDEwOCwgMTIuMjg2OTk3NDczNDA3NjggMTA4LCAtNzEuMDU0MTY4NzAxMTcxODggMTA4IE0tNzEuMDU0MTY4NzAxMTcxODggMTA4IEMtNzEuMDU0MTY4NzAxMTcxODggNjQuMDcxMTcxODQ5OTY3OTEsIC03MS4wNTQxNjg3MDExNzE4OCAyMC4xNDIzNDM2OTk5MzU4MiwgLTcxLjA1NDE2ODcwMTE3MTg4IC0xMDggTS03MS4wNTQxNjg3MDExNzE4OCAxMDggQy03MS4wNTQxNjg3MDExNzE4OCA1NS4yOTI0NDU0ODkzNDE5MywgLTcxLjA1NDE2ODcwMTE3MTg4IDIuNTg0ODkwOTc4NjgzODU5LCAtNzEuMDU0MTY4NzAxMTcxODggLTEwOCIgc3Ryb2tlPSIjY2NjIiBzdHJva2Utd2lkdGg9IjEuMyIgZmlsbD0ibm9uZSIgc3R5bGU9IiIvPjwvZz48ZyBjbGFzcz0iYW5ub3RhdGlvbi1ncm91cCB0ZXh0IiB0cmFuc2Zvcm09InRyYW5zbGF0ZSgtNTMuOTQxNjY1NjQ5NDE0MDYsIC04NCkiPjxnIGNsYXNzPSJsYWJlbCIgc3R5bGU9IiIgdHJhbnNmb3JtPSJ0cmFuc2xhdGUoMCwtMTIpIj48Zm9yZWlnbk9iamVjdCB3aWR0aD0iMTA3Ljg4MzMzMTI5ODgyODEyIiBoZWlnaHQ9IjI0Ij48ZGl2IHhtbG5zPSJodHRwOi8vd3d3LnczLm9yZy8xOTk5L3hodG1sIiBzdHlsZT0iZGlzcGxheTogdGFibGUtY2VsbDsgd2hpdGUtc3BhY2U6IG5vd3JhcDsgbGluZS1oZWlnaHQ6IDEuNTsgbWF4LXdpZHRoOiAxNTZweDsgdGV4dC1hbGlnbjogY2VudGVyOyI+PHNwYW4gY2xhc3M9Im5vZGVMYWJlbCBtYXJrZG93bi1ub2RlLWxhYmVsIiBzdHlsZT0iIj48cD7Cq2VudW1lcmF0aW9uwrs8L3A+PC9zcGFuPjwvZGl2PjwvZm9yZWlnbk9iamVjdD48L2c+PC9nPjxnIGNsYXNzPSJsYWJlbC1ncm91cCB0ZXh0IiB0cmFuc2Zvcm09InRyYW5zbGF0ZSgtNDQuMzQ5OTk4NDc0MTIxMDk0LCAtNjApIj48ZyBjbGFzcz0ibGFiZWwiIHN0eWxlPSJmb250LXdlaWdodDogYm9sZGVyIiB0cmFuc2Zvcm09InRyYW5zbGF0ZSgwLC0xMikiPjxmb3JlaWduT2JqZWN0IHdpZHRoPSI4OC42OTk5OTY5NDgyNDIxOSIgaGVpZ2h0PSIyNCI+PGRpdiB4bWxucz0iaHR0cDovL3d3dy53My5vcmcvMTk5OS94aHRtbCIgc3R5bGU9ImRpc3BsYXk6IHRhYmxlLWNlbGw7IHdoaXRlLXNwYWNlOiBub3dyYXA7IGxpbmUtaGVpZ2h0OiAxLjU7IG1heC13aWR0aDogMTMwcHg7IHRleHQtYWxpZ246IGNlbnRlcjsiPjxzcGFuIGNsYXNzPSJub2RlTGFiZWwgbWFya2Rvd24tbm9kZS1sYWJlbCIgc3R5bGU9IiI+PHA+VGFza1ByaW9yaXR5PC9wPjwvc3Bhbj48L2Rpdj48L2ZvcmVpZ25PYmplY3Q+PC9nPjwvZz48ZyBjbGFzcz0ibWVtYmVycy1ncm91cCB0ZXh0IiB0cmFuc2Zvcm09InRyYW5zbGF0ZSgtNTkuMDU0MTY4NzAxMTcxODc1LCAtMTIpIj48ZyBjbGFzcz0ibGFiZWwiIHN0eWxlPSIiIHRyYW5zZm9ybT0idHJhbnNsYXRlKDAsLTEyKSI+PGZvcmVpZ25PYmplY3Qgd2lkdGg9IjY0LjE2NjY3MTc1MjkyOTY5IiBoZWlnaHQ9IjI0Ij48ZGl2IHhtbG5zPSJodHRwOi8vd3d3LnczLm9yZy8xOTk5L3hodG1sIiBzdHlsZT0iZGlzcGxheTogdGFibGUtY2VsbDsgd2hpdGUtc3BhY2U6IG5vd3JhcDsgbGluZS1oZWlnaHQ6IDEuNTsgbWF4LXdpZHRoOiAxMTRweDsgdGV4dC1hbGlnbjogY2VudGVyOyI+PHNwYW4gY2xhc3M9Im5vZGVMYWJlbCBtYXJrZG93bi1ub2RlLWxhYmVsIiBzdHlsZT0iIj48cD5DUklUSUNBTDwvcD48L3NwYW4+PC9kaXY+PC9mb3JlaWduT2JqZWN0PjwvZz48ZyBjbGFzcz0ibGFiZWwiIHN0eWxlPSIiIHRyYW5zZm9ybT0idHJhbnNsYXRlKDAsMTIpIj48Zm9yZWlnbk9iamVjdCB3aWR0aD0iMzYuMTk5OTk2OTQ4MjQyMTkiIGhlaWdodD0iMjQiPjxkaXYgeG1sbnM9Imh0dHA6Ly93d3cudzMub3JnLzE5OTkveGh0bWwiIHN0eWxlPSJkaXNwbGF5OiB0YWJsZS1jZWxsOyB3aGl0ZS1zcGFjZTogbm93cmFwOyBsaW5lLWhlaWdodDogMS41OyBtYXgtd2lkdGg6IDg4cHg7IHRleHQtYWxpZ246IGNlbnRlcjsiPjxzcGFuIGNsYXNzPSJub2RlTGFiZWwgbWFya2Rvd24tbm9kZS1sYWJlbCIgc3R5bGU9IiI+PHA+SElHSDwvcD48L3NwYW4+PC9kaXY+PC9mb3JlaWduT2JqZWN0PjwvZz48ZyBjbGFzcz0ibGFiZWwiIHN0eWxlPSIiIHRyYW5zZm9ybT0idHJhbnNsYXRlKDAsMzYpIj48Zm9yZWlnbk9iamVjdCB3aWR0aD0iNTUuOTE2NjcxNzUyOTI5NjkiIGhlaWdodD0iMjQiPjxkaXYgeG1sbnM9Imh0dHA6Ly93d3cudzMub3JnLzE5OTkveGh0bWwiIHN0eWxlPSJkaXNwbGF5OiB0YWJsZS1jZWxsOyB3aGl0ZS1zcGFjZTogbm93cmFwOyBsaW5lLWhlaWdodDogMS41OyBtYXgtd2lkdGg6IDExM3B4OyB0ZXh0LWFsaWduOiBjZW50ZXI7Ij48c3BhbiBjbGFzcz0ibm9kZUxhYmVsIG1hcmtkb3duLW5vZGUtbGFiZWwiIHN0eWxlPSIiPjxwPk1FRElVTTwvcD48L3NwYW4+PC9kaXY+PC9mb3JlaWduT2JqZWN0PjwvZz48ZyBjbGFzcz0ibGFiZWwiIHN0eWxlPSIiIHRyYW5zZm9ybT0idHJhbnNsYXRlKDAsNjApIj48Zm9yZWlnbk9iamVjdCB3aWR0aD0iMzIuNTE2NjYyNTk3NjU2MjUiIGhlaWdodD0iMjQiPjxkaXYgeG1sbnM9Imh0dHA6Ly93d3cudzMub3JnLzE5OTkveGh0bWwiIHN0eWxlPSJkaXNwbGF5OiB0YWJsZS1jZWxsOyB3aGl0ZS1zcGFjZTogbm93cmFwOyBsaW5lLWhlaWdodDogMS41OyBtYXgtd2lkdGg6IDg0cHg7IHRleHQtYWxpZ246IGNlbnRlcjsiPjxzcGFuIGNsYXNzPSJub2RlTGFiZWwgbWFya2Rvd24tbm9kZS1sYWJlbCIgc3R5bGU9IiI+PHA+TE9XPC9wPjwvc3Bhbj48L2Rpdj48L2ZvcmVpZ25PYmplY3Q+PC9nPjwvZz48ZyBjbGFzcz0ibWV0aG9kcy1ncm91cCB0ZXh0IiB0cmFuc2Zvcm09InRyYW5zbGF0ZSgtNTkuMDU0MTY4NzAxMTcxODc1LCAxMDgpIi8+PGcgY2xhc3M9ImRpdmlkZXIiIHN0eWxlPSIiPjxwYXRoIGQ9Ik0tNzEuMDU0MTY4NzAxMTcxODggLTM2IEMtMTguNjg2MDQ2MjY5NTAzODQgLTM2LCAzMy42ODIwNzYxNjIxNjQxOSAtMzYsIDcxLjA1NDE2ODcwMTE3MTg4IC0zNiBNLTcxLjA1NDE2ODcwMTE3MTg4IC0zNiBDLTMzLjE2OTA0NDYzMTEyNjY3IC0zNiwgNC43MTYwNzk0Mzg5MTg1NDEgLTM2LCA3MS4wNTQxNjg3MDExNzE4OCAtMzYiIHN0cm9rZT0iI2NjYyIgc3Ryb2tlLXdpZHRoPSIxLjMiIGZpbGw9Im5vbmUiIHN0eWxlPSIiLz48L2c+PGcgY2xhc3M9ImRpdmlkZXIiIHN0eWxlPSIiPjxwYXRoIGQ9Ik0tNzEuMDU0MTY4NzAxMTcxODggODQgQy0zOC4yNjU2MzAzNDA2MzcyMTYgODQsIC01LjQ3NzA5MTk4MDEwMjU1NyA4NCwgNzEuMDU0MTY4NzAxMTcxODggODQgTS03MS4wNTQxNjg3MDExNzE4OCA4NCBDLTI5LjM4MjQ5NjAwMjM5MDQ4MiA4NCwgMTIuMjg5MTc2Njk2MzkwOTEgODQsIDcxLjA1NDE2ODcwMTE3MTg4IDg0IiBzdHJva2U9IiNjY2MiIHN0cm9rZS13aWR0aD0iMS4zIiBmaWxsPSJub25lIiBzdHlsZT0iIi8+PC9nPjwvZz48ZyBjbGFzcz0ibm9kZSBkZWZhdWx0IiBpZD0iY2xhc3NJZC1Nb3ZlbWVudFJlYXNvbi04NiIgdHJhbnNmb3JtPSJ0cmFuc2xhdGUoMjgyNy4wMjA4NDM1MDU4NTk0LCAxNjQpIj48ZyBjbGFzcz0iYmFzaWMgbGFiZWwtY29udGFpbmVyIj48cGF0aCBkPSJNLTEzNS4zMDQxNjg3MDExNzE4OCAtMTIwIEwxMzUuMzA0MTY4NzAxMTcxODggLTEyMCBMMTM1LjMwNDE2ODcwMTE3MTg4IDEyMCBMLTEzNS4zMDQxNjg3MDExNzE4OCAxMjAiIHN0cm9rZT0ibm9uZSIgc3Ryb2tlLXdpZHRoPSIwIiBmaWxsPSIjMWYyMDIwIiBzdHlsZT0iIi8+PHBhdGggZD0iTS0xMzUuMzA0MTY4NzAxMTcxODggLTEyMCBDLTQ0LjQ1ODI4ODgyNTExODEzIC0xMjAsIDQ2LjM4NzU5MTA1MDkzNTYxIC0xMjAsIDEzNS4zMDQxNjg3MDExNzE4OCAtMTIwIE0tMTM1LjMwNDE2ODcwMTE3MTg4IC0xMjAgQy00Ni4zMDIzODg0ODE4NzcwNiAtMTIwLCA0Mi42OTkzOTE3Mzc0MTc3NTYgLTEyMCwgMTM1LjMwNDE2ODcwMTE3MTg4IC0xMjAgTTEzNS4zMDQxNjg3MDExNzE4OCAtMTIwIEMxMzUuMzA0MTY4NzAxMTcxODggLTU4Ljc5MTE4NTUwNjc0NTIxLCAxMzUuMzA0MTY4NzAxMTcxODggMi40MTc2Mjg5ODY1MDk1ODQsIDEzNS4zMDQxNjg3MDExNzE4OCAxMjAgTTEzNS4zMDQxNjg3MDExNzE4OCAtMTIwIEMxMzUuMzA0MTY4NzAxMTcxODggLTY5LjczNjA0MDkxNjAxLCAxMzUuMzA0MTY4NzAxMTcxODggLTE5LjQ3MjA4MTgzMjAxOTk5NSwgMTM1LjMwNDE2ODcwMTE3MTg4IDEyMCBNMTM1LjMwNDE2ODcwMTE3MTg4IDEyMCBDNTguOTE1NDY1NDc3NTg1MzE1IDEyMCwgLTE3LjQ3MzIzNzc0NjAwMTI0NiAxMjAsIC0xMzUuMzA0MTY4NzAxMTcxODggMTIwIE0xMzUuMzA0MTY4NzAxMTcxODggMTIwIEM3MS45MTIxMTU2ODY3MzIyMiAxMjAsIDguNTIwMDYyNjcyMjkyNTUzIDEyMCwgLTEzNS4zMDQxNjg3MDExNzE4OCAxMjAgTS0xMzUuMzA0MTY4NzAxMTcxODggMTIwIEMtMTM1LjMwNDE2ODcwMTE3MTg4IDMwLjgwODY2OTc3MDIxMjU3NSwgLTEzNS4zMDQxNjg3MDExNzE4OCAtNTguMzgyNjYwNDU5NTc0ODUsIC0xMzUuMzA0MTY4NzAxMTcxODggLTEyMCBNLTEzNS4zMDQxNjg3MDExNzE4OCAxMjAgQy0xMzUuMzA0MTY4NzAxMTcxODggNjcuMzczMDkwMDYxNDY4NDcsIC0xMzUuMzA0MTY4NzAxMTcxODggMTQuNzQ2MTgwMTIyOTM2OTM0LCAtMTM1LjMwNDE2ODcwMTE3MTg4IC0xMjAiIHN0cm9rZT0iI2NjYyIgc3Ryb2tlLXdpZHRoPSIxLjMiIGZpbGw9Im5vbmUiIHN0eWxlPSIiLz48L2c+PGcgY2xhc3M9ImFubm90YXRpb24tZ3JvdXAgdGV4dCIgdHJhbnNmb3JtPSJ0cmFuc2xhdGUoLTUzLjk0MTY2NTY0OTQxNDA2LCAtOTYpIj48ZyBjbGFzcz0ibGFiZWwiIHN0eWxlPSIiIHRyYW5zZm9ybT0idHJhbnNsYXRlKDAsLTEyKSI+PGZvcmVpZ25PYmplY3Qgd2lkdGg9IjEwNy44ODMzMzEyOTg4MjgxMiIgaGVpZ2h0PSIyNCI+PGRpdiB4bWxucz0iaHR0cDovL3d3dy53My5vcmcvMTk5OS94aHRtbCIgc3R5bGU9ImRpc3BsYXk6IHRhYmxlLWNlbGw7IHdoaXRlLXNwYWNlOiBub3dyYXA7IGxpbmUtaGVpZ2h0OiAxLjU7IG1heC13aWR0aDogMTU2cHg7IHRleHQtYWxpZ246IGNlbnRlcjsiPjxzcGFuIGNsYXNzPSJub2RlTGFiZWwgbWFya2Rvd24tbm9kZS1sYWJlbCIgc3R5bGU9IiI+PHA+wqtlbnVtZXJhdGlvbsK7PC9wPjwvc3Bhbj48L2Rpdj48L2ZvcmVpZ25PYmplY3Q+PC9nPjwvZz48ZyBjbGFzcz0ibGFiZWwtZ3JvdXAgdGV4dCIgdHJhbnNmb3JtPSJ0cmFuc2xhdGUoLTY1LjEwODMyOTc3Mjk0OTIyLCAtNzIpIj48ZyBjbGFzcz0ibGFiZWwiIHN0eWxlPSJmb250LXdlaWdodDogYm9sZGVyIiB0cmFuc2Zvcm09InRyYW5zbGF0ZSgwLC0xMikiPjxmb3JlaWduT2JqZWN0IHdpZHRoPSIxMzAuMjE2NjU5NTQ1ODk4NDQiIGhlaWdodD0iMjQiPjxkaXYgeG1sbnM9Imh0dHA6Ly93d3cudzMub3JnLzE5OTkveGh0bWwiIHN0eWxlPSJkaXNwbGF5OiB0YWJsZS1jZWxsOyB3aGl0ZS1zcGFjZTogbm93cmFwOyBsaW5lLWhlaWdodDogMS41OyBtYXgtd2lkdGg6IDE3N3B4OyB0ZXh0LWFsaWduOiBjZW50ZXI7Ij48c3BhbiBjbGFzcz0ibm9kZUxhYmVsIG1hcmtkb3duLW5vZGUtbGFiZWwiIHN0eWxlPSIiPjxwPk1vdmVtZW50UmVhc29uPC9wPjwvc3Bhbj48L2Rpdj48L2ZvcmVpZ25PYmplY3Q+PC9nPjwvZz48ZyBjbGFzcz0ibWVtYmVycy1ncm91cCB0ZXh0IiB0cmFuc2Zvcm09InRyYW5zbGF0ZSgtMTIzLjMwNDE2ODcwMTE3MTg4LCAtMjQpIj48ZyBjbGFzcz0ibGFiZWwiIHN0eWxlPSIiIHRyYW5zZm9ybT0idHJhbnNsYXRlKDAsLTEyKSI+PGZvcmVpZ25PYmplY3Qgd2lkdGg9Ijc1LjM1MDAwNjEwMzUxNTYyIiBoZWlnaHQ9IjI0Ij48ZGl2IHhtbG5zPSJodHRwOi8vd3d3LnczLm9yZy8xOTk5L3hodG1sIiBzdHlsZT0iZGlzcGxheTogdGFibGUtY2VsbDsgd2hpdGUtc3BhY2U6IG5vd3JhcDsgbGluZS1oZWlnaHQ6IDEuNTsgbWF4LXdpZHRoOiAxMjdweDsgdGV4dC1hbGlnbjogY2VudGVyOyI+PHNwYW4gY2xhc3M9Im5vZGVMYWJlbCBtYXJrZG93bi1ub2RlLWxhYmVsIiBzdHlsZT0iIj48cD5SRUNFSVZJTkc8L3A+PC9zcGFuPjwvZGl2PjwvZm9yZWlnbk9iamVjdD48L2c+PGcgY2xhc3M9ImxhYmVsIiBzdHlsZT0iIiB0cmFuc2Zvcm09InRyYW5zbGF0ZSgwLDEyKSI+PGZvcmVpZ25PYmplY3Qgd2lkdGg9IjU3LjYzMzMzMTI5ODgyODEyNSIgaGVpZ2h0PSIyNCI+PGRpdiB4bWxucz0iaHR0cDovL3d3dy53My5vcmcvMTk5OS94aHRtbCIgc3R5bGU9ImRpc3BsYXk6IHRhYmxlLWNlbGw7IHdoaXRlLXNwYWNlOiBub3dyYXA7IGxpbmUtaGVpZ2h0OiAxLjU7IG1heC13aWR0aDogMTEwcHg7IHRleHQtYWxpZ246IGNlbnRlcjsiPjxzcGFuIGNsYXNzPSJub2RlTGFiZWwgbWFya2Rvd24tbm9kZS1sYWJlbCIgc3R5bGU9IiI+PHA+UElDS0lORzwvcD48L3NwYW4+PC9kaXY+PC9mb3JlaWduT2JqZWN0PjwvZz48ZyBjbGFzcz0ibGFiZWwiIHN0eWxlPSIiIHRyYW5zZm9ybT0idHJhbnNsYXRlKDAsMzYpIj48Zm9yZWlnbk9iamVjdCB3aWR0aD0iMTI0LjMxNjY2NTY0OTQxNDA2IiBoZWlnaHQ9IjI0Ij48ZGl2IHhtbG5zPSJodHRwOi8vd3d3LnczLm9yZy8xOTk5L3hodG1sIiBzdHlsZT0iZGlzcGxheTogdGFibGUtY2VsbDsgd2hpdGUtc3BhY2U6IG5vd3JhcDsgbGluZS1oZWlnaHQ6IDEuNTsgbWF4LXdpZHRoOiAxODJweDsgdGV4dC1hbGlnbjogY2VudGVyOyI+PHNwYW4gY2xhc3M9Im5vZGVMYWJlbCBtYXJrZG93bi1ub2RlLWxhYmVsIiBzdHlsZT0iIj48cD5SRU9SR0FOSVpBVElPTjwvcD48L3NwYW4+PC9kaXY+PC9mb3JlaWduT2JqZWN0PjwvZz48ZyBjbGFzcz0ibGFiZWwiIHN0eWxlPSIiIHRyYW5zZm9ybT0idHJhbnNsYXRlKDAsNjApIj48Zm9yZWlnbk9iamVjdCB3aWR0aD0iMTE3LjM2NjY2ODcwMTE3MTg4IiBoZWlnaHQ9IjI0Ij48ZGl2IHhtbG5zPSJodHRwOi8vd3d3LnczLm9yZy8xOTk5L3hodG1sIiBzdHlsZT0iZGlzcGxheTogdGFibGUtY2VsbDsgd2hpdGUtc3BhY2U6IG5vd3JhcDsgbGluZS1oZWlnaHQ6IDEuNTsgbWF4LXdpZHRoOiAxNjhweDsgdGV4dC1hbGlnbjogY2VudGVyOyI+PHNwYW4gY2xhc3M9Im5vZGVMYWJlbCBtYXJrZG93bi1ub2RlLWxhYmVsIiBzdHlsZT0iIj48cD5RVUFMSVRZX0NIRUNLPC9wPjwvc3Bhbj48L2Rpdj48L2ZvcmVpZ25PYmplY3Q+PC9nPjxnIGNsYXNzPSJsYWJlbCIgc3R5bGU9IiIgdHJhbnNmb3JtPSJ0cmFuc2xhdGUoMCw4NCkiPjxmb3JlaWduT2JqZWN0IHdpZHRoPSIxODEuNSIgaGVpZ2h0PSIyNCI+PGRpdiB4bWxucz0iaHR0cDovL3d3dy53My5vcmcvMTk5OS94aHRtbCIgc3R5bGU9ImRpc3BsYXk6IHRhYmxlLWNlbGw7IHdoaXRlLXNwYWNlOiBub3dyYXA7IGxpbmUtaGVpZ2h0OiAxLjU7IG1heC13aWR0aDogMjM5cHg7IHRleHQtYWxpZ246IGNlbnRlcjsiPjxzcGFuIGNsYXNzPSJub2RlTGFiZWwgbWFya2Rvd24tbm9kZS1sYWJlbCIgc3R5bGU9IiI+PHA+SU5WRU5UT1JZX0FESlVTVE1FTlQ8L3A+PC9zcGFuPjwvZGl2PjwvZm9yZWlnbk9iamVjdD48L2c+PC9nPjxnIGNsYXNzPSJtZXRob2RzLWdyb3VwIHRleHQiIHRyYW5zZm9ybT0idHJhbnNsYXRlKC0xMjMuMzA0MTY4NzAxMTcxODgsIDEyMCkiLz48ZyBjbGFzcz0iZGl2aWRlciIgc3R5bGU9IiI+PHBhdGggZD0iTS0xMzUuMzA0MTY4NzAxMTcxODggLTQ4IEMtNjYuMTM5Nzk1Nzc5ODI3OTkgLTQ4LCAzLjAyNDU3NzE0MTUxNTg5MTMgLTQ4LCAxMzUuMzA0MTY4NzAxMTcxODggLTQ4IE0tMTM1LjMwNDE2ODcwMTE3MTg4IC00OCBDLTI5LjQ0OTU2Mjg0NzA5OTg0IC00OCwgNzYuNDA1MDQzMDA2OTcyMTkgLTQ4LCAxMzUuMzA0MTY4NzAxMTcxODggLTQ4IiBzdHJva2U9IiNjY2MiIHN0cm9rZS13aWR0aD0iMS4zIiBmaWxsPSJub25lIiBzdHlsZT0iIi8+PC9nPjxnIGNsYXNzPSJkaXZpZGVyIiBzdHlsZT0iIj48cGF0aCBkPSJNLTEzNS4zMDQxNjg3MDExNzE4OCA5NiBDLTc1Ljc0MjI1Nzg1ODY3ODUzIDk2LCAtMTYuMTgwMzQ3MDE2MTg1MTggOTYsIDEzNS4zMDQxNjg3MDExNzE4OCA5NiBNLTEzNS4zMDQxNjg3MDExNzE4OCA5NiBDLTc2LjI4NjI3NTQ2MDczMjcyIDk2LCAtMTcuMjY4MzgyMjIwMjkzNTkgOTYsIDEzNS4zMDQxNjg3MDExNzE4OCA5NiIgc3Ryb2tlPSIjY2NjIiBzdHJva2Utd2lkdGg9IjEuMyIgZmlsbD0ibm9uZSIgc3R5bGU9IiIvPjwvZz48L2c+PGcgY2xhc3M9Im5vZGUgZGVmYXVsdCIgaWQ9ImNsYXNzSWQtQmFyY29kZVR5cGUtODciIHRyYW5zZm9ybT0idHJhbnNsYXRlKDkyOS45NDU4MzEyOTg4MjgxLCA0NDIpIj48ZyBjbGFzcz0iYmFzaWMgbGFiZWwtY29udGFpbmVyIj48cGF0aCBkPSJNLTYwLjEwODMyOTc3Mjk0OTIyIC00MiBMNjAuMTA4MzI5NzcyOTQ5MjIgLTQyIEw2MC4xMDgzMjk3NzI5NDkyMiA0MiBMLTYwLjEwODMyOTc3Mjk0OTIyIDQyIiBzdHJva2U9Im5vbmUiIHN0cm9rZS13aWR0aD0iMCIgZmlsbD0iIzFmMjAyMCIgc3R5bGU9IiIvPjxwYXRoIGQ9Ik0tNjAuMTA4MzI5NzcyOTQ5MjIgLTQyIEMtMTUuNzA5Mjc2Nzk0NjEzNzcxIC00MiwgMjguNjg5Nzc2MTgzNzIxNjc2IC00MiwgNjAuMTA4MzI5NzcyOTQ5MjIgLTQyIE0tNjAuMTA4MzI5NzcyOTQ5MjIgLTQyIEMtMTYuMzIwMDcxMzQwNDY3ODM0IC00MiwgMjcuNDY4MTg3MDkyMDEzNTUgLTQyLCA2MC4xMDgzMjk3NzI5NDkyMiAtNDIgTTYwLjEwODMyOTc3Mjk0OTIyIC00MiBDNjAuMTA4MzI5NzcyOTQ5MjIgLTkuNDk1NjMwODAyOTM3NzYxLCA2MC4xMDgzMjk3NzI5NDkyMiAyMy4wMDg3MzgzOTQxMjQ0NzgsIDYwLjEwODMyOTc3Mjk0OTIyIDQyIE02MC4xMDgzMjk3NzI5NDkyMiAtNDIgQzYwLjEwODMyOTc3Mjk0OTIyIC0xMC4zMjg3OTI3MTAyOTc3NzYsIDYwLjEwODMyOTc3Mjk0OTIyIDIxLjM0MjQxNDU3OTQwNDQ0OCwgNjAuMTA4MzI5NzcyOTQ5MjIgNDIgTTYwLjEwODMyOTc3Mjk0OTIyIDQyIEMxNC42MzE1ODEyMDc4MzExOSA0MiwgLTMwLjg0NTE2NzM1NzI4Njg0IDQyLCAtNjAuMTA4MzI5NzcyOTQ5MjIgNDIgTTYwLjEwODMyOTc3Mjk0OTIyIDQyIEMzMy4xNTI2MDA0OTM5OTEwNDUgNDIsIDYuMTk2ODcxMjE1MDMyODY0IDQyLCAtNjAuMTA4MzI5NzcyOTQ5MjIgNDIgTS02MC4xMDgzMjk3NzI5NDkyMiA0MiBDLTYwLjEwODMyOTc3Mjk0OTIyIDEyLjE4NzA1NjExODE2NTM4LCAtNjAuMTA4MzI5NzcyOTQ5MjIgLTE3LjYyNTg4Nzc2MzY2OTI0LCAtNjAuMTA4MzI5NzcyOTQ5MjIgLTQyIE0tNjAuMTA4MzI5NzcyOTQ5MjIgNDIgQy02MC4xMDgzMjk3NzI5NDkyMiAyMy41MDc4NzU1MDk3OTgwMTIsIC02MC4xMDgzMjk3NzI5NDkyMiA1LjAxNTc1MTAxOTU5NjAyNCwgLTYwLjEwODMyOTc3Mjk0OTIyIC00MiIgc3Ryb2tlPSIjY2NjIiBzdHJva2Utd2lkdGg9IjEuMyIgZmlsbD0ibm9uZSIgc3R5bGU9IiIvPjwvZz48ZyBjbGFzcz0iYW5ub3RhdGlvbi1ncm91cCB0ZXh0IiB0cmFuc2Zvcm09InRyYW5zbGF0ZSgwLCAtMTgpIi8+PGcgY2xhc3M9ImxhYmVsLWdyb3VwIHRleHQiIHRyYW5zZm9ybT0idHJhbnNsYXRlKC00OC4xMDgzMjk3NzI5NDkyMiwgLTE4KSI+PGcgY2xhc3M9ImxhYmVsIiBzdHlsZT0iZm9udC13ZWlnaHQ6IGJvbGRlciIgdHJhbnNmb3JtPSJ0cmFuc2xhdGUoMCwtMTIpIj48Zm9yZWlnbk9iamVjdCB3aWR0aD0iOTYuMjE2NjU5NTQ1ODk4NDQiIGhlaWdodD0iMjQiPjxkaXYgeG1sbnM9Imh0dHA6Ly93d3cudzMub3JnLzE5OTkveGh0bWwiIHN0eWxlPSJkaXNwbGF5OiB0YWJsZS1jZWxsOyB3aGl0ZS1zcGFjZTogbm93cmFwOyBsaW5lLWhlaWdodDogMS41OyBtYXgtd2lkdGg6IDE0MHB4OyB0ZXh0LWFsaWduOiBjZW50ZXI7Ij48c3BhbiBjbGFzcz0ibm9kZUxhYmVsIG1hcmtkb3duLW5vZGUtbGFiZWwiIHN0eWxlPSIiPjxwPkJhcmNvZGVUeXBlPC9wPjwvc3Bhbj48L2Rpdj48L2ZvcmVpZ25PYmplY3Q+PC9nPjwvZz48ZyBjbGFzcz0ibWVtYmVycy1ncm91cCB0ZXh0IiB0cmFuc2Zvcm09InRyYW5zbGF0ZSgtNDguMTA4MzI5NzcyOTQ5MjIsIDMwKSIvPjxnIGNsYXNzPSJtZXRob2RzLWdyb3VwIHRleHQiIHRyYW5zZm9ybT0idHJhbnNsYXRlKC00OC4xMDgzMjk3NzI5NDkyMiwgNjApIi8+PGcgY2xhc3M9ImRpdmlkZXIiIHN0eWxlPSIiPjxwYXRoIGQ9Ik0tNjAuMTA4MzI5NzcyOTQ5MjIgNiBDLTMyLjQ0NTA4NzI5Mzk5NzA1IDYsIC00Ljc4MTg0NDgxNTA0NDg3NyA2LCA2MC4xMDgzMjk3NzI5NDkyMiA2IE0tNjAuMTA4MzI5NzcyOTQ5MjIgNiBDLTE3LjQzMjk4OTgxNTUyMTI2IDYsIDI1LjI0MjM1MDE0MTkwNjY5OCA2LCA2MC4xMDgzMjk3NzI5NDkyMiA2IiBzdHJva2U9IiNjY2MiIHN0cm9rZS13aWR0aD0iMS4zIiBmaWxsPSJub25lIiBzdHlsZT0iIi8+PC9nPjxnIGNsYXNzPSJkaXZpZGVyIiBzdHlsZT0iIj48cGF0aCBkPSJNLTYwLjEwODMyOTc3Mjk0OTIyIDI0IEMtMzQuMzc4MTY3NDQ2MzQ3MDg1IDI0LCAtOC42NDgwMDUxMTk3NDQ5NTEgMjQsIDYwLjEwODMyOTc3Mjk0OTIyIDI0IE0tNjAuMTA4MzI5NzcyOTQ5MjIgMjQgQy0xMi45NzU0NjcxNzEyNjEzOTMgMjQsIDM0LjE1NzM5NTQzMDQyNjQzIDI0LCA2MC4xMDgzMjk3NzI5NDkyMiAyNCIgc3Ryb2tlPSIjY2NjIiBzdHJva2Utd2lkdGg9IjEuMyIgZmlsbD0ibm9uZSIgc3R5bGU9IiIvPjwvZz48L2c+PGcgY2xhc3M9Im5vZGUgZGVmYXVsdCIgaWQ9ImNsYXNzSWQtVm9sdW1lQ2FsY3VsYXRpb24tODgiIHRyYW5zZm9ybT0idHJhbnNsYXRlKDQwOC42ODc1LCA0NDIpIj48ZyBjbGFzcz0iYmFzaWMgbGFiZWwtY29udGFpbmVyIj48cGF0aCBkPSJNLTgxLjI2NjY3MDIyNzA1MDc4IC00MiBMODEuMjY2NjcwMjI3MDUwNzggLTQyIEw4MS4yNjY2NzAyMjcwNTA3OCA0MiBMLTgxLjI2NjY3MDIyNzA1MDc4IDQyIiBzdHJva2U9Im5vbmUiIHN0cm9rZS13aWR0aD0iMCIgZmlsbD0iIzFmMjAyMCIgc3R5bGU9IiIvPjxwYXRoIGQ9Ik0tODEuMjY2NjcwMjI3MDUwNzggLTQyIEMtNDEuMDUwMDM1MjI1NDQ3MzQ2IC00MiwgLTAuODMzNDAwMjIzODQzOTA5OCAtNDIsIDgxLjI2NjY3MDIyNzA1MDc4IC00MiBNLTgxLjI2NjY3MDIyNzA1MDc4IC00MiBDLTE2LjgyNjYwMDY5MTk0NzEzNSAtNDIsIDQ3LjYxMzQ2ODg0MzE1NjUxIC00MiwgODEuMjY2NjcwMjI3MDUwNzggLTQyIE04MS4yNjY2NzAyMjcwNTA3OCAtNDIgQzgxLjI2NjY3MDIyNzA1MDc4IC0yMi41MzAyODY4MDk4OTUyNiwgODEuMjY2NjcwMjI3MDUwNzggLTMuMDYwNTczNjE5NzkwNTE3MywgODEuMjY2NjcwMjI3MDUwNzggNDIgTTgxLjI2NjY3MDIyNzA1MDc4IC00MiBDODEuMjY2NjcwMjI3MDUwNzggLTExLjY3NDI3NjQwMjE4NzI2NywgODEuMjY2NjcwMjI3MDUwNzggMTguNjUxNDQ3MTk1NjI1NDY1LCA4MS4yNjY2NzAyMjcwNTA3OCA0MiBNODEuMjY2NjcwMjI3MDUwNzggNDIgQzE5Ljc0OTM5OTY1ODQ2MTY1IDQyLCAtNDEuNzY3ODcwOTEwMTI3NDg1IDQyLCAtODEuMjY2NjcwMjI3MDUwNzggNDIgTTgxLjI2NjY3MDIyNzA1MDc4IDQyIEMyNC44OTg1MTk5NTI5NjkyMjQgNDIsIC0zMS40Njk2MzAzMjExMTIzMzQgNDIsIC04MS4yNjY2NzAyMjcwNTA3OCA0MiBNLTgxLjI2NjY3MDIyNzA1MDc4IDQyIEMtODEuMjY2NjcwMjI3MDUwNzggMTguNDQ2NjA1NzI2MzA0ODYsIC04MS4yNjY2NzAyMjcwNTA3OCAtNS4xMDY3ODg1NDczOTAyODA1LCAtODEuMjY2NjcwMjI3MDUwNzggLTQyIE0tODEuMjY2NjcwMjI3MDUwNzggNDIgQy04MS4yNjY2NzAyMjcwNTA3OCAxMS42NzUyOTUyODUzMDI2ODEsIC04MS4yNjY2NzAyMjcwNTA3OCAtMTguNjQ5NDA5NDI5Mzk0NjM4LCAtODEuMjY2NjcwMjI3MDUwNzggLTQyIiBzdHJva2U9IiNjY2MiIHN0cm9rZS13aWR0aD0iMS4zIiBmaWxsPSJub25lIiBzdHlsZT0iIi8+PC9nPjxnIGNsYXNzPSJhbm5vdGF0aW9uLWdyb3VwIHRleHQiIHRyYW5zZm9ybT0idHJhbnNsYXRlKDAsIC0xOCkiLz48ZyBjbGFzcz0ibGFiZWwtZ3JvdXAgdGV4dCIgdHJhbnNmb3JtPSJ0cmFuc2xhdGUoLTY5LjI2NjY3MDIyNzA1MDc4LCAtMTgpIj48ZyBjbGFzcz0ibGFiZWwiIHN0eWxlPSJmb250LXdlaWdodDogYm9sZGVyIiB0cmFuc2Zvcm09InRyYW5zbGF0ZSgwLC0xMikiPjxmb3JlaWduT2JqZWN0IHdpZHRoPSIxMzguNTMzMzQwNDU0MTAxNTYiIGhlaWdodD0iMjQiPjxkaXYgeG1sbnM9Imh0dHA6Ly93d3cudzMub3JnLzE5OTkveGh0bWwiIHN0eWxlPSJkaXNwbGF5OiB0YWJsZS1jZWxsOyB3aGl0ZS1zcGFjZTogbm93cmFwOyBsaW5lLWhlaWdodDogMS41OyBtYXgtd2lkdGg6IDE4MXB4OyB0ZXh0LWFsaWduOiBjZW50ZXI7Ij48c3BhbiBjbGFzcz0ibm9kZUxhYmVsIG1hcmtkb3duLW5vZGUtbGFiZWwiIHN0eWxlPSIiPjxwPlZvbHVtZUNhbGN1bGF0aW9uPC9wPjwvc3Bhbj48L2Rpdj48L2ZvcmVpZ25PYmplY3Q+PC9nPjwvZz48ZyBjbGFzcz0ibWVtYmVycy1ncm91cCB0ZXh0IiB0cmFuc2Zvcm09InRyYW5zbGF0ZSgtNjkuMjY2NjcwMjI3MDUwNzgsIDMwKSIvPjxnIGNsYXNzPSJtZXRob2RzLWdyb3VwIHRleHQiIHRyYW5zZm9ybT0idHJhbnNsYXRlKC02OS4yNjY2NzAyMjcwNTA3OCwgNjApIi8+PGcgY2xhc3M9ImRpdmlkZXIiIHN0eWxlPSIiPjxwYXRoIGQ9Ik0tODEuMjY2NjcwMjI3MDUwNzggNiBDLTE4LjgzNTk3MTcxMzQyODY0IDYsIDQzLjU5NDcyNjgwMDE5MzUgNiwgODEuMjY2NjcwMjI3MDUwNzggNiBNLTgxLjI2NjY3MDIyNzA1MDc4IDYgQy0zOC43NjA5MjA0NTIyODk0MSA2LCAzLjc0NDgyOTMyMjQ3MTk1NzggNiwgODEuMjY2NjcwMjI3MDUwNzggNiIgc3Ryb2tlPSIjY2NjIiBzdHJva2Utd2lkdGg9IjEuMyIgZmlsbD0ibm9uZSIgc3R5bGU9IiIvPjwvZz48ZyBjbGFzcz0iZGl2aWRlciIgc3R5bGU9IiI+PHBhdGggZD0iTS04MS4yNjY2NzAyMjcwNTA3OCAyNCBDLTIyLjk4NDUxOTkyMTM0NjczIDI0LCAzNS4yOTc2MzAzODQzNTczMiAyNCwgODEuMjY2NjcwMjI3MDUwNzggMjQgTS04MS4yNjY2NzAyMjcwNTA3OCAyNCBDLTM3Ljk2MTY3MDkwMTM0OTIyIDI0LCA1LjM0MzMyODQyNDM1MjMzNiAyNCwgODEuMjY2NjcwMjI3MDUwNzggMjQiIHN0cm9rZT0iI2NjYyIgc3Ryb2tlLXdpZHRoPSIxLjMiIGZpbGw9Im5vbmUiIHN0eWxlPSIiLz48L2c+PC9nPjxnIGNsYXNzPSJub2RlIGRlZmF1bHQiIGlkPSJjbGFzc0lkLVNoZWxmTGlmZVR5cGUtODkiIHRyYW5zZm9ybT0idHJhbnNsYXRlKDE0NTAuNjUwMDAxNTI1ODc5LCA0NDIpIj48ZyBjbGFzcz0iYmFzaWMgbGFiZWwtY29udGFpbmVyIj48cGF0aCBkPSJNLTYyLjkzMzMzNDM1MDU4NTk0IC00MiBMNjIuOTMzMzM0MzUwNTg1OTQgLTQyIEw2Mi45MzMzMzQzNTA1ODU5NCA0MiBMLTYyLjkzMzMzNDM1MDU4NTk0IDQyIiBzdHJva2U9Im5vbmUiIHN0cm9rZS13aWR0aD0iMCIgZmlsbD0iIzFmMjAyMCIgc3R5bGU9IiIvPjxwYXRoIGQ9Ik0tNjIuOTMzMzM0MzUwNTg1OTQgLTQyIEMtMzEuMDA2NjkzMzk3NjczIC00MiwgMC45MTk5NDc1NTUyMzk5MzYzIC00MiwgNjIuOTMzMzM0MzUwNTg1OTQgLTQyIE0tNjIuOTMzMzM0MzUwNTg1OTQgLTQyIEMtMzQuMjE2ODAyMjU1NzkxNDUgLTQyLCAtNS41MDAyNzAxNjA5OTY5NjkgLTQyLCA2Mi45MzMzMzQzNTA1ODU5NCAtNDIgTTYyLjkzMzMzNDM1MDU4NTk0IC00MiBDNjIuOTMzMzM0MzUwNTg1OTQgLTIyLjQzMTQ5NTgzNjMwMTUxNSwgNjIuOTMzMzM0MzUwNTg1OTQgLTIuODYyOTkxNjcyNjAzMDMwMiwgNjIuOTMzMzM0MzUwNTg1OTQgNDIgTTYyLjkzMzMzNDM1MDU4NTk0IC00MiBDNjIuOTMzMzM0MzUwNTg1OTQgLTExLjA3MDI3MzU0NzIzODUwNCwgNjIuOTMzMzM0MzUwNTg1OTQgMTkuODU5NDUyOTA1NTIyOTkzLCA2Mi45MzMzMzQzNTA1ODU5NCA0MiBNNjIuOTMzMzM0MzUwNTg1OTQgNDIgQzMzLjAyNDM4MDIxMDA3ODc0NiA0MiwgMy4xMTU0MjYwNjk1NzE1NjIgNDIsIC02Mi45MzMzMzQzNTA1ODU5NCA0MiBNNjIuOTMzMzM0MzUwNTg1OTQgNDIgQzE4Ljc2Nzc0NDYyNDI3NDE1OCA0MiwgLTI1LjM5Nzg0NTEwMjAzNzYyIDQyLCAtNjIuOTMzMzM0MzUwNTg1OTQgNDIgTS02Mi45MzMzMzQzNTA1ODU5NCA0MiBDLTYyLjkzMzMzNDM1MDU4NTk0IDEyLjMxMTc3MTM4OTY2NDYsIC02Mi45MzMzMzQzNTA1ODU5NCAtMTcuMzc2NDU3MjIwNjcwOCwgLTYyLjkzMzMzNDM1MDU4NTk0IC00MiBNLTYyLjkzMzMzNDM1MDU4NTk0IDQyIEMtNjIuOTMzMzM0MzUwNTg1OTQgMTkuNDkwMTUyMDYyNTc2Njk0LCAtNjIuOTMzMzM0MzUwNTg1OTQgLTMuMDE5Njk1ODc0ODQ2NjExNiwgLTYyLjkzMzMzNDM1MDU4NTk0IC00MiIgc3Ryb2tlPSIjY2NjIiBzdHJva2Utd2lkdGg9IjEuMyIgZmlsbD0ibm9uZSIgc3R5bGU9IiIvPjwvZz48ZyBjbGFzcz0iYW5ub3RhdGlvbi1ncm91cCB0ZXh0IiB0cmFuc2Zvcm09InRyYW5zbGF0ZSgwLCAtMTgpIi8+PGcgY2xhc3M9ImxhYmVsLWdyb3VwIHRleHQiIHRyYW5zZm9ybT0idHJhbnNsYXRlKC01MC45MzMzMzQzNTA1ODU5NCwgLTE4KSI+PGcgY2xhc3M9ImxhYmVsIiBzdHlsZT0iZm9udC13ZWlnaHQ6IGJvbGRlciIgdHJhbnNmb3JtPSJ0cmFuc2xhdGUoMCwtMTIpIj48Zm9yZWlnbk9iamVjdCB3aWR0aD0iMTAxLjg2NjY2ODcwMTE3MTg4IiBoZWlnaHQ9IjI0Ij48ZGl2IHhtbG5zPSJodHRwOi8vd3d3LnczLm9yZy8xOTk5L3hodG1sIiBzdHlsZT0iZGlzcGxheTogdGFibGUtY2VsbDsgd2hpdGUtc3BhY2U6IG5vd3JhcDsgbGluZS1oZWlnaHQ6IDEuNTsgbWF4LXdpZHRoOiAxNDNweDsgdGV4dC1hbGlnbjogY2VudGVyOyI+PHNwYW4gY2xhc3M9Im5vZGVMYWJlbCBtYXJrZG93bi1ub2RlLWxhYmVsIiBzdHlsZT0iIj48cD5TaGVsZkxpZmVUeXBlPC9wPjwvc3Bhbj48L2Rpdj48L2ZvcmVpZ25PYmplY3Q+PC9nPjwvZz48ZyBjbGFzcz0ibWVtYmVycy1ncm91cCB0ZXh0IiB0cmFuc2Zvcm09InRyYW5zbGF0ZSgtNTAuOTMzMzM0MzUwNTg1OTQsIDMwKSIvPjxnIGNsYXNzPSJtZXRob2RzLWdyb3VwIHRleHQiIHRyYW5zZm9ybT0idHJhbnNsYXRlKC01MC45MzMzMzQzNTA1ODU5NCwgNjApIi8+PGcgY2xhc3M9ImRpdmlkZXIiIHN0eWxlPSIiPjxwYXRoIGQ9Ik0tNjIuOTMzMzM0MzUwNTg1OTQgNiBDLTMwLjY5MDg3NjczMDgzNTI5MiA2LCAxLjU1MTU4MDg4ODkxNTM1MzMgNiwgNjIuOTMzMzM0MzUwNTg1OTQgNiBNLTYyLjkzMzMzNDM1MDU4NTk0IDYgQy0xNC41MzE3NDA2NjY5NTgyNzggNiwgMzMuODY5ODUzMDE2NjY5MzggNiwgNjIuOTMzMzM0MzUwNTg1OTQgNiIgc3Ryb2tlPSIjY2NjIiBzdHJva2Utd2lkdGg9IjEuMyIgZmlsbD0ibm9uZSIgc3R5bGU9IiIvPjwvZz48ZyBjbGFzcz0iZGl2aWRlciIgc3R5bGU9IiI+PHBhdGggZD0iTS02Mi45MzMzMzQzNTA1ODU5NCAyNCBDLTI1LjQzMjQ5MDI4OTQ3NzM4NiAyNCwgMTIuMDY4MzUzNzcxNjMxMTY2IDI0LCA2Mi45MzMzMzQzNTA1ODU5NCAyNCBNLTYyLjkzMzMzNDM1MDU4NTk0IDI0IEMtMTQuMzI4NjA1NDQ0NjM2Mzg4IDI0LCAzNC4yNzYxMjM0NjEzMTMxNiAyNCwgNjIuOTMzMzM0MzUwNTg1OTQgMjQiIHN0cm9rZT0iI2NjYyIgc3Ryb2tlLXdpZHRoPSIxLjMiIGZpbGw9Im5vbmUiIHN0eWxlPSIiLz48L2c+PC9nPjwvZz48L2c+PC9nPjwvc3ZnPg==;" vertex="1" parent="1">
          <mxGeometry x="321" y="90" width="1689.32" height="290" as="geometry" />
        </mxCell>
        <mxCell id="Whg6E0iZkNlX-ERxeSda-8" value="" style="shape=image;verticalLabelPosition=bottom;labelBackgroundColor=default;verticalAlign=top;aspect=fixed;imageAspect=0;editableCssRules=.*;image=data:image/svg+xml,PHN2ZyB4bWxucz0iaHR0cDovL3d3dy53My5vcmcvMjAwMC9zdmciIHhtbG5zOnhsaW5rPSJodHRwOi8vd3d3LnczLm9yZy8xOTk5L3hsaW5rIiBpZD0ibWVybWFpZC1zdmctMCIgd2lkdGg9IjM2Mi41OTk5ODc3OTI5Njg3NiIgY2xhc3M9ImNsYXNzRGlhZ3JhbSIgc3R5bGU9Im1heC13aWR0aDogMzc3LjI5OTk4Nzc5Mjk2ODc1cHg7IiB2aWV3Qm94PSI3LjM1IDcuMzUgMzYyLjU5OTk4Nzc5Mjk2ODc2IDE0MDEuMyIgcm9sZT0iZ3JhcGhpY3MtZG9jdW1lbnQgZG9jdW1lbnQiIGFyaWEtcm9sZWRlc2NyaXB0aW9uPSJjbGFzcyIgaGVpZ2h0PSIxNDAxLjMiPjxzdHlsZT4jbWVybWFpZC1zdmctMHtmb250LWZhbWlseToidHJlYnVjaGV0IG1zIix2ZXJkYW5hLGFyaWFsLHNhbnMtc2VyaWY7Zm9udC1zaXplOjE2cHg7ZmlsbDojY2NjO31Aa2V5ZnJhbWVzIGVkZ2UtYW5pbWF0aW9uLWZyYW1le2Zyb217c3Ryb2tlLWRhc2hvZmZzZXQ6MDt9fUBrZXlmcmFtZXMgZGFzaHt0b3tzdHJva2UtZGFzaG9mZnNldDowO319I21lcm1haWQtc3ZnLTAgLmVkZ2UtYW5pbWF0aW9uLXNsb3d7c3Ryb2tlLWRhc2hhcnJheTo5LDUhaW1wb3J0YW50O3N0cm9rZS1kYXNob2Zmc2V0OjkwMDthbmltYXRpb246ZGFzaCA1MHMgbGluZWFyIGluZmluaXRlO3N0cm9rZS1saW5lY2FwOnJvdW5kO30jbWVybWFpZC1zdmctMCAuZWRnZS1hbmltYXRpb24tZmFzdHtzdHJva2UtZGFzaGFycmF5OjksNSFpbXBvcnRhbnQ7c3Ryb2tlLWRhc2hvZmZzZXQ6OTAwO2FuaW1hdGlvbjpkYXNoIDIwcyBsaW5lYXIgaW5maW5pdGU7c3Ryb2tlLWxpbmVjYXA6cm91bmQ7fSNtZXJtYWlkLXN2Zy0wIC5lcnJvci1pY29ue2ZpbGw6I2E0NDE0MTt9I21lcm1haWQtc3ZnLTAgLmVycm9yLXRleHR7ZmlsbDojZGRkO3N0cm9rZTojZGRkO30jbWVybWFpZC1zdmctMCAuZWRnZS10aGlja25lc3Mtbm9ybWFse3N0cm9rZS13aWR0aDoxcHg7fSNtZXJtYWlkLXN2Zy0wIC5lZGdlLXRoaWNrbmVzcy10aGlja3tzdHJva2Utd2lkdGg6My41cHg7fSNtZXJtYWlkLXN2Zy0wIC5lZGdlLXBhdHRlcm4tc29saWR7c3Ryb2tlLWRhc2hhcnJheTowO30jbWVybWFpZC1zdmctMCAuZWRnZS10aGlja25lc3MtaW52aXNpYmxle3N0cm9rZS13aWR0aDowO2ZpbGw6bm9uZTt9I21lcm1haWQtc3ZnLTAgLmVkZ2UtcGF0dGVybi1kYXNoZWR7c3Ryb2tlLWRhc2hhcnJheTozO30jbWVybWFpZC1zdmctMCAuZWRnZS1wYXR0ZXJuLWRvdHRlZHtzdHJva2UtZGFzaGFycmF5OjI7fSNtZXJtYWlkLXN2Zy0wIC5tYXJrZXJ7ZmlsbDpsaWdodGdyZXk7c3Ryb2tlOmxpZ2h0Z3JleTt9I21lcm1haWQtc3ZnLTAgLm1hcmtlci5jcm9zc3tzdHJva2U6bGlnaHRncmV5O30jbWVybWFpZC1zdmctMCBzdmd7Zm9udC1mYW1pbHk6InRyZWJ1Y2hldCBtcyIsdmVyZGFuYSxhcmlhbCxzYW5zLXNlcmlmO2ZvbnQtc2l6ZToxNnB4O30jbWVybWFpZC1zdmctMCBwe21hcmdpbjowO30jbWVybWFpZC1zdmctMCBnLmNsYXNzR3JvdXAgdGV4dHtmaWxsOiNjY2M7c3Ryb2tlOm5vbmU7Zm9udC1mYW1pbHk6InRyZWJ1Y2hldCBtcyIsdmVyZGFuYSxhcmlhbCxzYW5zLXNlcmlmO2ZvbnQtc2l6ZToxMHB4O30jbWVybWFpZC1zdmctMCBnLmNsYXNzR3JvdXAgdGV4dCAudGl0bGV7Zm9udC13ZWlnaHQ6Ym9sZGVyO30jbWVybWFpZC1zdmctMCAubm9kZUxhYmVsLCNtZXJtYWlkLXN2Zy0wIC5lZGdlTGFiZWx7Y29sb3I6I2UwZGZkZjt9I21lcm1haWQtc3ZnLTAgLmVkZ2VMYWJlbCAubGFiZWwgcmVjdHtmaWxsOiMxZjIwMjA7fSNtZXJtYWlkLXN2Zy0wIC5sYWJlbCB0ZXh0e2ZpbGw6I2UwZGZkZjt9I21lcm1haWQtc3ZnLTAgLmxhYmVsQmtne2JhY2tncm91bmQ6IzFmMjAyMDt9I21lcm1haWQtc3ZnLTAgLmVkZ2VMYWJlbCAubGFiZWwgc3BhbntiYWNrZ3JvdW5kOiMxZjIwMjA7fSNtZXJtYWlkLXN2Zy0wIC5jbGFzc1RpdGxle2ZvbnQtd2VpZ2h0OmJvbGRlcjt9I21lcm1haWQtc3ZnLTAgLm5vZGUgcmVjdCwjbWVybWFpZC1zdmctMCAubm9kZSBjaXJjbGUsI21lcm1haWQtc3ZnLTAgLm5vZGUgZWxsaXBzZSwjbWVybWFpZC1zdmctMCAubm9kZSBwb2x5Z29uLCNtZXJtYWlkLXN2Zy0wIC5ub2RlIHBhdGh7ZmlsbDojMWYyMDIwO3N0cm9rZTojY2NjO3N0cm9rZS13aWR0aDoxcHg7fSNtZXJtYWlkLXN2Zy0wIC5kaXZpZGVye3N0cm9rZTojY2NjO3N0cm9rZS13aWR0aDoxO30jbWVybWFpZC1zdmctMCBnLmNsaWNrYWJsZXtjdXJzb3I6cG9pbnRlcjt9I21lcm1haWQtc3ZnLTAgZy5jbGFzc0dyb3VwIHJlY3R7ZmlsbDojMWYyMDIwO3N0cm9rZTojY2NjO30jbWVybWFpZC1zdmctMCBnLmNsYXNzR3JvdXAgbGluZXtzdHJva2U6I2NjYztzdHJva2Utd2lkdGg6MTt9I21lcm1haWQtc3ZnLTAgLmNsYXNzTGFiZWwgLmJveHtzdHJva2U6bm9uZTtzdHJva2Utd2lkdGg6MDtmaWxsOiMxZjIwMjA7b3BhY2l0eTowLjU7fSNtZXJtYWlkLXN2Zy0wIC5jbGFzc0xhYmVsIC5sYWJlbHtmaWxsOiNjY2M7Zm9udC1zaXplOjEwcHg7fSNtZXJtYWlkLXN2Zy0wIC5yZWxhdGlvbntzdHJva2U6bGlnaHRncmV5O3N0cm9rZS13aWR0aDoxO2ZpbGw6bm9uZTt9I21lcm1haWQtc3ZnLTAgLmRhc2hlZC1saW5le3N0cm9rZS1kYXNoYXJyYXk6Mzt9I21lcm1haWQtc3ZnLTAgLmRvdHRlZC1saW5le3N0cm9rZS1kYXNoYXJyYXk6MSAyO30jbWVybWFpZC1zdmctMCAjY29tcG9zaXRpb25TdGFydCwjbWVybWFpZC1zdmctMCAuY29tcG9zaXRpb257ZmlsbDpsaWdodGdyZXkhaW1wb3J0YW50O3N0cm9rZTpsaWdodGdyZXkhaW1wb3J0YW50O3N0cm9rZS13aWR0aDoxO30jbWVybWFpZC1zdmctMCAjY29tcG9zaXRpb25FbmQsI21lcm1haWQtc3ZnLTAgLmNvbXBvc2l0aW9ue2ZpbGw6bGlnaHRncmV5IWltcG9ydGFudDtzdHJva2U6bGlnaHRncmV5IWltcG9ydGFudDtzdHJva2Utd2lkdGg6MTt9I21lcm1haWQtc3ZnLTAgI2RlcGVuZGVuY3lTdGFydCwjbWVybWFpZC1zdmctMCAuZGVwZW5kZW5jeXtmaWxsOmxpZ2h0Z3JleSFpbXBvcnRhbnQ7c3Ryb2tlOmxpZ2h0Z3JleSFpbXBvcnRhbnQ7c3Ryb2tlLXdpZHRoOjE7fSNtZXJtYWlkLXN2Zy0wICNkZXBlbmRlbmN5U3RhcnQsI21lcm1haWQtc3ZnLTAgLmRlcGVuZGVuY3l7ZmlsbDpsaWdodGdyZXkhaW1wb3J0YW50O3N0cm9rZTpsaWdodGdyZXkhaW1wb3J0YW50O3N0cm9rZS13aWR0aDoxO30jbWVybWFpZC1zdmctMCAjZXh0ZW5zaW9uU3RhcnQsI21lcm1haWQtc3ZnLTAgLmV4dGVuc2lvbntmaWxsOnRyYW5zcGFyZW50IWltcG9ydGFudDtzdHJva2U6bGlnaHRncmV5IWltcG9ydGFudDtzdHJva2Utd2lkdGg6MTt9I21lcm1haWQtc3ZnLTAgI2V4dGVuc2lvbkVuZCwjbWVybWFpZC1zdmctMCAuZXh0ZW5zaW9ue2ZpbGw6dHJhbnNwYXJlbnQhaW1wb3J0YW50O3N0cm9rZTpsaWdodGdyZXkhaW1wb3J0YW50O3N0cm9rZS13aWR0aDoxO30jbWVybWFpZC1zdmctMCAjYWdncmVnYXRpb25TdGFydCwjbWVybWFpZC1zdmctMCAuYWdncmVnYXRpb257ZmlsbDp0cmFuc3BhcmVudCFpbXBvcnRhbnQ7c3Ryb2tlOmxpZ2h0Z3JleSFpbXBvcnRhbnQ7c3Ryb2tlLXdpZHRoOjE7fSNtZXJtYWlkLXN2Zy0wICNhZ2dyZWdhdGlvbkVuZCwjbWVybWFpZC1zdmctMCAuYWdncmVnYXRpb257ZmlsbDp0cmFuc3BhcmVudCFpbXBvcnRhbnQ7c3Ryb2tlOmxpZ2h0Z3JleSFpbXBvcnRhbnQ7c3Ryb2tlLXdpZHRoOjE7fSNtZXJtYWlkLXN2Zy0wICNsb2xsaXBvcFN0YXJ0LCNtZXJtYWlkLXN2Zy0wIC5sb2xsaXBvcHtmaWxsOiMxZjIwMjAhaW1wb3J0YW50O3N0cm9rZTpsaWdodGdyZXkhaW1wb3J0YW50O3N0cm9rZS13aWR0aDoxO30jbWVybWFpZC1zdmctMCAjbG9sbGlwb3BFbmQsI21lcm1haWQtc3ZnLTAgLmxvbGxpcG9we2ZpbGw6IzFmMjAyMCFpbXBvcnRhbnQ7c3Ryb2tlOmxpZ2h0Z3JleSFpbXBvcnRhbnQ7c3Ryb2tlLXdpZHRoOjE7fSNtZXJtYWlkLXN2Zy0wIC5lZGdlVGVybWluYWxze2ZvbnQtc2l6ZToxMXB4O2xpbmUtaGVpZ2h0OmluaXRpYWw7fSNtZXJtYWlkLXN2Zy0wIC5jbGFzc1RpdGxlVGV4dHt0ZXh0LWFuY2hvcjptaWRkbGU7Zm9udC1zaXplOjE4cHg7ZmlsbDojY2NjO30jbWVybWFpZC1zdmctMCA6cm9vdHstLW1lcm1haWQtZm9udC1mYW1pbHk6InRyZWJ1Y2hldCBtcyIsdmVyZGFuYSxhcmlhbCxzYW5zLXNlcmlmO308L3N0eWxlPjxnPjxkZWZzPjxtYXJrZXIgaWQ9Im1lcm1haWQtc3ZnLTBfY2xhc3MtYWdncmVnYXRpb25TdGFydCIgY2xhc3M9Im1hcmtlciBhZ2dyZWdhdGlvbiBjbGFzcyIgcmVmWD0iMTgiIHJlZlk9IjciIG1hcmtlcldpZHRoPSIxOTAiIG1hcmtlckhlaWdodD0iMjQwIiBvcmllbnQ9ImF1dG8iPjxwYXRoIGQ9Ik0gMTgsNyBMOSwxMyBMMSw3IEw5LDEgWiIvPjwvbWFya2VyPjwvZGVmcz48ZGVmcz48bWFya2VyIGlkPSJtZXJtYWlkLXN2Zy0wX2NsYXNzLWFnZ3JlZ2F0aW9uRW5kIiBjbGFzcz0ibWFya2VyIGFnZ3JlZ2F0aW9uIGNsYXNzIiByZWZYPSIxIiByZWZZPSI3IiBtYXJrZXJXaWR0aD0iMjAiIG1hcmtlckhlaWdodD0iMjgiIG9yaWVudD0iYXV0byI+PHBhdGggZD0iTSAxOCw3IEw5LDEzIEwxLDcgTDksMSBaIi8+PC9tYXJrZXI+PC9kZWZzPjxkZWZzPjxtYXJrZXIgaWQ9Im1lcm1haWQtc3ZnLTBfY2xhc3MtZXh0ZW5zaW9uU3RhcnQiIGNsYXNzPSJtYXJrZXIgZXh0ZW5zaW9uIGNsYXNzIiByZWZYPSIxOCIgcmVmWT0iNyIgbWFya2VyV2lkdGg9IjE5MCIgbWFya2VySGVpZ2h0PSIyNDAiIG9yaWVudD0iYXV0byI+PHBhdGggZD0iTSAxLDcgTDE4LDEzIFYgMSBaIi8+PC9tYXJrZXI+PC9kZWZzPjxkZWZzPjxtYXJrZXIgaWQ9Im1lcm1haWQtc3ZnLTBfY2xhc3MtZXh0ZW5zaW9uRW5kIiBjbGFzcz0ibWFya2VyIGV4dGVuc2lvbiBjbGFzcyIgcmVmWD0iMSIgcmVmWT0iNyIgbWFya2VyV2lkdGg9IjIwIiBtYXJrZXJIZWlnaHQ9IjI4IiBvcmllbnQ9ImF1dG8iPjxwYXRoIGQ9Ik0gMSwxIFYgMTMgTDE4LDcgWiIvPjwvbWFya2VyPjwvZGVmcz48ZGVmcz48bWFya2VyIGlkPSJtZXJtYWlkLXN2Zy0wX2NsYXNzLWNvbXBvc2l0aW9uU3RhcnQiIGNsYXNzPSJtYXJrZXIgY29tcG9zaXRpb24gY2xhc3MiIHJlZlg9IjE4IiByZWZZPSI3IiBtYXJrZXJXaWR0aD0iMTkwIiBtYXJrZXJIZWlnaHQ9IjI0MCIgb3JpZW50PSJhdXRvIj48cGF0aCBkPSJNIDE4LDcgTDksMTMgTDEsNyBMOSwxIFoiLz48L21hcmtlcj48L2RlZnM+PGRlZnM+PG1hcmtlciBpZD0ibWVybWFpZC1zdmctMF9jbGFzcy1jb21wb3NpdGlvbkVuZCIgY2xhc3M9Im1hcmtlciBjb21wb3NpdGlvbiBjbGFzcyIgcmVmWD0iMSIgcmVmWT0iNyIgbWFya2VyV2lkdGg9IjIwIiBtYXJrZXJIZWlnaHQ9IjI4IiBvcmllbnQ9ImF1dG8iPjxwYXRoIGQ9Ik0gMTgsNyBMOSwxMyBMMSw3IEw5LDEgWiIvPjwvbWFya2VyPjwvZGVmcz48ZGVmcz48bWFya2VyIGlkPSJtZXJtYWlkLXN2Zy0wX2NsYXNzLWRlcGVuZGVuY3lTdGFydCIgY2xhc3M9Im1hcmtlciBkZXBlbmRlbmN5IGNsYXNzIiByZWZYPSI2IiByZWZZPSI3IiBtYXJrZXJXaWR0aD0iMTkwIiBtYXJrZXJIZWlnaHQ9IjI0MCIgb3JpZW50PSJhdXRvIj48cGF0aCBkPSJNIDUsNyBMOSwxMyBMMSw3IEw5LDEgWiIvPjwvbWFya2VyPjwvZGVmcz48ZGVmcz48bWFya2VyIGlkPSJtZXJtYWlkLXN2Zy0wX2NsYXNzLWRlcGVuZGVuY3lFbmQiIGNsYXNzPSJtYXJrZXIgZGVwZW5kZW5jeSBjbGFzcyIgcmVmWD0iMTMiIHJlZlk9IjciIG1hcmtlcldpZHRoPSIyMCIgbWFya2VySGVpZ2h0PSIyOCIgb3JpZW50PSJhdXRvIj48cGF0aCBkPSJNIDE4LDcgTDksMTMgTDE0LDcgTDksMSBaIi8+PC9tYXJrZXI+PC9kZWZzPjxkZWZzPjxtYXJrZXIgaWQ9Im1lcm1haWQtc3ZnLTBfY2xhc3MtbG9sbGlwb3BTdGFydCIgY2xhc3M9Im1hcmtlciBsb2xsaXBvcCBjbGFzcyIgcmVmWD0iMTMiIHJlZlk9IjciIG1hcmtlcldpZHRoPSIxOTAiIG1hcmtlckhlaWdodD0iMjQwIiBvcmllbnQ9ImF1dG8iPjxjaXJjbGUgc3Ryb2tlPSJibGFjayIgZmlsbD0idHJhbnNwYXJlbnQiIGN4PSI3IiBjeT0iNyIgcj0iNiIvPjwvbWFya2VyPjwvZGVmcz48ZGVmcz48bWFya2VyIGlkPSJtZXJtYWlkLXN2Zy0wX2NsYXNzLWxvbGxpcG9wRW5kIiBjbGFzcz0ibWFya2VyIGxvbGxpcG9wIGNsYXNzIiByZWZYPSIxIiByZWZZPSI3IiBtYXJrZXJXaWR0aD0iMTkwIiBtYXJrZXJIZWlnaHQ9IjI0MCIgb3JpZW50PSJhdXRvIj48Y2lyY2xlIHN0cm9rZT0iYmxhY2siIGZpbGw9InRyYW5zcGFyZW50IiBjeD0iNyIgY3k9IjciIHI9IjYiLz48L21hcmtlcj48L2RlZnM+PGcgY2xhc3M9InJvb3QiPjxnIGNsYXNzPSJjbHVzdGVycyIvPjxnIGNsYXNzPSJlZGdlUGF0aHMiPjxwYXRoIGQ9Ik0xODguNjUsMjkwTDE4OC42NSwyOTEuMTY3QzE4OC42NSwyOTIuMzMzLDE4OC42NSwyOTQuNjY3LDE4OC42NSwzMDBDMTg4LjY1LDMwNS4zMzMsMTg4LjY1LDMxMy42NjcsMTg4LjY1LDMxNy44MzNMMTg4LjY1LDMyMiIgaWQ9ImlkX1dhcmVob3VzZV9TdG9yYWdlWm9uZV8xIiBjbGFzcz0iZWRnZS10aGlja25lc3Mtbm9ybWFsIGVkZ2UtcGF0dGVybi1zb2xpZCByZWxhdGlvbiIgc3R5bGU9IjsiIG1hcmtlci1zdGFydD0idXJsKCNtZXJtYWlkLXN2Zy0wX2NsYXNzLWNvbXBvc2l0aW9uU3RhcnQpIi8+PHBhdGggZD0iTTE4OC42NSw1ODBMMTg4LjY1LDU4MS4xNjdDMTg4LjY1LDU4Mi4zMzMsMTg4LjY1LDU4NC42NjcsMTg4LjY1LDU5MEMxODguNjUsNTk1LjMzMywxODguNjUsNjAzLjY2NywxODguNjUsNjA3LjgzM0wxODguNjUsNjEyIiBpZD0iaWRfU3RvcmFnZVpvbmVfU3RvcmFnZVJhY2tfMiIgY2xhc3M9ImVkZ2UtdGhpY2tuZXNzLW5vcm1hbCBlZGdlLXBhdHRlcm4tc29saWQgcmVsYXRpb24iIHN0eWxlPSI7IiBtYXJrZXItc3RhcnQ9InVybCgjbWVybWFpZC1zdmctMF9jbGFzcy1jb21wb3NpdGlvblN0YXJ0KSIvPjxwYXRoIGQ9Ik0xODguNjUsODcwTDE4OC42NSw4NzEuMTY3QzE4OC42NSw4NzIuMzMzLDE4OC42NSw4NzQuNjY3LDE4OC42NSw4ODBDMTg4LjY1LDg4NS4zMzMsMTg4LjY1LDg5My42NjcsMTg4LjY1LDg5Ny44MzNMMTg4LjY1LDkwMiIgaWQ9ImlkX1N0b3JhZ2VSYWNrX1N0b3JhZ2VTZWN0aW9uXzMiIGNsYXNzPSJlZGdlLXRoaWNrbmVzcy1ub3JtYWwgZWRnZS1wYXR0ZXJuLXNvbGlkIHJlbGF0aW9uIiBzdHlsZT0iOyIgbWFya2VyLXN0YXJ0PSJ1cmwoI21lcm1haWQtc3ZnLTBfY2xhc3MtY29tcG9zaXRpb25TdGFydCkiLz48cGF0aCBkPSJNMTg4LjY1LDExMzZMMTg4LjY1LDExMzcuMTY3QzE4OC42NSwxMTM4LjMzMywxODguNjUsMTE0MC42NjcsMTg4LjY1LDExNDZDMTg4LjY1LDExNTEuMzMzLDE4OC42NSwxMTU5LjY2NywxODguNjUsMTE2My44MzNMMTg4LjY1LDExNjgiIGlkPSJpZF9TdG9yYWdlU2VjdGlvbl9TdG9yYWdlQmluXzQiIGNsYXNzPSJlZGdlLXRoaWNrbmVzcy1ub3JtYWwgZWRnZS1wYXR0ZXJuLXNvbGlkIHJlbGF0aW9uIiBzdHlsZT0iOyIgbWFya2VyLXN0YXJ0PSJ1cmwoI21lcm1haWQtc3ZnLTBfY2xhc3MtY29tcG9zaXRpb25TdGFydCkiLz48L2c+PGcgY2xhc3M9ImVkZ2VMYWJlbHMiPjxnIGNsYXNzPSJlZGdlTGFiZWwiPjxnIGNsYXNzPSJsYWJlbCIgdHJhbnNmb3JtPSJ0cmFuc2xhdGUoMCwgLTEyKSI+PGZvcmVpZ25PYmplY3Qgd2lkdGg9IjAiIGhlaWdodD0iMjQiPjxkaXYgeG1sbnM9Imh0dHA6Ly93d3cudzMub3JnLzE5OTkveGh0bWwiIHN0eWxlPSJkaXNwbGF5OiB0YWJsZS1jZWxsOyB3aGl0ZS1zcGFjZTogbm93cmFwOyBsaW5lLWhlaWdodDogMS41OyBtYXgtd2lkdGg6IDIwMHB4OyB0ZXh0LWFsaWduOiBjZW50ZXI7IiBjbGFzcz0ibGFiZWxCa2ciPjxzcGFuIHN0eWxlPSI7ZGlzcGxheTogaW5saW5lLWJsb2NrIiBjbGFzcz0iZWRnZUxhYmVsIj48L3NwYW4+PC9kaXY+PC9mb3JlaWduT2JqZWN0PjwvZz48L2c+PGcgY2xhc3M9ImVkZ2VMYWJlbCI+PGcgY2xhc3M9ImxhYmVsIiB0cmFuc2Zvcm09InRyYW5zbGF0ZSgwLCAtMTIpIj48Zm9yZWlnbk9iamVjdCB3aWR0aD0iMCIgaGVpZ2h0PSIyNCI+PGRpdiB4bWxucz0iaHR0cDovL3d3dy53My5vcmcvMTk5OS94aHRtbCIgc3R5bGU9ImRpc3BsYXk6IHRhYmxlLWNlbGw7IHdoaXRlLXNwYWNlOiBub3dyYXA7IGxpbmUtaGVpZ2h0OiAxLjU7IG1heC13aWR0aDogMjAwcHg7IHRleHQtYWxpZ246IGNlbnRlcjsiIGNsYXNzPSJsYWJlbEJrZyI+PHNwYW4gc3R5bGU9IjtkaXNwbGF5OiBpbmxpbmUtYmxvY2siIGNsYXNzPSJlZGdlTGFiZWwiPjwvc3Bhbj48L2Rpdj48L2ZvcmVpZ25PYmplY3Q+PC9nPjwvZz48ZyBjbGFzcz0iZWRnZUxhYmVsIj48ZyBjbGFzcz0ibGFiZWwiIHRyYW5zZm9ybT0idHJhbnNsYXRlKDAsIC0xMikiPjxmb3JlaWduT2JqZWN0IHdpZHRoPSIwIiBoZWlnaHQ9IjI0Ij48ZGl2IHhtbG5zPSJodHRwOi8vd3d3LnczLm9yZy8xOTk5L3hodG1sIiBzdHlsZT0iZGlzcGxheTogdGFibGUtY2VsbDsgd2hpdGUtc3BhY2U6IG5vd3JhcDsgbGluZS1oZWlnaHQ6IDEuNTsgbWF4LXdpZHRoOiAyMDBweDsgdGV4dC1hbGlnbjogY2VudGVyOyIgY2xhc3M9ImxhYmVsQmtnIj48c3BhbiBzdHlsZT0iO2Rpc3BsYXk6IGlubGluZS1ibG9jayIgY2xhc3M9ImVkZ2VMYWJlbCI+PC9zcGFuPjwvZGl2PjwvZm9yZWlnbk9iamVjdD48L2c+PC9nPjxnIGNsYXNzPSJlZGdlTGFiZWwiPjxnIGNsYXNzPSJsYWJlbCIgdHJhbnNmb3JtPSJ0cmFuc2xhdGUoMCwgLTEyKSI+PGZvcmVpZ25PYmplY3Qgd2lkdGg9IjAiIGhlaWdodD0iMjQiPjxkaXYgeG1sbnM9Imh0dHA6Ly93d3cudzMub3JnLzE5OTkveGh0bWwiIHN0eWxlPSJkaXNwbGF5OiB0YWJsZS1jZWxsOyB3aGl0ZS1zcGFjZTogbm93cmFwOyBsaW5lLWhlaWdodDogMS41OyBtYXgtd2lkdGg6IDIwMHB4OyB0ZXh0LWFsaWduOiBjZW50ZXI7IiBjbGFzcz0ibGFiZWxCa2ciPjxzcGFuIHN0eWxlPSI7ZGlzcGxheTogaW5saW5lLWJsb2NrIiBjbGFzcz0iZWRnZUxhYmVsIj48L3NwYW4+PC9kaXY+PC9mb3JlaWduT2JqZWN0PjwvZz48L2c+PGcgY2xhc3M9ImVkZ2VUZXJtaW5hbHMiIHRyYW5zZm9ybT0idHJhbnNsYXRlKDE3My42NDk5OTE5NDgyNDIyNywgMjg5LjQ5OTk5ODMzMDA3ODE0KSI+PGcgY2xhc3M9ImlubmVyIiB0cmFuc2Zvcm09InRyYW5zbGF0ZSgwLCAwKSI+PGZvcmVpZ25PYmplY3Qgc3R5bGU9IndpZHRoOiA5cHg7IGhlaWdodDogMTJweDsiPjxkaXYgeG1sbnM9Imh0dHA6Ly93d3cudzMub3JnLzE5OTkveGh0bWwiIHN0eWxlPSJkaXNwbGF5OiBpbmxpbmUtYmxvY2s7IHBhZGRpbmctcmlnaHQ6IDFweDsgd2hpdGUtc3BhY2U6IG5vd3JhcDsiPjxzcGFuIGNsYXNzPSJlZGdlTGFiZWwiIHN0eWxlPSI7ZGlzcGxheTogaW5saW5lLWJsb2NrIj4xPC9zcGFuPjwvZGl2PjwvZm9yZWlnbk9iamVjdD48L2c+PC9nPjxnIGNsYXNzPSJlZGdlVGVybWluYWxzIiB0cmFuc2Zvcm09InRyYW5zbGF0ZSgxNzMuNjQ5OTkxOTQ4MjQyMjcsIDU3OS40OTk5OTgzMzAwNzgxKSI+PGcgY2xhc3M9ImlubmVyIiB0cmFuc2Zvcm09InRyYW5zbGF0ZSgwLCAwKSI+PGZvcmVpZ25PYmplY3Qgc3R5bGU9IndpZHRoOiA5cHg7IGhlaWdodDogMTJweDsiPjxkaXYgeG1sbnM9Imh0dHA6Ly93d3cudzMub3JnLzE5OTkveGh0bWwiIHN0eWxlPSJkaXNwbGF5OiBpbmxpbmUtYmxvY2s7IHBhZGRpbmctcmlnaHQ6IDFweDsgd2hpdGUtc3BhY2U6IG5vd3JhcDsiPjxzcGFuIGNsYXNzPSJlZGdlTGFiZWwiIHN0eWxlPSI7ZGlzcGxheTogaW5saW5lLWJsb2NrIj4xPC9zcGFuPjwvZGl2PjwvZm9yZWlnbk9iamVjdD48L2c+PC9nPjxnIGNsYXNzPSJlZGdlVGVybWluYWxzIiB0cmFuc2Zvcm09InRyYW5zbGF0ZSgxNzMuNjQ5OTkxOTQ4MjQyMjcsIDg2OS40OTk5OTgzMzAwNzgxKSI+PGcgY2xhc3M9ImlubmVyIiB0cmFuc2Zvcm09InRyYW5zbGF0ZSgwLCAwKSI+PGZvcmVpZ25PYmplY3Qgc3R5bGU9IndpZHRoOiA5cHg7IGhlaWdodDogMTJweDsiPjxkaXYgeG1sbnM9Imh0dHA6Ly93d3cudzMub3JnLzE5OTkveGh0bWwiIHN0eWxlPSJkaXNwbGF5OiBpbmxpbmUtYmxvY2s7IHBhZGRpbmctcmlnaHQ6IDFweDsgd2hpdGUtc3BhY2U6IG5vd3JhcDsiPjxzcGFuIGNsYXNzPSJlZGdlTGFiZWwiIHN0eWxlPSI7ZGlzcGxheTogaW5saW5lLWJsb2NrIj4xPC9zcGFuPjwvZGl2PjwvZm9yZWlnbk9iamVjdD48L2c+PC9nPjxnIGNsYXNzPSJlZGdlVGVybWluYWxzIiB0cmFuc2Zvcm09InRyYW5zbGF0ZSgxNzMuNjQ5OTkxOTQ4MjQyMjcsIDExMzUuNDk5OTk4MzMwMDc4MSkiPjxnIGNsYXNzPSJpbm5lciIgdHJhbnNmb3JtPSJ0cmFuc2xhdGUoMCwgMCkiPjxmb3JlaWduT2JqZWN0IHN0eWxlPSJ3aWR0aDogOXB4OyBoZWlnaHQ6IDEycHg7Ij48ZGl2IHhtbG5zPSJodHRwOi8vd3d3LnczLm9yZy8xOTk5L3hodG1sIiBzdHlsZT0iZGlzcGxheTogaW5saW5lLWJsb2NrOyBwYWRkaW5nLXJpZ2h0OiAxcHg7IHdoaXRlLXNwYWNlOiBub3dyYXA7Ij48c3BhbiBjbGFzcz0iZWRnZUxhYmVsIiBzdHlsZT0iO2Rpc3BsYXk6IGlubGluZS1ibG9jayI+MTwvc3Bhbj48L2Rpdj48L2ZvcmVpZ25PYmplY3Q+PC9nPjwvZz48ZyBjbGFzcz0iZWRnZVRlcm1pbmFscyIgdHJhbnNmb3JtPSJ0cmFuc2xhdGUoMTk4LjY0OTk5MTk0ODI0MjEsIDI5OS40OTk5OTgzMzAwNzgxNCkiPjxnIGNsYXNzPSJpbm5lciIgdHJhbnNmb3JtPSJ0cmFuc2xhdGUoMCwgMCkiLz48Zm9yZWlnbk9iamVjdCBzdHlsZT0id2lkdGg6IDM2cHg7IGhlaWdodDogMTJweDsiPjxkaXYgeG1sbnM9Imh0dHA6Ly93d3cudzMub3JnLzE5OTkveGh0bWwiIHN0eWxlPSJkaXNwbGF5OiBpbmxpbmUtYmxvY2s7IHBhZGRpbmctcmlnaHQ6IDFweDsgd2hpdGUtc3BhY2U6IG5vd3JhcDsiPjxzcGFuIGNsYXNzPSJlZGdlTGFiZWwiIHN0eWxlPSI7ZGlzcGxheTogaW5saW5lLWJsb2NrIj4xLi4qPC9zcGFuPjwvZGl2PjwvZm9yZWlnbk9iamVjdD48L2c+PGcgY2xhc3M9ImVkZ2VUZXJtaW5hbHMiIHRyYW5zZm9ybT0idHJhbnNsYXRlKDE5OC42NDk5OTE5NDgyNDIxLCA1ODkuNDk5OTk4MzMwMDc4MSkiPjxnIGNsYXNzPSJpbm5lciIgdHJhbnNmb3JtPSJ0cmFuc2xhdGUoMCwgMCkiLz48Zm9yZWlnbk9iamVjdCBzdHlsZT0id2lkdGg6IDM2cHg7IGhlaWdodDogMTJweDsiPjxkaXYgeG1sbnM9Imh0dHA6Ly93d3cudzMub3JnLzE5OTkveGh0bWwiIHN0eWxlPSJkaXNwbGF5OiBpbmxpbmUtYmxvY2s7IHBhZGRpbmctcmlnaHQ6IDFweDsgd2hpdGUtc3BhY2U6IG5vd3JhcDsiPjxzcGFuIGNsYXNzPSJlZGdlTGFiZWwiIHN0eWxlPSI7ZGlzcGxheTogaW5saW5lLWJsb2NrIj4xLi4qPC9zcGFuPjwvZGl2PjwvZm9yZWlnbk9iamVjdD48L2c+PGcgY2xhc3M9ImVkZ2VUZXJtaW5hbHMiIHRyYW5zZm9ybT0idHJhbnNsYXRlKDE5OC42NDk5OTE5NDgyNDIxLCA4NzkuNDk5OTk4MzMwMDc4MSkiPjxnIGNsYXNzPSJpbm5lciIgdHJhbnNmb3JtPSJ0cmFuc2xhdGUoMCwgMCkiLz48Zm9yZWlnbk9iamVjdCBzdHlsZT0id2lkdGg6IDM2cHg7IGhlaWdodDogMTJweDsiPjxkaXYgeG1sbnM9Imh0dHA6Ly93d3cudzMub3JnLzE5OTkveGh0bWwiIHN0eWxlPSJkaXNwbGF5OiBpbmxpbmUtYmxvY2s7IHBhZGRpbmctcmlnaHQ6IDFweDsgd2hpdGUtc3BhY2U6IG5vd3JhcDsiPjxzcGFuIGNsYXNzPSJlZGdlTGFiZWwiIHN0eWxlPSI7ZGlzcGxheTogaW5saW5lLWJsb2NrIj4xLi4qPC9zcGFuPjwvZGl2PjwvZm9yZWlnbk9iamVjdD48L2c+PGcgY2xhc3M9ImVkZ2VUZXJtaW5hbHMiIHRyYW5zZm9ybT0idHJhbnNsYXRlKDE5OC42NDk5OTE5NDgyNDIxLCAxMTQ1LjQ5OTk5ODMzMDA3ODEpIj48ZyBjbGFzcz0iaW5uZXIiIHRyYW5zZm9ybT0idHJhbnNsYXRlKDAsIDApIi8+PGZvcmVpZ25PYmplY3Qgc3R5bGU9IndpZHRoOiAzNnB4OyBoZWlnaHQ6IDEycHg7Ij48ZGl2IHhtbG5zPSJodHRwOi8vd3d3LnczLm9yZy8xOTk5L3hodG1sIiBzdHlsZT0iZGlzcGxheTogaW5saW5lLWJsb2NrOyBwYWRkaW5nLXJpZ2h0OiAxcHg7IHdoaXRlLXNwYWNlOiBub3dyYXA7Ij48c3BhbiBjbGFzcz0iZWRnZUxhYmVsIiBzdHlsZT0iO2Rpc3BsYXk6IGlubGluZS1ibG9jayI+MS4uKjwvc3Bhbj48L2Rpdj48L2ZvcmVpZ25PYmplY3Q+PC9nPjwvZz48ZyBjbGFzcz0ibm9kZXMiPjxnIGNsYXNzPSJub2RlIGRlZmF1bHQiIGlkPSJjbGFzc0lkLVdhcmVob3VzZS00NSIgdHJhbnNmb3JtPSJ0cmFuc2xhdGUoMTg4LjY0OTk5Mzg5NjQ4NDM4LCAxNDApIj48ZyBjbGFzcz0iYmFzaWMgbGFiZWwtY29udGFpbmVyIj48cGF0aCBkPSJNLTEzNS44MzMzMjgyNDcwNzAzIC0xMzIgTDEzNS44MzMzMjgyNDcwNzAzIC0xMzIgTDEzNS44MzMzMjgyNDcwNzAzIDEzMiBMLTEzNS44MzMzMjgyNDcwNzAzIDEzMiIgc3Ryb2tlPSJub25lIiBzdHJva2Utd2lkdGg9IjAiIGZpbGw9IiMxZjIwMjAiIHN0eWxlPSIiLz48cGF0aCBkPSJNLTEzNS44MzMzMjgyNDcwNzAzIC0xMzIgQy00My4yODYyNjMxMzUxOTMzMSAtMTMyLCA0OS4yNjA4MDE5NzY2ODM2OTUgLTEzMiwgMTM1LjgzMzMyODI0NzA3MDMgLTEzMiBNLTEzNS44MzMzMjgyNDcwNzAzIC0xMzIgQy03NC45MTQ4ODcwNjg2MTQ3NSAtMTMyLCAtMTMuOTk2NDQ1ODkwMTU5MTY2IC0xMzIsIDEzNS44MzMzMjgyNDcwNzAzIC0xMzIgTTEzNS44MzMzMjgyNDcwNzAzIC0xMzIgQzEzNS44MzMzMjgyNDcwNzAzIC02MS44MTAwMzY2MzE4MzQ1OCwgMTM1LjgzMzMyODI0NzA3MDMgOC4zNzk5MjY3MzYzMzA4NDUsIDEzNS44MzMzMjgyNDcwNzAzIDEzMiBNMTM1LjgzMzMyODI0NzA3MDMgLTEzMiBDMTM1LjgzMzMyODI0NzA3MDMgLTc0LjgyNTI1MzY4NDU2NTY4LCAxMzUuODMzMzI4MjQ3MDcwMyAtMTcuNjUwNTA3MzY5MTMxMzYsIDEzNS44MzMzMjgyNDcwNzAzIDEzMiBNMTM1LjgzMzMyODI0NzA3MDMgMTMyIEM3NC4xOTY3NTE3MjI0ODAyIDEzMiwgMTIuNTYwMTc1MTk3ODkwMTA0IDEzMiwgLTEzNS44MzMzMjgyNDcwNzAzIDEzMiBNMTM1LjgzMzMyODI0NzA3MDMgMTMyIEM3Ni45OTk5ODcxMDYxOTIyMSAxMzIsIDE4LjE2NjY0NTk2NTMxNDEwMyAxMzIsIC0xMzUuODMzMzI4MjQ3MDcwMyAxMzIgTS0xMzUuODMzMzI4MjQ3MDcwMyAxMzIgQy0xMzUuODMzMzI4MjQ3MDcwMyA2MC41MDI4OTk3Mzg3MTU5MSwgLTEzNS44MzMzMjgyNDcwNzAzIC0xMC45OTQyMDA1MjI1NjgxNzgsIC0xMzUuODMzMzI4MjQ3MDcwMyAtMTMyIE0tMTM1LjgzMzMyODI0NzA3MDMgMTMyIEMtMTM1LjgzMzMyODI0NzA3MDMgNTEuOTc0MTY1MTI1OTc0MTk2LCAtMTM1LjgzMzMyODI0NzA3MDMgLTI4LjA1MTY2OTc0ODA1MTYxLCAtMTM1LjgzMzMyODI0NzA3MDMgLTEzMiIgc3Ryb2tlPSIjY2NjIiBzdHJva2Utd2lkdGg9IjEuMyIgZmlsbD0ibm9uZSIgc3R5bGU9IiIvPjwvZz48ZyBjbGFzcz0iYW5ub3RhdGlvbi1ncm91cCB0ZXh0IiB0cmFuc2Zvcm09InRyYW5zbGF0ZSgwLCAtMTA4KSIvPjxnIGNsYXNzPSJsYWJlbC1ncm91cCB0ZXh0IiB0cmFuc2Zvcm09InRyYW5zbGF0ZSgtNDEuMDgzMzM1ODc2NDY0ODQ0LCAtMTA4KSI+PGcgY2xhc3M9ImxhYmVsIiBzdHlsZT0iZm9udC13ZWlnaHQ6IGJvbGRlciIgdHJhbnNmb3JtPSJ0cmFuc2xhdGUoMCwtMTIpIj48Zm9yZWlnbk9iamVjdCB3aWR0aD0iODIuMTY2NjcxNzUyOTI5NjkiIGhlaWdodD0iMjQiPjxkaXYgeG1sbnM9Imh0dHA6Ly93d3cudzMub3JnLzE5OTkveGh0bWwiIHN0eWxlPSJkaXNwbGF5OiB0YWJsZS1jZWxsOyB3aGl0ZS1zcGFjZTogbm93cmFwOyBsaW5lLWhlaWdodDogMS41OyBtYXgtd2lkdGg6IDEyOXB4OyB0ZXh0LWFsaWduOiBjZW50ZXI7Ij48c3BhbiBjbGFzcz0ibm9kZUxhYmVsIG1hcmtkb3duLW5vZGUtbGFiZWwiIHN0eWxlPSIiPjxwPldhcmVob3VzZTwvcD48L3NwYW4+PC9kaXY+PC9mb3JlaWduT2JqZWN0PjwvZz48L2c+PGcgY2xhc3M9Im1lbWJlcnMtZ3JvdXAgdGV4dCIgdHJhbnNmb3JtPSJ0cmFuc2xhdGUoLTEyMy44MzMzMjgyNDcwNzAzMSwgLTYwKSI+PGcgY2xhc3M9ImxhYmVsIiBzdHlsZT0iIiB0cmFuc2Zvcm09InRyYW5zbGF0ZSgwLC0xMikiPjxmb3JlaWduT2JqZWN0IHdpZHRoPSI4OC45NjY2NTk1NDU4OTg0NCIgaGVpZ2h0PSIyNCI+PGRpdiB4bWxucz0iaHR0cDovL3d3dy53My5vcmcvMTk5OS94aHRtbCIgc3R5bGU9ImRpc3BsYXk6IHRhYmxlLWNlbGw7IHdoaXRlLXNwYWNlOiBub3dyYXA7IGxpbmUtaGVpZ2h0OiAxLjU7IG1heC13aWR0aDogMTQ3cHg7IHRleHQtYWxpZ246IGNlbnRlcjsiPjxzcGFuIGNsYXNzPSJub2RlTGFiZWwgbWFya2Rvd24tbm9kZS1sYWJlbCIgc3R5bGU9IiI+PHA+K1N0cmluZyBjb2RlPC9wPjwvc3Bhbj48L2Rpdj48L2ZvcmVpZ25PYmplY3Q+PC9nPjxnIGNsYXNzPSJsYWJlbCIgc3R5bGU9IiIgdHJhbnNmb3JtPSJ0cmFuc2xhdGUoMCwxMikiPjxmb3JlaWduT2JqZWN0IHdpZHRoPSI5My45ODMzMzc0MDIzNDM3NSIgaGVpZ2h0PSIyNCI+PGRpdiB4bWxucz0iaHR0cDovL3d3dy53My5vcmcvMTk5OS94aHRtbCIgc3R5bGU9ImRpc3BsYXk6IHRhYmxlLWNlbGw7IHdoaXRlLXNwYWNlOiBub3dyYXA7IGxpbmUtaGVpZ2h0OiAxLjU7IG1heC13aWR0aDogMTUycHg7IHRleHQtYWxpZ246IGNlbnRlcjsiPjxzcGFuIGNsYXNzPSJub2RlTGFiZWwgbWFya2Rvd24tbm9kZS1sYWJlbCIgc3R5bGU9IiI+PHA+K1N0cmluZyBuYW1lPC9wPjwvc3Bhbj48L2Rpdj48L2ZvcmVpZ25PYmplY3Q+PC9nPjxnIGNsYXNzPSJsYWJlbCIgc3R5bGU9IiIgdHJhbnNmb3JtPSJ0cmFuc2xhdGUoMCwzNikiPjxmb3JlaWduT2JqZWN0IHdpZHRoPSIxMjYuMjUiIGhlaWdodD0iMjQiPjxkaXYgeG1sbnM9Imh0dHA6Ly93d3cudzMub3JnLzE5OTkveGh0bWwiIHN0eWxlPSJkaXNwbGF5OiB0YWJsZS1jZWxsOyB3aGl0ZS1zcGFjZTogbm93cmFwOyBsaW5lLWhlaWdodDogMS41OyBtYXgtd2lkdGg6IDE4NXB4OyB0ZXh0LWFsaWduOiBjZW50ZXI7Ij48c3BhbiBjbGFzcz0ibm9kZUxhYmVsIG1hcmtkb3duLW5vZGUtbGFiZWwiIHN0eWxlPSIiPjxwPitBZGRyZXNzIGxvY2F0aW9uPC9wPjwvc3Bhbj48L2Rpdj48L2ZvcmVpZ25PYmplY3Q+PC9nPjxnIGNsYXNzPSJsYWJlbCIgc3R5bGU9IiIgdHJhbnNmb3JtPSJ0cmFuc2xhdGUoMCw2MCkiPjxmb3JlaWduT2JqZWN0IHdpZHRoPSIxNTUuNDY2NjU5NTQ1ODk4NDQiIGhlaWdodD0iMjQiPjxkaXYgeG1sbnM9Imh0dHA6Ly93d3cudzMub3JnLzE5OTkveGh0bWwiIHN0eWxlPSJkaXNwbGF5OiB0YWJsZS1jZWxsOyB3aGl0ZS1zcGFjZTogbm93cmFwOyBsaW5lLWhlaWdodDogMS41OyBtYXgtd2lkdGg6IDIxNHB4OyB0ZXh0LWFsaWduOiBjZW50ZXI7Ij48c3BhbiBjbGFzcz0ibm9kZUxhYmVsIG1hcmtkb3duLW5vZGUtbGFiZWwiIHN0eWxlPSIiPjxwPitXYXJlaG91c2VUeXBlIHR5cGU8L3A+PC9zcGFuPjwvZGl2PjwvZm9yZWlnbk9iamVjdD48L2c+PGcgY2xhc3M9ImxhYmVsIiBzdHlsZT0iIiB0cmFuc2Zvcm09InRyYW5zbGF0ZSgwLDg0KSI+PGZvcmVpZ25PYmplY3Qgd2lkdGg9IjE4MS43ODMzNDA0NTQxMDE1NiIgaGVpZ2h0PSIyNCI+PGRpdiB4bWxucz0iaHR0cDovL3d3dy53My5vcmcvMTk5OS94aHRtbCIgc3R5bGU9ImRpc3BsYXk6IHRhYmxlLWNlbGw7IHdoaXRlLXNwYWNlOiBub3dyYXA7IGxpbmUtaGVpZ2h0OiAxLjU7IG1heC13aWR0aDogMjgxcHg7IHRleHQtYWxpZ246IGNlbnRlcjsiPjxzcGFuIGNsYXNzPSJub2RlTGFiZWwgbWFya2Rvd24tbm9kZS1sYWJlbCIgc3R5bGU9IiI+PHA+K1NldCZsdDtTdG9yYWdlWm9uZSZndDsgem9uZXM8L3A+PC9zcGFuPjwvZGl2PjwvZm9yZWlnbk9iamVjdD48L2c+PGcgY2xhc3M9ImxhYmVsIiBzdHlsZT0iIiB0cmFuc2Zvcm09InRyYW5zbGF0ZSgwLDEwOCkiPjxmb3JlaWduT2JqZWN0IHdpZHRoPSIxMjcuMTAwMDA2MTAzNTE1NjIiIGhlaWdodD0iMjQiPjxkaXYgeG1sbnM9Imh0dHA6Ly93d3cudzMub3JnLzE5OTkveGh0bWwiIHN0eWxlPSJkaXNwbGF5OiB0YWJsZS1jZWxsOyB3aGl0ZS1zcGFjZTogbm93cmFwOyBsaW5lLWhlaWdodDogMS41OyBtYXgtd2lkdGg6IDIyN3B4OyB0ZXh0LWFsaWduOiBjZW50ZXI7Ij48c3BhbiBjbGFzcz0ibm9kZUxhYmVsIG1hcmtkb3duLW5vZGUtbGFiZWwiIHN0eWxlPSIiPjxwPitTZXQmbHQ7RG9jayZndDsgZG9ja3M8L3A+PC9zcGFuPjwvZGl2PjwvZm9yZWlnbk9iamVjdD48L2c+PGcgY2xhc3M9ImxhYmVsIiBzdHlsZT0iIiB0cmFuc2Zvcm09InRyYW5zbGF0ZSgwLDEzMikiPjxmb3JlaWduT2JqZWN0IHdpZHRoPSIyMDYuNTgzMzI4MjQ3MDcwMyIgaGVpZ2h0PSIyNCI+PGRpdiB4bWxucz0iaHR0cDovL3d3dy53My5vcmcvMTk5OS94aHRtbCIgc3R5bGU9ImRpc3BsYXk6IHRhYmxlLWNlbGw7IHdoaXRlLXNwYWNlOiBub3dyYXA7IGxpbmUtaGVpZ2h0OiAxLjU7IG1heC13aWR0aDogMzA0cHg7IHRleHQtYWxpZ246IGNlbnRlcjsiPjxzcGFuIGNsYXNzPSJub2RlTGFiZWwgbWFya2Rvd24tbm9kZS1sYWJlbCIgc3R5bGU9IiI+PHA+K1NldCZsdDtFcXVpcG1lbnQmZ3Q7IGVxdWlwbWVudDwvcD48L3NwYW4+PC9kaXY+PC9mb3JlaWduT2JqZWN0PjwvZz48L2c+PGcgY2xhc3M9Im1ldGhvZHMtZ3JvdXAgdGV4dCIgdHJhbnNmb3JtPSJ0cmFuc2xhdGUoLTEyMy44MzMzMjgyNDcwNzAzMSwgMTMyKSIvPjxnIGNsYXNzPSJkaXZpZGVyIiBzdHlsZT0iIj48cGF0aCBkPSJNLTEzNS44MzMzMjgyNDcwNzAzIC04NCBDLTY3LjI4MDQ2NzcxNjA0NTA1IC04NCwgMS4yNzIzOTI4MTQ5ODAyMDc3IC04NCwgMTM1LjgzMzMyODI0NzA3MDMgLTg0IE0tMTM1LjgzMzMyODI0NzA3MDMgLTg0IEMtNzguNDUxMjgxMTE0NDg1NiAtODQsIC0yMS4wNjkyMzM5ODE5MDA4NjUgLTg0LCAxMzUuODMzMzI4MjQ3MDcwMyAtODQiIHN0cm9rZT0iI2NjYyIgc3Ryb2tlLXdpZHRoPSIxLjMiIGZpbGw9Im5vbmUiIHN0eWxlPSIiLz48L2c+PGcgY2xhc3M9ImRpdmlkZXIiIHN0eWxlPSIiPjxwYXRoIGQ9Ik0tMTM1LjgzMzMyODI0NzA3MDMgMTA4IEMtNjUuMTA0NjE4MzM1NzA5OTYgMTA4LCA1LjYyNDA5MTU3NTY1MDM5NyAxMDgsIDEzNS44MzMzMjgyNDcwNzAzIDEwOCBNLTEzNS44MzMzMjgyNDcwNzAzIDEwOCBDLTYxLjg4OTczNDIyNzE4NjA5NiAxMDgsIDEyLjA1Mzg1OTc5MjY5ODEyIDEwOCwgMTM1LjgzMzMyODI0NzA3MDMgMTA4IiBzdHJva2U9IiNjY2MiIHN0cm9rZS13aWR0aD0iMS4zIiBmaWxsPSJub25lIiBzdHlsZT0iIi8+PC9nPjwvZz48ZyBjbGFzcz0ibm9kZSBkZWZhdWx0IiBpZD0iY2xhc3NJZC1TdG9yYWdlWm9uZS00NiIgdHJhbnNmb3JtPSJ0cmFuc2xhdGUoMTg4LjY0OTk5Mzg5NjQ4NDM4LCA0NDIpIj48ZyBjbGFzcz0iYmFzaWMgbGFiZWwtY29udGFpbmVyIj48cGF0aCBkPSJNLTE4MC42NDk5OTM4OTY0ODQzOCAtMTIwIEwxODAuNjQ5OTkzODk2NDg0MzggLTEyMCBMMTgwLjY0OTk5Mzg5NjQ4NDM4IDEyMCBMLTE4MC42NDk5OTM4OTY0ODQzOCAxMjAiIHN0cm9rZT0ibm9uZSIgc3Ryb2tlLXdpZHRoPSIwIiBmaWxsPSIjMWYyMDIwIiBzdHlsZT0iIi8+PHBhdGggZD0iTS0xODAuNjQ5OTkzODk2NDg0MzggLTEyMCBDLTg4LjM2MjQ5NzM4MTY4MjY0IC0xMjAsIDMuOTI0OTk5MTMzMTE5MDg3IC0xMjAsIDE4MC42NDk5OTM4OTY0ODQzOCAtMTIwIE0tMTgwLjY0OTk5Mzg5NjQ4NDM4IC0xMjAgQy01OS4yNTk2MDk5NTg1MzA2NiAtMTIwLCA2Mi4xMzA3NzM5Nzk0MjMwNTQgLTEyMCwgMTgwLjY0OTk5Mzg5NjQ4NDM4IC0xMjAgTTE4MC42NDk5OTM4OTY0ODQzOCAtMTIwIEMxODAuNjQ5OTkzODk2NDg0MzggLTQ2LjAyNDQ5MzkxMjY3NTM4LCAxODAuNjQ5OTkzODk2NDg0MzggMjcuOTUxMDEyMTc0NjQ5MjM2LCAxODAuNjQ5OTkzODk2NDg0MzggMTIwIE0xODAuNjQ5OTkzODk2NDg0MzggLTEyMCBDMTgwLjY0OTk5Mzg5NjQ4NDM4IC01NS44OTg4NzQzNzU3Nzc3NjYsIDE4MC42NDk5OTM4OTY0ODQzOCA4LjIwMjI1MTI0ODQ0NDQ2OSwgMTgwLjY0OTk5Mzg5NjQ4NDM4IDEyMCBNMTgwLjY0OTk5Mzg5NjQ4NDM4IDEyMCBDODQuMzA4NDQzOTU3NzMwNDIgMTIwLCAtMTIuMDMzMTA1OTgxMDIzNTM5IDEyMCwgLTE4MC42NDk5OTM4OTY0ODQzOCAxMjAgTTE4MC42NDk5OTM4OTY0ODQzOCAxMjAgQzEwMy4zNTU3MDI5MDY5NDcwNCAxMjAsIDI2LjA2MTQxMTkxNzQwOTcxNCAxMjAsIC0xODAuNjQ5OTkzODk2NDg0MzggMTIwIE0tMTgwLjY0OTk5Mzg5NjQ4NDM4IDEyMCBDLTE4MC42NDk5OTM4OTY0ODQzOCA0NS40OTM2MzQyOTg4OTc3MiwgLTE4MC42NDk5OTM4OTY0ODQzOCAtMjkuMDEyNzMxNDAyMjA0NTY1LCAtMTgwLjY0OTk5Mzg5NjQ4NDM4IC0xMjAgTS0xODAuNjQ5OTkzODk2NDg0MzggMTIwIEMtMTgwLjY0OTk5Mzg5NjQ4NDM4IDM0LjcxNTQxOTEzNDQ0OTgyLCAtMTgwLjY0OTk5Mzg5NjQ4NDM4IC01MC41NjkxNjE3MzExMDAzNjUsIC0xODAuNjQ5OTkzODk2NDg0MzggLTEyMCIgc3Ryb2tlPSIjY2NjIiBzdHJva2Utd2lkdGg9IjEuMyIgZmlsbD0ibm9uZSIgc3R5bGU9IiIvPjwvZz48ZyBjbGFzcz0iYW5ub3RhdGlvbi1ncm91cCB0ZXh0IiB0cmFuc2Zvcm09InRyYW5zbGF0ZSgwLCAtOTYpIi8+PGcgY2xhc3M9ImxhYmVsLWdyb3VwIHRleHQiIHRyYW5zZm9ybT0idHJhbnNsYXRlKC00Ni4xNjY2NjQxMjM1MzUxNTYsIC05NikiPjxnIGNsYXNzPSJsYWJlbCIgc3R5bGU9ImZvbnQtd2VpZ2h0OiBib2xkZXIiIHRyYW5zZm9ybT0idHJhbnNsYXRlKDAsLTEyKSI+PGZvcmVpZ25PYmplY3Qgd2lkdGg9IjkyLjMzMzMyODI0NzA3MDMxIiBoZWlnaHQ9IjI0Ij48ZGl2IHhtbG5zPSJodHRwOi8vd3d3LnczLm9yZy8xOTk5L3hodG1sIiBzdHlsZT0iZGlzcGxheTogdGFibGUtY2VsbDsgd2hpdGUtc3BhY2U6IG5vd3JhcDsgbGluZS1oZWlnaHQ6IDEuNTsgbWF4LXdpZHRoOiAxNDBweDsgdGV4dC1hbGlnbjogY2VudGVyOyI+PHNwYW4gY2xhc3M9Im5vZGVMYWJlbCBtYXJrZG93bi1ub2RlLWxhYmVsIiBzdHlsZT0iIj48cD5TdG9yYWdlWm9uZTwvcD48L3NwYW4+PC9kaXY+PC9mb3JlaWduT2JqZWN0PjwvZz48L2c+PGcgY2xhc3M9Im1lbWJlcnMtZ3JvdXAgdGV4dCIgdHJhbnNmb3JtPSJ0cmFuc2xhdGUoLTE2OC42NDk5OTM4OTY0ODQzOCwgLTQ4KSI+PGcgY2xhc3M9ImxhYmVsIiBzdHlsZT0iIiB0cmFuc2Zvcm09InRyYW5zbGF0ZSgwLC0xMikiPjxmb3JlaWduT2JqZWN0IHdpZHRoPSI4OC45NjY2NTk1NDU4OTg0NCIgaGVpZ2h0PSIyNCI+PGRpdiB4bWxucz0iaHR0cDovL3d3dy53My5vcmcvMTk5OS94aHRtbCIgc3R5bGU9ImRpc3BsYXk6IHRhYmxlLWNlbGw7IHdoaXRlLXNwYWNlOiBub3dyYXA7IGxpbmUtaGVpZ2h0OiAxLjU7IG1heC13aWR0aDogMTQ3cHg7IHRleHQtYWxpZ246IGNlbnRlcjsiPjxzcGFuIGNsYXNzPSJub2RlTGFiZWwgbWFya2Rvd24tbm9kZS1sYWJlbCIgc3R5bGU9IiI+PHA+K1N0cmluZyBjb2RlPC9wPjwvc3Bhbj48L2Rpdj48L2ZvcmVpZ25PYmplY3Q+PC9nPjxnIGNsYXNzPSJsYWJlbCIgc3R5bGU9IiIgdHJhbnNmb3JtPSJ0cmFuc2xhdGUoMCwxMikiPjxmb3JlaWduT2JqZWN0IHdpZHRoPSI5My45ODMzMzc0MDIzNDM3NSIgaGVpZ2h0PSIyNCI+PGRpdiB4bWxucz0iaHR0cDovL3d3dy53My5vcmcvMTk5OS94aHRtbCIgc3R5bGU9ImRpc3BsYXk6IHRhYmxlLWNlbGw7IHdoaXRlLXNwYWNlOiBub3dyYXA7IGxpbmUtaGVpZ2h0OiAxLjU7IG1heC13aWR0aDogMTUycHg7IHRleHQtYWxpZ246IGNlbnRlcjsiPjxzcGFuIGNsYXNzPSJub2RlTGFiZWwgbWFya2Rvd24tbm9kZS1sYWJlbCIgc3R5bGU9IiI+PHA+K1N0cmluZyBuYW1lPC9wPjwvc3Bhbj48L2Rpdj48L2ZvcmVpZ25PYmplY3Q+PC9nPjxnIGNsYXNzPSJsYWJlbCIgc3R5bGU9IiIgdHJhbnNmb3JtPSJ0cmFuc2xhdGUoMCwzNikiPjxmb3JlaWduT2JqZWN0IHdpZHRoPSIyMjguNTgzMzI4MjQ3MDcwMyIgaGVpZ2h0PSIyNCI+PGRpdiB4bWxucz0iaHR0cDovL3d3dy53My5vcmcvMTk5OS94aHRtbCIgc3R5bGU9ImRpc3BsYXk6IHRhYmxlLWNlbGw7IHdoaXRlLXNwYWNlOiBub3dyYXA7IGxpbmUtaGVpZ2h0OiAxLjU7IG1heC13aWR0aDogMjg2cHg7IHRleHQtYWxpZ246IGNlbnRlcjsiPjxzcGFuIGNsYXNzPSJub2RlTGFiZWwgbWFya2Rvd24tbm9kZS1sYWJlbCIgc3R5bGU9IiI+PHA+K1RlbXBlcmF0dXJlUmFuZ2UgdGVtcFJhbmdlPC9wPjwvc3Bhbj48L2Rpdj48L2ZvcmVpZ25PYmplY3Q+PC9nPjxnIGNsYXNzPSJsYWJlbCIgc3R5bGU9IiIgdHJhbnNmb3JtPSJ0cmFuc2xhdGUoMCw2MCkiPjxmb3JlaWduT2JqZWN0IHdpZHRoPSIyMjcuNTE2NjYyNTk3NjU2MjUiIGhlaWdodD0iMjQiPjxkaXYgeG1sbnM9Imh0dHA6Ly93d3cudzMub3JnLzE5OTkveGh0bWwiIHN0eWxlPSJkaXNwbGF5OiB0YWJsZS1jZWxsOyB3aGl0ZS1zcGFjZTogbm93cmFwOyBsaW5lLWhlaWdodDogMS41OyBtYXgtd2lkdGg6IDI4N3B4OyB0ZXh0LWFsaWduOiBjZW50ZXI7Ij48c3BhbiBjbGFzcz0ibm9kZUxhYmVsIG1hcmtkb3duLW5vZGUtbGFiZWwiIHN0eWxlPSIiPjxwPitIdW1pZGl0eVJhbmdlIGh1bWlkaXR5UmFuZ2U8L3A+PC9zcGFuPjwvZGl2PjwvZm9yZWlnbk9iamVjdD48L2c+PGcgY2xhc3M9ImxhYmVsIiBzdHlsZT0iIiB0cmFuc2Zvcm09InRyYW5zbGF0ZSgwLDg0KSI+PGZvcmVpZ25PYmplY3Qgd2lkdGg9IjE3Ny41NTAwMDMwNTE3NTc4IiBoZWlnaHQ9IjI0Ij48ZGl2IHhtbG5zPSJodHRwOi8vd3d3LnczLm9yZy8xOTk5L3hodG1sIiBzdHlsZT0iZGlzcGxheTogdGFibGUtY2VsbDsgd2hpdGUtc3BhY2U6IG5vd3JhcDsgbGluZS1oZWlnaHQ6IDEuNTsgbWF4LXdpZHRoOiAyNzNweDsgdGV4dC1hbGlnbjogY2VudGVyOyI+PHNwYW4gY2xhc3M9Im5vZGVMYWJlbCBtYXJrZG93bi1ub2RlLWxhYmVsIiBzdHlsZT0iIj48cD4rU2V0Jmx0O1N0b3JhZ2VSYWNrJmd0OyByYWNrczwvcD48L3NwYW4+PC9kaXY+PC9mb3JlaWduT2JqZWN0PjwvZz48ZyBjbGFzcz0ibGFiZWwiIHN0eWxlPSIiIHRyYW5zZm9ybT0idHJhbnNsYXRlKDAsMTA4KSI+PGZvcmVpZ25PYmplY3Qgd2lkdGg9IjI5MS4xMzMzMzEyOTg4MjgxIiBoZWlnaHQ9IjI0Ij48ZGl2IHhtbG5zPSJodHRwOi8vd3d3LnczLm9yZy8xOTk5L3hodG1sIiBzdHlsZT0iZGlzcGxheTogdGFibGUtY2VsbDsgd2hpdGUtc3BhY2U6IG5vd3JhcDsgbGluZS1oZWlnaHQ6IDEuNTsgbWF4LXdpZHRoOiAzODRweDsgdGV4dC1hbGlnbjogY2VudGVyOyI+PHNwYW4gY2xhc3M9Im5vZGVMYWJlbCBtYXJrZG93bi1ub2RlLWxhYmVsIiBzdHlsZT0iIj48cD4rU2V0Jmx0O1NwZWNpYWxSZXF1aXJlbWVudCZndDsgcmVxdWlyZW1lbnRzPC9wPjwvc3Bhbj48L2Rpdj48L2ZvcmVpZ25PYmplY3Q+PC9nPjwvZz48ZyBjbGFzcz0ibWV0aG9kcy1ncm91cCB0ZXh0IiB0cmFuc2Zvcm09InRyYW5zbGF0ZSgtMTY4LjY0OTk5Mzg5NjQ4NDM4LCAxMjApIi8+PGcgY2xhc3M9ImRpdmlkZXIiIHN0eWxlPSIiPjxwYXRoIGQ9Ik0tMTgwLjY0OTk5Mzg5NjQ4NDM4IC03MiBDLTY3LjA1NTMyNTc1OTA1MDU2IC03MiwgNDYuNTM5MzQyMzc4MzgzMjUgLTcyLCAxODAuNjQ5OTkzODk2NDg0MzggLTcyIE0tMTgwLjY0OTk5Mzg5NjQ4NDM4IC03MiBDLTM3LjQ5NTkyMjcxNjMyNTE0IC03MiwgMTA1LjY1ODE0ODQ2MzgzNDEgLTcyLCAxODAuNjQ5OTkzODk2NDg0MzggLTcyIiBzdHJva2U9IiNjY2MiIHN0cm9rZS13aWR0aD0iMS4zIiBmaWxsPSJub25lIiBzdHlsZT0iIi8+PC9nPjxnIGNsYXNzPSJkaXZpZGVyIiBzdHlsZT0iIj48cGF0aCBkPSJNLTE4MC42NDk5OTM4OTY0ODQzOCA5NiBDLTQwLjE1MzQ2MjcyNjQ4MzYxIDk2LCAxMDAuMzQzMDY4NDQzNTE3MTUgOTYsIDE4MC42NDk5OTM4OTY0ODQzOCA5NiBNLTE4MC42NDk5OTM4OTY0ODQzOCA5NiBDLTEwNy4xMzUyMjYyMDUwNjg5OSA5NiwgLTMzLjYyMDQ1ODUxMzY1MzYgOTYsIDE4MC42NDk5OTM4OTY0ODQzOCA5NiIgc3Ryb2tlPSIjY2NjIiBzdHJva2Utd2lkdGg9IjEuMyIgZmlsbD0ibm9uZSIgc3R5bGU9IiIvPjwvZz48L2c+PGcgY2xhc3M9Im5vZGUgZGVmYXVsdCIgaWQ9ImNsYXNzSWQtU3RvcmFnZVJhY2stNDciIHRyYW5zZm9ybT0idHJhbnNsYXRlKDE4OC42NDk5OTM4OTY0ODQzOCwgNzMyKSI+PGcgY2xhc3M9ImJhc2ljIGxhYmVsLWNvbnRhaW5lciI+PHBhdGggZD0iTS0xNDMuMzQxNjc0ODA0Njg3NSAtMTIwIEwxNDMuMzQxNjc0ODA0Njg3NSAtMTIwIEwxNDMuMzQxNjc0ODA0Njg3NSAxMjAgTC0xNDMuMzQxNjc0ODA0Njg3NSAxMjAiIHN0cm9rZT0ibm9uZSIgc3Ryb2tlLXdpZHRoPSIwIiBmaWxsPSIjMWYyMDIwIiBzdHlsZT0iIi8+PHBhdGggZD0iTS0xNDMuMzQxNjc0ODA0Njg3NSAtMTIwIEMtNDYuNzgzNTMzODgyMTcwMDkgLTEyMCwgNDkuNzc0NjA3MDQwMzQ3MzIgLTEyMCwgMTQzLjM0MTY3NDgwNDY4NzUgLTEyMCBNLTE0My4zNDE2NzQ4MDQ2ODc1IC0xMjAgQy0zNi4wNjQ0NjM0Mjk2Mjk2NCAtMTIwLCA3MS4yMTI3NDc5NDU0MjgyMiAtMTIwLCAxNDMuMzQxNjc0ODA0Njg3NSAtMTIwIE0xNDMuMzQxNjc0ODA0Njg3NSAtMTIwIEMxNDMuMzQxNjc0ODA0Njg3NSAtMzYuMjE3NDU5MDY2MzM1MDEsIDE0My4zNDE2NzQ4MDQ2ODc1IDQ3LjU2NTA4MTg2NzMyOTk4LCAxNDMuMzQxNjc0ODA0Njg3NSAxMjAgTTE0My4zNDE2NzQ4MDQ2ODc1IC0xMjAgQzE0My4zNDE2NzQ4MDQ2ODc1IC02NC4wMjA4MTkyMjk1OTg4NCwgMTQzLjM0MTY3NDgwNDY4NzUgLTguMDQxNjM4NDU5MTk3Njg1LCAxNDMuMzQxNjc0ODA0Njg3NSAxMjAgTTE0My4zNDE2NzQ4MDQ2ODc1IDEyMCBDNDEuMTcwNjk5NjM2ODI4OSAxMjAsIC02MS4wMDAyNzU1MzEwMjk3IDEyMCwgLTE0My4zNDE2NzQ4MDQ2ODc1IDEyMCBNMTQzLjM0MTY3NDgwNDY4NzUgMTIwIEMzNC4xMzQzMTQ2ODA5MDk2IDEyMCwgLTc1LjA3MzA0NTQ0Mjg2ODMgMTIwLCAtMTQzLjM0MTY3NDgwNDY4NzUgMTIwIE0tMTQzLjM0MTY3NDgwNDY4NzUgMTIwIEMtMTQzLjM0MTY3NDgwNDY4NzUgNTMuODE3Nzg2MzQ4Nzk5NTksIC0xNDMuMzQxNjc0ODA0Njg3NSAtMTIuMzY0NDI3MzAyNDAwODI3LCAtMTQzLjM0MTY3NDgwNDY4NzUgLTEyMCBNLTE0My4zNDE2NzQ4MDQ2ODc1IDEyMCBDLTE0My4zNDE2NzQ4MDQ2ODc1IDMxLjAzODA1MTUxODQ3ODQ5NywgLTE0My4zNDE2NzQ4MDQ2ODc1IC01Ny45MjM4OTY5NjMwNDMwMDYsIC0xNDMuMzQxNjc0ODA0Njg3NSAtMTIwIiBzdHJva2U9IiNjY2MiIHN0cm9rZS13aWR0aD0iMS4zIiBmaWxsPSJub25lIiBzdHlsZT0iIi8+PC9nPjxnIGNsYXNzPSJhbm5vdGF0aW9uLWdyb3VwIHRleHQiIHRyYW5zZm9ybT0idHJhbnNsYXRlKDAsIC05NikiLz48ZyBjbGFzcz0ibGFiZWwtZ3JvdXAgdGV4dCIgdHJhbnNmb3JtPSJ0cmFuc2xhdGUoLTQ1LjQ0OTk5Njk0ODI0MjE5LCAtOTYpIj48ZyBjbGFzcz0ibGFiZWwiIHN0eWxlPSJmb250LXdlaWdodDogYm9sZGVyIiB0cmFuc2Zvcm09InRyYW5zbGF0ZSgwLC0xMikiPjxmb3JlaWduT2JqZWN0IHdpZHRoPSI5MC44OTk5OTM4OTY0ODQzOCIgaGVpZ2h0PSIyNCI+PGRpdiB4bWxucz0iaHR0cDovL3d3dy53My5vcmcvMTk5OS94aHRtbCIgc3R5bGU9ImRpc3BsYXk6IHRhYmxlLWNlbGw7IHdoaXRlLXNwYWNlOiBub3dyYXA7IGxpbmUtaGVpZ2h0OiAxLjU7IG1heC13aWR0aDogMTM3cHg7IHRleHQtYWxpZ246IGNlbnRlcjsiPjxzcGFuIGNsYXNzPSJub2RlTGFiZWwgbWFya2Rvd24tbm9kZS1sYWJlbCIgc3R5bGU9IiI+PHA+U3RvcmFnZVJhY2s8L3A+PC9zcGFuPjwvZGl2PjwvZm9yZWlnbk9iamVjdD48L2c+PC9nPjxnIGNsYXNzPSJtZW1iZXJzLWdyb3VwIHRleHQiIHRyYW5zZm9ybT0idHJhbnNsYXRlKC0xMzEuMzQxNjc0ODA0Njg3NSwgLTQ4KSI+PGcgY2xhc3M9ImxhYmVsIiBzdHlsZT0iIiB0cmFuc2Zvcm09InRyYW5zbGF0ZSgwLC0xMikiPjxmb3JlaWduT2JqZWN0IHdpZHRoPSIxMjIuMTMzMzMxMjk4ODI4MTIiIGhlaWdodD0iMjQiPjxkaXYgeG1sbnM9Imh0dHA6Ly93d3cudzMub3JnLzE5OTkveGh0bWwiIHN0eWxlPSJkaXNwbGF5OiB0YWJsZS1jZWxsOyB3aGl0ZS1zcGFjZTogbm93cmFwOyBsaW5lLWhlaWdodDogMS41OyBtYXgtd2lkdGg6IDE3NnB4OyB0ZXh0LWFsaWduOiBjZW50ZXI7Ij48c3BhbiBjbGFzcz0ibm9kZUxhYmVsIG1hcmtkb3duLW5vZGUtbGFiZWwiIHN0eWxlPSIiPjxwPitTdHJpbmcgaWRlbnRpZmllcjwvcD48L3NwYW4+PC9kaXY+PC9mb3JlaWduT2JqZWN0PjwvZz48ZyBjbGFzcz0ibGFiZWwiIHN0eWxlPSIiIHRyYW5zZm9ybT0idHJhbnNsYXRlKDAsMTIpIj48Zm9yZWlnbk9iamVjdCB3aWR0aD0iMTExLjc2NjY2MjU5NzY1NjI1IiBoZWlnaHQ9IjI0Ij48ZGl2IHhtbG5zPSJodHRwOi8vd3d3LnczLm9yZy8xOTk5L3hodG1sIiBzdHlsZT0iZGlzcGxheTogdGFibGUtY2VsbDsgd2hpdGUtc3BhY2U6IG5vd3JhcDsgbGluZS1oZWlnaHQ6IDEuNTsgbWF4LXdpZHRoOiAxNjhweDsgdGV4dC1hbGlnbjogY2VudGVyOyI+PHNwYW4gY2xhc3M9Im5vZGVMYWJlbCBtYXJrZG93bi1ub2RlLWxhYmVsIiBzdHlsZT0iIj48cD4rUmFja1R5cGUgdHlwZTwvcD48L3NwYW4+PC9kaXY+PC9mb3JlaWduT2JqZWN0PjwvZz48ZyBjbGFzcz0ibGFiZWwiIHN0eWxlPSIiIHRyYW5zZm9ybT0idHJhbnNsYXRlKDAsMzYpIj48Zm9yZWlnbk9iamVjdCB3aWR0aD0iMTcyLjMzMzMyODI0NzA3MDMiIGhlaWdodD0iMjQiPjxkaXYgeG1sbnM9Imh0dHA6Ly93d3cudzMub3JnLzE5OTkveGh0bWwiIHN0eWxlPSJkaXNwbGF5OiB0YWJsZS1jZWxsOyB3aGl0ZS1zcGFjZTogbm93cmFwOyBsaW5lLWhlaWdodDogMS41OyBtYXgtd2lkdGg6IDIzNHB4OyB0ZXh0LWFsaWduOiBjZW50ZXI7Ij48c3BhbiBjbGFzcz0ibm9kZUxhYmVsIG1hcmtkb3duLW5vZGUtbGFiZWwiIHN0eWxlPSIiPjxwPitEaW1lbnNpb25zIGRpbWVuc2lvbnM8L3A+PC9zcGFuPjwvZGl2PjwvZm9yZWlnbk9iamVjdD48L2c+PGcgY2xhc3M9ImxhYmVsIiBzdHlsZT0iIiB0cmFuc2Zvcm09InRyYW5zbGF0ZSgwLDYwKSI+PGZvcmVpZ25PYmplY3Qgd2lkdGg9Ijc0LjA4MzMyODI0NzA3MDMxIiBoZWlnaHQ9IjI0Ij48ZGl2IHhtbG5zPSJodHRwOi8vd3d3LnczLm9yZy8xOTk5L3hodG1sIiBzdHlsZT0iZGlzcGxheTogdGFibGUtY2VsbDsgd2hpdGUtc3BhY2U6IG5vd3JhcDsgbGluZS1oZWlnaHQ6IDEuNTsgbWF4LXdpZHRoOiAxMjlweDsgdGV4dC1hbGlnbjogY2VudGVyOyI+PHNwYW4gY2xhc3M9Im5vZGVMYWJlbCBtYXJrZG93bi1ub2RlLWxhYmVsIiBzdHlsZT0iIj48cD4raW50IGxldmVsczwvcD48L3NwYW4+PC9kaXY+PC9mb3JlaWduT2JqZWN0PjwvZz48ZyBjbGFzcz0ibGFiZWwiIHN0eWxlPSIiIHRyYW5zZm9ybT0idHJhbnNsYXRlKDAsODQpIj48Zm9yZWlnbk9iamVjdCB3aWR0aD0iMjE3LjIzMzMzNzQwMjM0Mzc1IiBoZWlnaHQ9IjI0Ij48ZGl2IHhtbG5zPSJodHRwOi8vd3d3LnczLm9yZy8xOTk5L3hodG1sIiBzdHlsZT0iZGlzcGxheTogdGFibGUtY2VsbDsgd2hpdGUtc3BhY2U6IG5vd3JhcDsgbGluZS1oZWlnaHQ6IDEuNTsgbWF4LXdpZHRoOiAzMTRweDsgdGV4dC1hbGlnbjogY2VudGVyOyI+PHNwYW4gY2xhc3M9Im5vZGVMYWJlbCBtYXJrZG93bi1ub2RlLWxhYmVsIiBzdHlsZT0iIj48cD4rU2V0Jmx0O1N0b3JhZ2VTZWN0aW9uJmd0OyBzZWN0aW9uczwvcD48L3NwYW4+PC9kaXY+PC9mb3JlaWduT2JqZWN0PjwvZz48ZyBjbGFzcz0ibGFiZWwiIHN0eWxlPSIiIHRyYW5zZm9ybT0idHJhbnNsYXRlKDAsMTA4KSI+PGZvcmVpZ25PYmplY3Qgd2lkdGg9IjE2OS41NTAwMDMwNTE3NTc4IiBoZWlnaHQ9IjI0Ij48ZGl2IHhtbG5zPSJodHRwOi8vd3d3LnczLm9yZy8xOTk5L3hodG1sIiBzdHlsZT0iZGlzcGxheTogdGFibGUtY2VsbDsgd2hpdGUtc3BhY2U6IG5vd3JhcDsgbGluZS1oZWlnaHQ6IDEuNTsgbWF4LXdpZHRoOiAyMjNweDsgdGV4dC1hbGlnbjogY2VudGVyOyI+PHNwYW4gY2xhc3M9Im5vZGVMYWJlbCBtYXJrZG93bi1ub2RlLWxhYmVsIiBzdHlsZT0iIj48cD4rTG9hZENhcGFjaXR5IGNhcGFjaXR5PC9wPjwvc3Bhbj48L2Rpdj48L2ZvcmVpZ25PYmplY3Q+PC9nPjwvZz48ZyBjbGFzcz0ibWV0aG9kcy1ncm91cCB0ZXh0IiB0cmFuc2Zvcm09InRyYW5zbGF0ZSgtMTMxLjM0MTY3NDgwNDY4NzUsIDEyMCkiLz48ZyBjbGFzcz0iZGl2aWRlciIgc3R5bGU9IiI+PHBhdGggZD0iTS0xNDMuMzQxNjc0ODA0Njg3NSAtNzIgQy00MS45MTg0MTI3ODgzODgyNCAtNzIsIDU5LjUwNDg0OTIyNzkxMTAyIC03MiwgMTQzLjM0MTY3NDgwNDY4NzUgLTcyIE0tMTQzLjM0MTY3NDgwNDY4NzUgLTcyIEMtNTYuMzUzNTY3MzIxNjc5MDggLTcyLCAzMC42MzQ1NDAxNjEzMjkzNCAtNzIsIDE0My4zNDE2NzQ4MDQ2ODc1IC03MiIgc3Ryb2tlPSIjY2NjIiBzdHJva2Utd2lkdGg9IjEuMyIgZmlsbD0ibm9uZSIgc3R5bGU9IiIvPjwvZz48ZyBjbGFzcz0iZGl2aWRlciIgc3R5bGU9IiI+PHBhdGggZD0iTS0xNDMuMzQxNjc0ODA0Njg3NSA5NiBDLTQ0LjU4NTEwMDgxNjIxNzE5IDk2LCA1NC4xNzE0NzMxNzIyNTMxMTYgOTYsIDE0My4zNDE2NzQ4MDQ2ODc1IDk2IE0tMTQzLjM0MTY3NDgwNDY4NzUgOTYgQy02OC4wMTE1NTI0NTA4NDgzMSA5NiwgNy4zMTg1Njk5MDI5OTA4NzMgOTYsIDE0My4zNDE2NzQ4MDQ2ODc1IDk2IiBzdHJva2U9IiNjY2MiIHN0cm9rZS13aWR0aD0iMS4zIiBmaWxsPSJub25lIiBzdHlsZT0iIi8+PC9nPjwvZz48ZyBjbGFzcz0ibm9kZSBkZWZhdWx0IiBpZD0iY2xhc3NJZC1TdG9yYWdlU2VjdGlvbi00OCIgdHJhbnNmb3JtPSJ0cmFuc2xhdGUoMTg4LjY0OTk5Mzg5NjQ4NDM4LCAxMDEwKSI+PGcgY2xhc3M9ImJhc2ljIGxhYmVsLWNvbnRhaW5lciI+PHBhdGggZD0iTS0xMzYuMzc5MTY1NjQ5NDE0MDYgLTEwOCBMMTM2LjM3OTE2NTY0OTQxNDA2IC0xMDggTDEzNi4zNzkxNjU2NDk0MTQwNiAxMDggTC0xMzYuMzc5MTY1NjQ5NDE0MDYgMTA4IiBzdHJva2U9Im5vbmUiIHN0cm9rZS13aWR0aD0iMCIgZmlsbD0iIzFmMjAyMCIgc3R5bGU9IiIvPjxwYXRoIGQ9Ik0tMTM2LjM3OTE2NTY0OTQxNDA2IC0xMDggQy01Mi43MzIzMTQ0MTQ4NzYxIC0xMDgsIDMwLjkxNDUzNjgxOTY2MTg2MiAtMTA4LCAxMzYuMzc5MTY1NjQ5NDE0MDYgLTEwOCBNLTEzNi4zNzkxNjU2NDk0MTQwNiAtMTA4IEMtNjAuNDY1OTAxMDgzNTA2NjIgLTEwOCwgMTUuNDQ3MzYzNDgyNDAwODE3IC0xMDgsIDEzNi4zNzkxNjU2NDk0MTQwNiAtMTA4IE0xMzYuMzc5MTY1NjQ5NDE0MDYgLTEwOCBDMTM2LjM3OTE2NTY0OTQxNDA2IC01MS4yNjc2OTA5NTQ2NjA2OTQsIDEzNi4zNzkxNjU2NDk0MTQwNiA1LjQ2NDYxODA5MDY3ODYxMywgMTM2LjM3OTE2NTY0OTQxNDA2IDEwOCBNMTM2LjM3OTE2NTY0OTQxNDA2IC0xMDggQzEzNi4zNzkxNjU2NDk0MTQwNiAtNDYuNzE4MTg5MTA1NzI5MTUsIDEzNi4zNzkxNjU2NDk0MTQwNiAxNC41NjM2MjE3ODg1NDE2OTUsIDEzNi4zNzkxNjU2NDk0MTQwNiAxMDggTTEzNi4zNzkxNjU2NDk0MTQwNiAxMDggQzcwLjQwODY1NDM2NTE4NTcxIDEwOCwgNC40MzgxNDMwODA5NTczNiAxMDgsIC0xMzYuMzc5MTY1NjQ5NDE0MDYgMTA4IE0xMzYuMzc5MTY1NjQ5NDE0MDYgMTA4IEM4MC43NDY2MzY5Nzk0MDY0NiAxMDgsIDI1LjExNDEwODMwOTM5ODg2IDEwOCwgLTEzNi4zNzkxNjU2NDk0MTQwNiAxMDggTS0xMzYuMzc5MTY1NjQ5NDE0MDYgMTA4IEMtMTM2LjM3OTE2NTY0OTQxNDA2IDU2LjA0Nzg3MjM5MTI0OCwgLTEzNi4zNzkxNjU2NDk0MTQwNiA0LjA5NTc0NDc4MjQ5NTk5ODUsIC0xMzYuMzc5MTY1NjQ5NDE0MDYgLTEwOCBNLTEzNi4zNzkxNjU2NDk0MTQwNiAxMDggQy0xMzYuMzc5MTY1NjQ5NDE0MDYgNTEuNTg1NzE4NzMxNDAzMjA1LCAtMTM2LjM3OTE2NTY0OTQxNDA2IC00LjgyODU2MjUzNzE5MzU5MSwgLTEzNi4zNzkxNjU2NDk0MTQwNiAtMTA4IiBzdHJva2U9IiNjY2MiIHN0cm9rZS13aWR0aD0iMS4zIiBmaWxsPSJub25lIiBzdHlsZT0iIi8+PC9nPjxnIGNsYXNzPSJhbm5vdGF0aW9uLWdyb3VwIHRleHQiIHRyYW5zZm9ybT0idHJhbnNsYXRlKDAsIC04NCkiLz48ZyBjbGFzcz0ibGFiZWwtZ3JvdXAgdGV4dCIgdHJhbnNmb3JtPSJ0cmFuc2xhdGUoLTU1LjQyNTAwMzA1MTc1NzgxLCAtODQpIj48ZyBjbGFzcz0ibGFiZWwiIHN0eWxlPSJmb250LXdlaWdodDogYm9sZGVyIiB0cmFuc2Zvcm09InRyYW5zbGF0ZSgwLC0xMikiPjxmb3JlaWduT2JqZWN0IHdpZHRoPSIxMTAuODUwMDA2MTAzNTE1NjIiIGhlaWdodD0iMjQiPjxkaXYgeG1sbnM9Imh0dHA6Ly93d3cudzMub3JnLzE5OTkveGh0bWwiIHN0eWxlPSJkaXNwbGF5OiB0YWJsZS1jZWxsOyB3aGl0ZS1zcGFjZTogbm93cmFwOyBsaW5lLWhlaWdodDogMS41OyBtYXgtd2lkdGg6IDE1NnB4OyB0ZXh0LWFsaWduOiBjZW50ZXI7Ij48c3BhbiBjbGFzcz0ibm9kZUxhYmVsIG1hcmtkb3duLW5vZGUtbGFiZWwiIHN0eWxlPSIiPjxwPlN0b3JhZ2VTZWN0aW9uPC9wPjwvc3Bhbj48L2Rpdj48L2ZvcmVpZ25PYmplY3Q+PC9nPjwvZz48ZyBjbGFzcz0ibWVtYmVycy1ncm91cCB0ZXh0IiB0cmFuc2Zvcm09InRyYW5zbGF0ZSgtMTI0LjM3OTE2NTY0OTQxNDA2LCAtMzYpIj48ZyBjbGFzcz0ibGFiZWwiIHN0eWxlPSIiIHRyYW5zZm9ybT0idHJhbnNsYXRlKDAsLTEyKSI+PGZvcmVpZ25PYmplY3Qgd2lkdGg9Ijg4Ljk2NjY1OTU0NTg5ODQ0IiBoZWlnaHQ9IjI0Ij48ZGl2IHhtbG5zPSJodHRwOi8vd3d3LnczLm9yZy8xOTk5L3hodG1sIiBzdHlsZT0iZGlzcGxheTogdGFibGUtY2VsbDsgd2hpdGUtc3BhY2U6IG5vd3JhcDsgbGluZS1oZWlnaHQ6IDEuNTsgbWF4LXdpZHRoOiAxNDdweDsgdGV4dC1hbGlnbjogY2VudGVyOyI+PHNwYW4gY2xhc3M9Im5vZGVMYWJlbCBtYXJrZG93bi1ub2RlLWxhYmVsIiBzdHlsZT0iIj48cD4rU3RyaW5nIGNvZGU8L3A+PC9zcGFuPjwvZGl2PjwvZm9yZWlnbk9iamVjdD48L2c+PGcgY2xhc3M9ImxhYmVsIiBzdHlsZT0iIiB0cmFuc2Zvcm09InRyYW5zbGF0ZSgwLDEyKSI+PGZvcmVpZ25PYmplY3Qgd2lkdGg9IjE5My4zMzMzMjgyNDcwNzAzIiBoZWlnaHQ9IjI0Ij48ZGl2IHhtbG5zPSJodHRwOi8vd3d3LnczLm9yZy8xOTk5L3hodG1sIiBzdHlsZT0iZGlzcGxheTogdGFibGUtY2VsbDsgd2hpdGUtc3BhY2U6IG5vd3JhcDsgbGluZS1oZWlnaHQ6IDEuNTsgbWF4LXdpZHRoOiAyNTBweDsgdGV4dC1hbGlnbjogY2VudGVyOyI+PHNwYW4gY2xhc3M9Im5vZGVMYWJlbCBtYXJrZG93bi1ub2RlLWxhYmVsIiBzdHlsZT0iIj48cD4rU3RvcmFnZUxvY2F0aW9uVHlwZSB0eXBlPC9wPjwvc3Bhbj48L2Rpdj48L2ZvcmVpZ25PYmplY3Q+PC9nPjxnIGNsYXNzPSJsYWJlbCIgc3R5bGU9IiIgdHJhbnNmb3JtPSJ0cmFuc2xhdGUoMCwzNikiPjxmb3JlaWduT2JqZWN0IHdpZHRoPSIxNzIuMzMzMzI4MjQ3MDcwMyIgaGVpZ2h0PSIyNCI+PGRpdiB4bWxucz0iaHR0cDovL3d3dy53My5vcmcvMTk5OS94aHRtbCIgc3R5bGU9ImRpc3BsYXk6IHRhYmxlLWNlbGw7IHdoaXRlLXNwYWNlOiBub3dyYXA7IGxpbmUtaGVpZ2h0OiAxLjU7IG1heC13aWR0aDogMjM0cHg7IHRleHQtYWxpZ246IGNlbnRlcjsiPjxzcGFuIGNsYXNzPSJub2RlTGFiZWwgbWFya2Rvd24tbm9kZS1sYWJlbCIgc3R5bGU9IiI+PHA+K0RpbWVuc2lvbnMgZGltZW5zaW9uczwvcD48L3NwYW4+PC9kaXY+PC9mb3JlaWduT2JqZWN0PjwvZz48ZyBjbGFzcz0ibGFiZWwiIHN0eWxlPSIiIHRyYW5zZm9ybT0idHJhbnNsYXRlKDAsNjApIj48Zm9yZWlnbk9iamVjdCB3aWR0aD0iMTU3Ljg1MDAwNjEwMzUxNTYyIiBoZWlnaHQ9IjI0Ij48ZGl2IHhtbG5zPSJodHRwOi8vd3d3LnczLm9yZy8xOTk5L3hodG1sIiBzdHlsZT0iZGlzcGxheTogdGFibGUtY2VsbDsgd2hpdGUtc3BhY2U6IG5vd3JhcDsgbGluZS1oZWlnaHQ6IDEuNTsgbWF4LXdpZHRoOiAyNTZweDsgdGV4dC1hbGlnbjogY2VudGVyOyI+PHNwYW4gY2xhc3M9Im5vZGVMYWJlbCBtYXJrZG93bi1ub2RlLWxhYmVsIiBzdHlsZT0iIj48cD4rU2V0Jmx0O1N0b3JhZ2VCaW4mZ3Q7IGJpbnM8L3A+PC9zcGFuPjwvZGl2PjwvZm9yZWlnbk9iamVjdD48L2c+PGcgY2xhc3M9ImxhYmVsIiBzdHlsZT0iIiB0cmFuc2Zvcm09InRyYW5zbGF0ZSgwLDg0KSI+PGZvcmVpZ25PYmplY3Qgd2lkdGg9IjE4MC42NDk5OTM4OTY0ODQzOCIgaGVpZ2h0PSIyNCI+PGRpdiB4bWxucz0iaHR0cDovL3d3dy53My5vcmcvMTk5OS94aHRtbCIgc3R5bGU9ImRpc3BsYXk6IHRhYmxlLWNlbGw7IHdoaXRlLXNwYWNlOiBub3dyYXA7IGxpbmUtaGVpZ2h0OiAxLjU7IG1heC13aWR0aDogMjM0cHg7IHRleHQtYWxpZ246IGNlbnRlcjsiPjxzcGFuIGNsYXNzPSJub2RlTGFiZWwgbWFya2Rvd24tbm9kZS1sYWJlbCIgc3R5bGU9IiI+PHA+K0FjY2Vzc2liaWxpdHkgYWNjZXNzVHlwZTwvcD48L3NwYW4+PC9kaXY+PC9mb3JlaWduT2JqZWN0PjwvZz48L2c+PGcgY2xhc3M9Im1ldGhvZHMtZ3JvdXAgdGV4dCIgdHJhbnNmb3JtPSJ0cmFuc2xhdGUoLTEyNC4zNzkxNjU2NDk0MTQwNiwgMTA4KSIvPjxnIGNsYXNzPSJkaXZpZGVyIiBzdHlsZT0iIj48cGF0aCBkPSJNLTEzNi4zNzkxNjU2NDk0MTQwNiAtNjAgQy0zOC44NjU0NDAzMzkyMjA2MSAtNjAsIDU4LjY0ODI4NDk3MDk3Mjg0IC02MCwgMTM2LjM3OTE2NTY0OTQxNDA2IC02MCBNLTEzNi4zNzkxNjU2NDk0MTQwNiAtNjAgQy03NC40MDE5Nzk3MDgzODk0NSAtNjAsIC0xMi40MjQ3OTM3NjczNjQ4MzIgLTYwLCAxMzYuMzc5MTY1NjQ5NDE0MDYgLTYwIiBzdHJva2U9IiNjY2MiIHN0cm9rZS13aWR0aD0iMS4zIiBmaWxsPSJub25lIiBzdHlsZT0iIi8+PC9nPjxnIGNsYXNzPSJkaXZpZGVyIiBzdHlsZT0iIj48cGF0aCBkPSJNLTEzNi4zNzkxNjU2NDk0MTQwNiA4NCBDLTY5LjQ1ODkzNDU3MDk1MjM1IDg0LCAtMi41Mzg3MDM0OTI0OTA2NCA4NCwgMTM2LjM3OTE2NTY0OTQxNDA2IDg0IE0tMTM2LjM3OTE2NTY0OTQxNDA2IDg0IEMtNjAuMDEwOTkzNzk3MjU3NTQgODQsIDE2LjM1NzE3ODA1NDg5ODk4IDg0LCAxMzYuMzc5MTY1NjQ5NDE0MDYgODQiIHN0cm9rZT0iI2NjYyIgc3Ryb2tlLXdpZHRoPSIxLjMiIGZpbGw9Im5vbmUiIHN0eWxlPSIiLz48L2c+PC9nPjxnIGNsYXNzPSJub2RlIGRlZmF1bHQiIGlkPSJjbGFzc0lkLVN0b3JhZ2VCaW4tNDkiIHRyYW5zZm9ybT0idHJhbnNsYXRlKDE4OC42NDk5OTM4OTY0ODQzOCwgMTI4OCkiPjxnIGNsYXNzPSJiYXNpYyBsYWJlbC1jb250YWluZXIiPjxwYXRoIGQ9Ik0tMTI0LjI5MTY2NDEyMzUzNTE2IC0xMjAgTDEyNC4yOTE2NjQxMjM1MzUxNiAtMTIwIEwxMjQuMjkxNjY0MTIzNTM1MTYgMTIwIEwtMTI0LjI5MTY2NDEyMzUzNTE2IDEyMCIgc3Ryb2tlPSJub25lIiBzdHJva2Utd2lkdGg9IjAiIGZpbGw9IiMxZjIwMjAiIHN0eWxlPSIiLz48cGF0aCBkPSJNLTEyNC4yOTE2NjQxMjM1MzUxNiAtMTIwIEMtNjguOTQ2Njg2MDIxODE5MjUgLTEyMCwgLTEzLjYwMTcwNzkyMDEwMzMzNyAtMTIwLCAxMjQuMjkxNjY0MTIzNTM1MTYgLTEyMCBNLTEyNC4yOTE2NjQxMjM1MzUxNiAtMTIwIEMtNjUuMDcyNjA5NjI5NjAwNDkgLTEyMCwgLTUuODUzNTU1MTM1NjY1ODI5IC0xMjAsIDEyNC4yOTE2NjQxMjM1MzUxNiAtMTIwIE0xMjQuMjkxNjY0MTIzNTM1MTYgLTEyMCBDMTI0LjI5MTY2NDEyMzUzNTE2IC01Ny44MDI2NDMyMTgzNjMwNjYsIDEyNC4yOTE2NjQxMjM1MzUxNiA0LjM5NDcxMzU2MzI3Mzg2OCwgMTI0LjI5MTY2NDEyMzUzNTE2IDEyMCBNMTI0LjI5MTY2NDEyMzUzNTE2IC0xMjAgQzEyNC4yOTE2NjQxMjM1MzUxNiAtMjQuNTQwNzQ3MTA0ODA0OTM2LCAxMjQuMjkxNjY0MTIzNTM1MTYgNzAuOTE4NTA1NzkwMzkwMTMsIDEyNC4yOTE2NjQxMjM1MzUxNiAxMjAgTTEyNC4yOTE2NjQxMjM1MzUxNiAxMjAgQzM0LjY1NTAyMTQ3NTc1MDU2IDEyMCwgLTU0Ljk4MTYyMTE3MjAzNDA0IDEyMCwgLTEyNC4yOTE2NjQxMjM1MzUxNiAxMjAgTTEyNC4yOTE2NjQxMjM1MzUxNiAxMjAgQzUwLjEyMTczMzMzNTkxMTY4NSAxMjAsIC0yNC4wNDgxOTc0NTE3MTE3ODYgMTIwLCAtMTI0LjI5MTY2NDEyMzUzNTE2IDEyMCBNLTEyNC4yOTE2NjQxMjM1MzUxNiAxMjAgQy0xMjQuMjkxNjY0MTIzNTM1MTYgNDYuNDkwNDk0MDQ2OTI4MTA2LCAtMTI0LjI5MTY2NDEyMzUzNTE2IC0yNy4wMTkwMTE5MDYxNDM3OSwgLTEyNC4yOTE2NjQxMjM1MzUxNiAtMTIwIE0tMTI0LjI5MTY2NDEyMzUzNTE2IDEyMCBDLTEyNC4yOTE2NjQxMjM1MzUxNiA1Ny45ODI5MjA1MDkxODEzNTUsIC0xMjQuMjkxNjY0MTIzNTM1MTYgLTQuMDM0MTU4OTgxNjM3MjksIC0xMjQuMjkxNjY0MTIzNTM1MTYgLTEyMCIgc3Ryb2tlPSIjY2NjIiBzdHJva2Utd2lkdGg9IjEuMyIgZmlsbD0ibm9uZSIgc3R5bGU9IiIvPjwvZz48ZyBjbGFzcz0iYW5ub3RhdGlvbi1ncm91cCB0ZXh0IiB0cmFuc2Zvcm09InRyYW5zbGF0ZSgwLCAtOTYpIi8+PGcgY2xhc3M9ImxhYmVsLWdyb3VwIHRleHQiIHRyYW5zZm9ybT0idHJhbnNsYXRlKC0zOS42OTk5OTY5NDgyNDIxOSwgLTk2KSI+PGcgY2xhc3M9ImxhYmVsIiBzdHlsZT0iZm9udC13ZWlnaHQ6IGJvbGRlciIgdHJhbnNmb3JtPSJ0cmFuc2xhdGUoMCwtMTIpIj48Zm9yZWlnbk9iamVjdCB3aWR0aD0iNzkuMzk5OTkzODk2NDg0MzgiIGhlaWdodD0iMjQiPjxkaXYgeG1sbnM9Imh0dHA6Ly93d3cudzMub3JnLzE5OTkveGh0bWwiIHN0eWxlPSJkaXNwbGF5OiB0YWJsZS1jZWxsOyB3aGl0ZS1zcGFjZTogbm93cmFwOyBsaW5lLWhlaWdodDogMS41OyBtYXgtd2lkdGg6IDEyNnB4OyB0ZXh0LWFsaWduOiBjZW50ZXI7Ij48c3BhbiBjbGFzcz0ibm9kZUxhYmVsIG1hcmtkb3duLW5vZGUtbGFiZWwiIHN0eWxlPSIiPjxwPlN0b3JhZ2VCaW48L3A+PC9zcGFuPjwvZGl2PjwvZm9yZWlnbk9iamVjdD48L2c+PC9nPjxnIGNsYXNzPSJtZW1iZXJzLWdyb3VwIHRleHQiIHRyYW5zZm9ybT0idHJhbnNsYXRlKC0xMTIuMjkxNjY0MTIzNTM1MTYsIC00OCkiPjxnIGNsYXNzPSJsYWJlbCIgc3R5bGU9IiIgdHJhbnNmb3JtPSJ0cmFuc2xhdGUoMCwtMTIpIj48Zm9yZWlnbk9iamVjdCB3aWR0aD0iMTEyLjUiIGhlaWdodD0iMjQiPjxkaXYgeG1sbnM9Imh0dHA6Ly93d3cudzMub3JnLzE5OTkveGh0bWwiIHN0eWxlPSJkaXNwbGF5OiB0YWJsZS1jZWxsOyB3aGl0ZS1zcGFjZTogbm93cmFwOyBsaW5lLWhlaWdodDogMS41OyBtYXgtd2lkdGg6IDE3MHB4OyB0ZXh0LWFsaWduOiBjZW50ZXI7Ij48c3BhbiBjbGFzcz0ibm9kZUxhYmVsIG1hcmtkb3duLW5vZGUtbGFiZWwiIHN0eWxlPSIiPjxwPitTdHJpbmcgYmFyY29kZTwvcD48L3NwYW4+PC9kaXY+PC9mb3JlaWduT2JqZWN0PjwvZz48ZyBjbGFzcz0ibGFiZWwiIHN0eWxlPSIiIHRyYW5zZm9ybT0idHJhbnNsYXRlKDAsMTIpIj48Zm9yZWlnbk9iamVjdCB3aWR0aD0iMTIyLjQxNjY3MTc1MjkyOTY5IiBoZWlnaHQ9IjI0Ij48ZGl2IHhtbG5zPSJodHRwOi8vd3d3LnczLm9yZy8xOTk5L3hodG1sIiBzdHlsZT0iZGlzcGxheTogdGFibGUtY2VsbDsgd2hpdGUtc3BhY2U6IG5vd3JhcDsgbGluZS1oZWlnaHQ6IDEuNTsgbWF4LXdpZHRoOiAxNzhweDsgdGV4dC1hbGlnbjogY2VudGVyOyI+PHNwYW4gY2xhc3M9Im5vZGVMYWJlbCBtYXJrZG93bi1ub2RlLWxhYmVsIiBzdHlsZT0iIj48cD4rQmluU3RhdHVzIHN0YXR1czwvcD48L3NwYW4+PC9kaXY+PC9mb3JlaWduT2JqZWN0PjwvZz48ZyBjbGFzcz0ibGFiZWwiIHN0eWxlPSIiIHRyYW5zZm9ybT0idHJhbnNsYXRlKDAsMzYpIj48Zm9yZWlnbk9iamVjdCB3aWR0aD0iMTcyLjMzMzMyODI0NzA3MDMiIGhlaWdodD0iMjQiPjxkaXYgeG1sbnM9Imh0dHA6Ly93d3cudzMub3JnLzE5OTkveGh0bWwiIHN0eWxlPSJkaXNwbGF5OiB0YWJsZS1jZWxsOyB3aGl0ZS1zcGFjZTogbm93cmFwOyBsaW5lLWhlaWdodDogMS41OyBtYXgtd2lkdGg6IDIzNHB4OyB0ZXh0LWFsaWduOiBjZW50ZXI7Ij48c3BhbiBjbGFzcz0ibm9kZUxhYmVsIG1hcmtkb3duLW5vZGUtbGFiZWwiIHN0eWxlPSIiPjxwPitEaW1lbnNpb25zIGRpbWVuc2lvbnM8L3A+PC9zcGFuPjwvZGl2PjwvZm9yZWlnbk9iamVjdD48L2c+PGcgY2xhc3M9ImxhYmVsIiBzdHlsZT0iIiB0cmFuc2Zvcm09InRyYW5zbGF0ZSgwLDYwKSI+PGZvcmVpZ25PYmplY3Qgd2lkdGg9IjE4NC44ODMzMzEyOTg4MjgxMiIgaGVpZ2h0PSIyNCI+PGRpdiB4bWxucz0iaHR0cDovL3d3dy53My5vcmcvMTk5OS94aHRtbCIgc3R5bGU9ImRpc3BsYXk6IHRhYmxlLWNlbGw7IHdoaXRlLXNwYWNlOiBub3dyYXA7IGxpbmUtaGVpZ2h0OiAxLjU7IG1heC13aWR0aDogMjM5cHg7IHRleHQtYWxpZ246IGNlbnRlcjsiPjxzcGFuIGNsYXNzPSJub2RlTGFiZWwgbWFya2Rvd24tbm9kZS1sYWJlbCIgc3R5bGU9IiI+PHA+K1dlaWdodENhcGFjaXR5IGNhcGFjaXR5PC9wPjwvc3Bhbj48L2Rpdj48L2ZvcmVpZ25PYmplY3Q+PC9nPjxnIGNsYXNzPSJsYWJlbCIgc3R5bGU9IiIgdHJhbnNmb3JtPSJ0cmFuc2xhdGUoMCw4NCkiPjxmb3JlaWduT2JqZWN0IHdpZHRoPSIxNzkiIGhlaWdodD0iMjQiPjxkaXYgeG1sbnM9Imh0dHA6Ly93d3cudzMub3JnLzE5OTkveGh0bWwiIHN0eWxlPSJkaXNwbGF5OiB0YWJsZS1jZWxsOyB3aGl0ZS1zcGFjZTogbm93cmFwOyBsaW5lLWhlaWdodDogMS41OyBtYXgtd2lkdGg6IDI3NXB4OyB0ZXh0LWFsaWduOiBjZW50ZXI7Ij48c3BhbiBjbGFzcz0ibm9kZUxhYmVsIG1hcmtkb3duLW5vZGUtbGFiZWwiIHN0eWxlPSIiPjxwPitTZXQmbHQ7U3RvcmFnZUl0ZW0mZ3Q7IGl0ZW1zPC9wPjwvc3Bhbj48L2Rpdj48L2ZvcmVpZ25PYmplY3Q+PC9nPjxnIGNsYXNzPSJsYWJlbCIgc3R5bGU9IiIgdHJhbnNmb3JtPSJ0cmFuc2xhdGUoMCwxMDgpIj48Zm9yZWlnbk9iamVjdCB3aWR0aD0iMTAwLjQzMzMzNDM1MDU4NTk0IiBoZWlnaHQ9IjI0Ij48ZGl2IHhtbG5zPSJodHRwOi8vd3d3LnczLm9yZy8xOTk5L3hodG1sIiBzdHlsZT0iZGlzcGxheTogdGFibGUtY2VsbDsgd2hpdGUtc3BhY2U6IG5vd3JhcDsgbGluZS1oZWlnaHQ6IDEuNTsgbWF4LXdpZHRoOiAxNTdweDsgdGV4dC1hbGlnbjogY2VudGVyOyI+PHNwYW4gY2xhc3M9Im5vZGVMYWJlbCBtYXJrZG93bi1ub2RlLWxhYmVsIiBzdHlsZT0iIj48cD4rQmluVHlwZSB0eXBlPC9wPjwvc3Bhbj48L2Rpdj48L2ZvcmVpZ25PYmplY3Q+PC9nPjwvZz48ZyBjbGFzcz0ibWV0aG9kcy1ncm91cCB0ZXh0IiB0cmFuc2Zvcm09InRyYW5zbGF0ZSgtMTEyLjI5MTY2NDEyMzUzNTE2LCAxMjApIi8+PGcgY2xhc3M9ImRpdmlkZXIiIHN0eWxlPSIiPjxwYXRoIGQ9Ik0tMTI0LjI5MTY2NDEyMzUzNTE2IC03MiBDLTYwLjA4MjIxODMxMzU5NTg0NSAtNzIsIDQuMTI3MjI3NDk2MzQzNDY1IC03MiwgMTI0LjI5MTY2NDEyMzUzNTE2IC03MiBNLTEyNC4yOTE2NjQxMjM1MzUxNiAtNzIgQy02NC43Mjc4ODQzMDM0NjE3IC03MiwgLTUuMTY0MTA0NDgzMzg4MjcyIC03MiwgMTI0LjI5MTY2NDEyMzUzNTE2IC03MiIgc3Ryb2tlPSIjY2NjIiBzdHJva2Utd2lkdGg9IjEuMyIgZmlsbD0ibm9uZSIgc3R5bGU9IiIvPjwvZz48ZyBjbGFzcz0iZGl2aWRlciIgc3R5bGU9IiI+PHBhdGggZD0iTS0xMjQuMjkxNjY0MTIzNTM1MTYgOTYgQy0zNi42NDMzODc4MzIxNjUzMyA5NiwgNTEuMDA0ODg4NDU5MjA0NDk0IDk2LCAxMjQuMjkxNjY0MTIzNTM1MTYgOTYgTS0xMjQuMjkxNjY0MTIzNTM1MTYgOTYgQy00My4wMTU3NzEzNDYzNzY3OTUgOTYsIDM4LjI2MDEyMTQzMDc4MTU3IDk2LCAxMjQuMjkxNjY0MTIzNTM1MTYgOTYiIHN0cm9rZT0iI2NjYyIgc3Ryb2tlLXdpZHRoPSIxLjMiIGZpbGw9Im5vbmUiIHN0eWxlPSIiLz48L2c+PC9nPjwvZz48L2c+PC9nPjwvc3ZnPg==;" vertex="1" parent="1">
          <mxGeometry x="10" y="220" width="311" height="1200" as="geometry" />
        </mxCell>
      </root>
    </mxGraphModel>
  </diagram>
</mxfile>
